<?xml version="1.0" encoding="UTF-8" standalone="no"?>
<svg xmlns:ffdec="https://www.free-decompiler.com/flash" xmlns:xlink="http://www.w3.org/1999/xlink" ffdec:objectType="frame" height="50.0px" width="50.0px" xmlns="http://www.w3.org/2000/svg">
  <g transform="matrix(1.0, 0.0, 0.0, 1.0, 0.0, 0.0)">
    <use ffdec:characterId="1" height="50.0" transform="matrix(1.0, 0.0, 0.0, 1.0, 0.0, 0.0)" width="50.0" xlink:href="#shape0"/>
    <use ffdec:characterId="3" height="37.05" transform="matrix(0.8566, 0.0, 0.0, 0.8566, 10.6717, 9.3717)" width="36.9" xlink:href="#sprite0"/>
  </g>
  <defs>
    <g id="shape0" transform="matrix(1.0, 0.0, 0.0, 1.0, 0.0, 0.0)">
      <path d="M50.0 0.0 L50.0 50.0 0.0 50.0 0.0 0.0 50.0 0.0" fill="#1195cc" fill-opacity="0.0" fill-rule="evenodd" stroke="none"/>
      <path d="M41.75 41.25 Q34.9 48.15 25.2 48.15 19.9 48.15 15.45 46.1 L15.05 45.9 Q11.55 44.2 8.6 41.25 L7.7 40.3 Q1.75 33.75 1.75 24.7 1.75 15.0 8.6 8.1 15.5 1.25 25.2 1.25 L29.65 1.65 Q36.5 2.85 41.75 8.1 L42.35 8.7 Q44.0 10.5 45.25 12.45 48.65 17.9 48.65 24.7 48.65 34.4 41.75 41.25 Z" ffdec:has-small-stroke="true" ffdec:original-stroke-width="0.5" fill="none" stroke="#ad0000" stroke-linecap="round" stroke-linejoin="round" stroke-width="1.0"/>
      <path d="M41.75 41.25 Q34.9 48.15 25.2 48.15 19.9 48.15 15.45 46.1 L15.05 45.9 Q11.55 44.2 8.6 41.25 L7.7 40.3 Q1.75 33.75 1.75 24.7 1.75 15.0 8.6 8.1 15.5 1.25 25.2 1.25 L29.65 1.65 Q36.5 2.85 41.75 8.1 L42.35 8.7 Q44.0 10.5 45.25 12.45 48.65 17.9 48.65 24.7 48.65 34.4 41.75 41.25" fill="url(#gradient0)" fill-rule="evenodd" stroke="none"/>
      <path d="M41.75 41.25 Q34.9 48.15 25.2 48.15 19.9 48.15 15.45 46.1 L15.05 45.9 Q11.55 44.2 8.6 41.25 L7.7 40.3 Q1.75 33.75 1.75 24.7 1.75 15.0 8.6 8.1 15.5 1.25 25.2 1.25 L29.65 1.65 Q36.5 2.85 41.75 8.1 L42.35 8.7 Q44.0 10.5 45.25 12.45 48.65 17.9 48.65 24.7 48.65 34.4 41.75 41.25 Z" fill="none" stroke="#990000" stroke-linecap="round" stroke-linejoin="round" stroke-width="1.0"/>
    </g>
    <radialGradient cx="0" cy="0" gradientTransform="matrix(0.0295, 0.0, 0.0, 0.0295, 25.2, 24.7)" gradientUnits="userSpaceOnUse" id="gradient0" r="819.2" spreadMethod="pad">
      <stop offset="0.44313725490196076" stop-color="#ff7979"/>
      <stop offset="1.0" stop-color="#fc0000"/>
      <stop offset="1.0" stop-color="#f70000"/>
    </radialGradient>
    <g id="sprite0" transform="matrix(1.0, 0.0, 0.0, 1.0, 0.5, 0.5)">
      <use ffdec:characterId="2" height="37.05" transform="matrix(1.0, 0.0, 0.0, 1.0, -0.5, -0.5)" width="36.9" xlink:href="#shape1"/>
    </g>
    <g id="shape1" transform="matrix(1.0, 0.0, 0.0, 1.0, 0.5, 0.5)">
      <path d="M32.85 3.25 L33.0 3.0 33.5 2.35 31.1 2.2 28.05 2.4 27.0 2.6 26.75 2.9 26.55 3.35 28.8 3.2 32.85 3.25 M34.2 7.05 L35.6 7.05 33.9 10.8 20.5 10.8 20.25 11.4 23.7 11.4 23.75 12.85 34.9 12.25 33.25 15.7 23.75 16.25 23.7 17.2 35.9 17.2 34.3 20.75 17.85 20.7 17.85 16.45 17.15 18.0 12.2 18.0 12.2 30.25 7.4 35.6 0.0 35.6 0.0 0.3 12.2 0.3 12.2 17.15 15.15 10.8 13.2 10.8 13.2 7.05 21.25 7.05 21.25 5.05 13.85 5.05 13.85 1.35 21.25 1.35 21.25 0.0 27.15 0.0 27.15 1.35 35.2 1.35 33.5 5.05 27.15 5.05 27.15 7.05 28.55 7.05 29.3 5.6 34.75 5.6 34.2 7.05 M11.45 4.2 L11.45 3.6 Q11.4 2.2 11.15 1.55 L8.8 1.2 5.65 1.3 5.45 1.3 5.25 1.95 Q5.25 2.85 5.95 3.35 L9.3 3.55 10.05 4.5 Q11.05 6.05 11.05 7.95 L11.25 6.85 11.45 4.2 M5.2 5.05 L5.2 30.85 7.0 30.85 7.0 5.05 5.2 5.05" fill="url(#gradient1)" fill-rule="evenodd" stroke="none"/>
      <path d="M32.85 3.25 L28.8 3.2 26.55 3.35 26.75 2.9 27.0 2.6 28.05 2.4 31.1 2.2 33.5 2.35 33.0 3.0 32.85 3.25 M11.45 4.2 L11.25 6.85 11.05 7.95 Q11.05 6.05 10.05 4.5 L9.3 3.55 5.95 3.35 Q5.25 2.85 5.25 1.95 L5.45 1.3 5.65 1.3 8.8 1.2 11.15 1.55 Q11.4 2.2 11.45 3.6 L11.45 4.2" fill="#fccecd" fill-rule="evenodd" stroke="none"/>
      <path d="M20.0 27.55 L28.4 27.55 26.9 30.85 20.0 30.85 20.0 32.7 28.95 32.7 28.95 25.75 20.0 25.75 20.0 27.55 M29.35 36.05 L14.1 36.0 14.1 22.25 34.8 22.25 34.8 32.0 29.35 36.05" fill="url(#gradient2)" fill-rule="evenodd" stroke="none"/>
      <path d="M34.2 7.05 L35.6 7.05 33.9 10.8 20.5 10.8 20.25 11.4 23.7 11.4 23.75 12.85 34.9 12.25 33.25 15.7 23.75 16.25 23.7 17.2 35.9 17.2 34.3 20.75 17.85 20.7 17.85 16.45 17.15 18.0 12.2 18.0 12.2 30.25 7.4 35.6 0.0 35.6 0.0 0.3 12.2 0.3 12.2 17.15 15.15 10.8 13.2 10.8 13.2 7.05 21.25 7.05 21.25 5.05 13.85 5.05 13.85 1.35 21.25 1.35 21.25 0.0 27.15 0.0 27.15 1.35 35.2 1.35 33.5 5.05 27.15 5.05 27.15 7.05 28.55 7.05 29.3 5.6 34.75 5.6 34.2 7.05 M5.2 5.05 L5.2 30.85 7.0 30.85 7.0 5.05 5.2 5.05 M20.0 27.55 L28.4 27.55 26.9 30.85 20.0 30.85 20.0 32.7 28.95 32.7 28.95 25.75 20.0 25.75 20.0 27.55 M29.35 36.05 L14.1 36.0 14.1 22.25 34.8 22.25 34.8 32.0 29.35 36.05 Z" ffdec:has-small-stroke="true" ffdec:original-stroke-width="1.0" fill="none" stroke="url(#gradient3)" stroke-linecap="round" stroke-linejoin="round" stroke-width="1.1673465025560643"/>
    </g>
    <linearGradient gradientTransform="matrix(0.0057, 0.0212, -0.021, 0.0056, 18.1, 15.8)" gradientUnits="userSpaceOnUse" id="gradient1" spreadMethod="pad" x1="-819.2" x2="819.2">
      <stop offset="0.0" stop-color="#ffafaf"/>
      <stop offset="0.5725490196078431" stop-color="#fc0000"/>
      <stop offset="0.6509803921568628" stop-color="#b10000"/>
    </linearGradient>
    <linearGradient gradientTransform="matrix(0.0, 0.0126, -0.0084, 0.0, 24.65, 19.2)" gradientUnits="userSpaceOnUse" id="gradient2" spreadMethod="pad" x1="-819.2" x2="819.2">
      <stop offset="0.0" stop-color="#ffafaf"/>
      <stop offset="0.5725490196078431" stop-color="#fc0000"/>
      <stop offset="0.6509803921568628" stop-color="#b10000"/>
    </linearGradient>
    <linearGradient gradientTransform="matrix(0.0, 0.0511, -0.0527, 0.0, 16.75, 18.0)" gradientUnits="userSpaceOnUse" id="gradient3" spreadMethod="pad" x1="-819.2" x2="819.2">
      <stop offset="0.00392156862745098" stop-color="#fc0000"/>
      <stop offset="1.0" stop-color="#580000"/>
      <stop offset="1.0" stop-color="#ffa800"/>
    </linearGradient>
  </defs>
</svg>
