<?xml version="1.0" encoding="UTF-8" standalone="no"?>
<svg xmlns:ffdec="https://www.free-decompiler.com/flash" xmlns:xlink="http://www.w3.org/1999/xlink" ffdec:objectType="shape" height="50.0px" width="50.0px" xmlns="http://www.w3.org/2000/svg">
  <g transform="matrix(1.0, 0.0, 0.0, 1.0, 0.0, 0.0)">
    <path d="M50.0 0.0 L50.0 50.0 0.0 50.0 0.0 0.0 50.0 0.0" fill="#1195cc" fill-opacity="0.0" fill-rule="evenodd" stroke="none"/>
    <path d="M41.75 41.25 Q34.9 48.15 25.2 48.15 19.9 48.15 15.45 46.1 L15.05 45.9 Q11.55 44.2 8.6 41.25 L7.7 40.3 Q1.75 33.75 1.75 24.7 1.75 15.0 8.6 8.1 15.5 1.25 25.2 1.25 L29.65 1.65 Q36.5 2.85 41.75 8.1 L42.35 8.7 Q44.0 10.5 45.25 12.45 48.65 17.9 48.65 24.7 48.65 34.4 41.75 41.25 Z" ffdec:has-small-stroke="true" ffdec:original-stroke-width="0.5" fill="none" stroke="#ad0000" stroke-linecap="round" stroke-linejoin="round" stroke-width="1.0"/>
    <path d="M41.75 41.25 Q34.9 48.15 25.2 48.15 19.9 48.15 15.45 46.1 L15.05 45.9 Q11.55 44.2 8.6 41.25 L7.7 40.3 Q1.75 33.75 1.75 24.7 1.75 15.0 8.6 8.1 15.5 1.25 25.2 1.25 L29.65 1.65 Q36.5 2.85 41.75 8.1 L42.35 8.7 Q44.0 10.5 45.25 12.45 48.65 17.9 48.65 24.7 48.65 34.4 41.75 41.25" fill="url(#gradient0)" fill-rule="evenodd" stroke="none"/>
    <path d="M41.75 41.25 Q34.9 48.15 25.2 48.15 19.9 48.15 15.45 46.1 L15.05 45.9 Q11.55 44.2 8.6 41.25 L7.7 40.3 Q1.75 33.75 1.75 24.7 1.75 15.0 8.6 8.1 15.5 1.25 25.2 1.25 L29.65 1.65 Q36.5 2.85 41.75 8.1 L42.35 8.7 Q44.0 10.5 45.25 12.45 48.65 17.9 48.65 24.7 48.65 34.4 41.75 41.25 Z" fill="none" stroke="#990000" stroke-linecap="round" stroke-linejoin="round" stroke-width="1.0"/>
  </g>
  <defs>
    <radialGradient cx="0" cy="0" gradientTransform="matrix(0.0295, 0.0, 0.0, 0.0295, 25.2, 24.7)" gradientUnits="userSpaceOnUse" id="gradient0" r="819.2" spreadMethod="pad">
      <stop offset="0.44313725490196076" stop-color="#ff7979"/>
      <stop offset="1.0" stop-color="#fc0000"/>
      <stop offset="1.0" stop-color="#f70000"/>
    </radialGradient>
  </defs>
</svg>
