<?xml version="1.0" encoding="UTF-8" standalone="no"?>
<svg xmlns:ffdec="https://www.free-decompiler.com/flash" xmlns:xlink="http://www.w3.org/1999/xlink" ffdec:objectType="shape" height="16.7px" width="16.4px" xmlns="http://www.w3.org/2000/svg">
  <g transform="matrix(1.0, 0.0, 0.0, 1.0, -7.6, -6.65)">
    <path d="M12.55 11.2 L13.65 10.5 9.5 10.5 9.5 8.8 14.8 8.8 14.8 8.15 16.95 8.15 16.95 8.8 22.05 8.8 22.05 10.5 18.0 10.5 19.15 11.2 20.1 11.35 22.2 11.35 22.2 13.0 19.5 13.0 Q18.05 13.0 17.4 12.55 L15.8 11.35 14.05 12.55 Q13.5 13.0 12.25 13.0 L9.35 13.0 9.35 11.35 11.6 11.35 12.55 11.2 M9.1 13.45 L22.5 13.45 22.5 15.25 21.2 15.25 21.2 20.1 20.75 21.35 Q20.35 21.85 19.55 21.85 L18.3 21.85 18.3 20.1 18.9 20.1 Q19.2 20.1 19.2 19.25 L19.2 15.25 9.1 15.25 9.1 13.45 M12.05 19.3 L15.75 19.3 Q16.05 19.3 16.05 18.8 L16.05 17.6 12.05 17.6 12.05 19.3 M10.15 16.0 L17.95 16.0 17.95 19.55 Q17.95 21.0 16.55 21.0 L10.15 21.0 10.15 16.0 Z" fill="none" stroke="#990000" stroke-linecap="round" stroke-linejoin="round" stroke-width="3.0"/>
    <path d="M22.1 10.5 L18.0 10.5 19.15 11.2 20.15 11.35 22.2 11.35 22.2 12.95 19.55 12.95 Q18.05 12.95 17.4 12.55 L15.85 11.35 14.05 12.55 Q13.5 12.95 12.25 12.95 L9.35 12.95 9.35 11.35 11.65 11.35 12.55 11.2 13.65 10.5 9.5 10.5 9.5 8.8 14.8 8.8 14.8 8.1 16.95 8.1 16.95 8.8 22.1 8.8 22.1 10.5 M21.2 15.2 L21.2 20.05 Q21.2 20.85 20.75 21.35 20.35 21.8 19.55 21.8 L18.3 21.8 18.3 20.05 18.9 20.05 Q19.25 20.05 19.25 19.2 L19.25 15.2 9.1 15.2 9.1 13.45 22.5 13.45 22.5 15.2 21.2 15.2 M16.05 18.8 L16.05 17.6 12.05 17.6 12.05 19.3 15.75 19.3 Q16.05 19.3 16.05 18.8 M16.55 20.95 L10.15 20.95 10.15 16.0 17.95 16.0 17.95 19.55 Q17.95 20.95 16.55 20.95" fill="url(#gradient0)" fill-rule="evenodd" stroke="none"/>
  </g>
  <defs>
    <linearGradient gradientTransform="matrix(0.0, 0.0057, -0.0114, 0.0, 18.45, 14.9)" gradientUnits="userSpaceOnUse" id="gradient0" spreadMethod="pad" x1="-819.2" x2="819.2">
      <stop offset="0.00784313725490196" stop-color="#ff6600"/>
      <stop offset="1.0" stop-color="#ff3300"/>
    </linearGradient>
  </defs>
</svg>
