<?xml version="1.0" encoding="UTF-8" standalone="no"?>
<svg xmlns:ffdec="https://www.free-decompiler.com/flash" xmlns:xlink="http://www.w3.org/1999/xlink" ffdec:objectType="frame" height="60.95px" width="60.95px" xmlns="http://www.w3.org/2000/svg">
  <g transform="matrix(1.0, 0.0, 0.0, 1.0, 0.0, 0.0)">
    <use ffdec:characterId="1" height="53.8" transform="matrix(1.0, 0.0, 0.0, 1.0, 9.35, 3.85)" width="42.75" xlink:href="#shape0"/>
    <filter id="filter0">
      <feColorMatrix in="SourceGraphic" result="filterResult0" type="matrix" values="0 0 0 0 0.8666667,0 0 0 0 0.4,0 0 0 0 0.99607843,0 0 0 1 0"/>
      <feConvolveMatrix divisor="25.0" in="filterResult0" kernelMatrix="1 1 1 1 1 1 1 1 1 1 1 1 1 1 1 1 1 1 1 1 1 1 1 1 1" order="5 5" result="filterResult1"/>
      <feComposite in="SourceGraphic" in2="filterResult1" operator="over" result="filterResult2"/>
    </filter>
    <use ffdec:characterId="3" filter="url(#filter0)" height="40.0" style="mix-blend-mode: overlay" transform="matrix(0.9044, -0.6194, 0.6194, 0.9043, 0.019, 24.7788)" width="40.0" xlink:href="#sprite0"/>
  </g>
  <defs>
    <g id="shape0" transform="matrix(1.0, 0.0, 0.0, 1.0, -9.35, -3.85)">
      <path d="M39.5 21.4 Q36.1 18.15 29.65 18.15 25.65 18.15 21.4 21.4 17.1 24.95 17.1 30.25 17.1 35.55 21.4 39.75 25.65 42.9 29.65 42.9 36.1 42.9 39.5 39.75 43.85 35.55 43.85 30.25 43.85 24.95 39.5 21.4 M45.95 15.55 Q52.1 22.3 52.1 30.25 52.1 39.05 45.95 45.0 38.9 51.2 31.2 51.2 22.0 51.2 14.95 45.0 9.35 39.05 9.35 30.25 9.35 22.3 14.95 15.55 22.0 9.35 31.2 9.35 38.9 9.35 45.95 15.55" fill="#20012e" fill-rule="evenodd" stroke="none"/>
      <path d="M40.1 20.6 Q36.35 17.1 31.25 16.8 L30.5 16.7 29.2 16.8 Q24.65 17.35 21.15 20.6 L19.05 23.3 Q17.35 26.4 17.35 30.15 17.35 34.0 19.3 37.1 19.95 38.5 21.15 39.6 22.25 40.65 23.5 41.5 26.3 43.3 29.6 43.5 L30.5 43.6 31.6 43.5 Q35.1 43.3 37.8 41.5 L40.1 39.6 41.95 37.45 Q44.05 34.25 44.05 30.15 44.05 25.8 41.6 22.45 L40.1 20.6 M45.7 30.15 Q45.7 36.5 41.35 40.75 L40.55 41.5 Q36.75 44.9 31.6 45.15 L30.5 45.15 29.6 45.15 Q26.2 45.0 23.3 43.3 21.55 42.35 19.95 40.75 L17.9 38.35 Q15.6 34.75 15.6 30.15 15.6 23.9 19.95 19.55 23.95 15.6 29.2 15.25 L30.5 15.25 31.25 15.25 Q37.05 15.35 41.35 19.55 45.7 23.9 45.7 30.15" fill="#9933ff" fill-rule="evenodd" stroke="none"/>
      <path d="M40.85 12.4 Q46.5 15.5 49.45 21.7 52.2 27.5 51.4 33.4 L47.8 32.1 Q48.05 27.7 46.0 23.3 43.8 18.75 39.65 16.15 L40.85 12.4 M13.55 30.0 Q13.4 33.95 15.25 37.8 17.1 41.8 20.5 44.4 L19.3 47.9 Q14.45 44.9 11.9 39.4 9.4 34.15 9.8 28.55 L13.55 30.0" fill="#9933ff" fill-rule="evenodd" stroke="none"/>
      <path d="M36.2 30.55 Q36.2 33.0 34.35 34.5 32.85 36.05 30.6 36.05 28.3 36.05 26.55 34.5 25.05 33.0 25.05 30.55 25.05 28.25 26.55 26.5 28.3 24.95 30.6 24.95 32.85 24.95 34.35 26.5 36.2 28.25 36.2 30.55 M42.2 30.7 Q42.2 34.95 39.2 38.5 L47.95 57.15 33.4 41.9 30.8 42.05 Q25.9 42.05 22.55 38.85 19.3 35.35 19.3 30.7 19.3 26.15 22.3 22.9 L13.45 4.35 26.85 19.8 Q28.55 19.2 30.8 19.2 35.5 19.2 38.95 22.65 42.2 25.8 42.2 30.7 M39.2 30.55 Q39.2 26.85 36.6 24.3 34.05 21.7 30.6 21.7 26.85 21.7 24.35 24.3 21.75 26.85 21.75 30.55 21.75 34.1 24.35 36.8 26.85 39.55 30.6 39.55 34.05 39.55 36.6 36.8 39.2 34.1 39.2 30.55" fill="#120523" fill-rule="evenodd" stroke="none"/>
      <path d="M36.2 30.55 Q36.2 28.25 34.35 26.5 32.85 24.95 30.6 24.95 28.3 24.95 26.55 26.5 25.05 28.25 25.05 30.55 25.05 33.0 26.55 34.5 28.3 36.05 30.6 36.05 32.85 36.05 34.35 34.5 36.2 33.0 36.2 30.55 M39.2 30.55 Q39.2 34.1 36.6 36.8 34.05 39.55 30.6 39.55 26.85 39.55 24.35 36.8 21.75 34.1 21.75 30.55 21.75 26.85 24.35 24.3 26.85 21.7 30.6 21.7 34.05 21.7 36.6 24.3 39.2 26.85 39.2 30.55" fill="#bb27a9" fill-rule="evenodd" stroke="none"/>
      <path d="M42.2 30.7 Q42.2 34.95 39.2 38.5 L47.95 57.15 33.4 41.9 30.8 42.05 Q25.9 42.05 22.55 38.85 19.3 35.35 19.3 30.7 19.3 26.15 22.3 22.9 L13.45 4.35 26.85 19.8 Q28.55 19.2 30.8 19.2 35.5 19.2 38.95 22.65 42.2 25.8 42.2 30.7 Z" fill="none" stroke="#d48eff" stroke-linecap="round" stroke-linejoin="round" stroke-width="1.0"/>
    </g>
    <g id="sprite0" transform="matrix(1.0, 0.0, 0.0, 1.0, 0.25, 0.25)">
      <use ffdec:characterId="2" height="40.0" transform="matrix(1.0, 0.0, 0.0, 1.0, -0.25, -0.25)" width="40.0" xlink:href="#shape1"/>
    </g>
    <g id="shape1" transform="matrix(1.0, 0.0, 0.0, 1.0, 0.25, 0.25)">
      <path d="M0.0 19.75 Q8.15 19.65 13.9 13.9 19.65 8.15 19.75 0.0 19.85 8.15 25.6 13.9 31.35 19.65 39.5 19.75 31.35 19.85 25.6 25.6 19.85 31.35 19.75 39.5 19.65 31.35 13.9 25.6 8.15 19.85 0.0 19.75" fill="#ffffff" fill-rule="evenodd" stroke="none"/>
    </g>
  </defs>
</svg>
