<?xml version="1.0" encoding="UTF-8" standalone="no"?>
<svg xmlns:ffdec="https://www.free-decompiler.com/flash" xmlns:xlink="http://www.w3.org/1999/xlink" ffdec:objectType="shape" height="82.15px" width="82.15px" xmlns="http://www.w3.org/2000/svg">
  <g transform="matrix(1.0, 0.0, 0.0, 1.0, 1.25, -1.9)">
    <path d="M80.15 42.5 Q80.15 59.3 68.45 71.2 56.6 83.05 39.85 83.3 23.05 83.4 11.25 71.9 -0.5 60.2 -0.5 43.5 -0.5 26.85 11.25 14.85 23.05 2.85 39.85 2.65 56.6 2.45 68.45 14.1 80.15 25.85 80.15 42.5 M74.85 42.6 Q74.85 28.0 64.7 17.95 54.35 7.8 39.85 7.9 25.25 8.1 15.0 18.65 4.75 28.9 4.75 43.5 4.75 58.1 15.0 68.25 25.25 78.1 39.85 77.95 54.35 77.75 64.7 67.6 74.85 57.25 74.85 42.6" fill="url(#gradient0)" fill-rule="evenodd" stroke="none"/>
    <path d="M70.9 42.6 Q70.9 29.7 62.05 20.6 52.7 11.65 39.85 11.75 26.85 12.0 17.85 21.2 8.75 30.45 8.75 43.4 8.75 56.3 17.85 65.3 26.85 74.35 39.85 74.25 52.7 74.05 62.05 64.7 70.9 55.5 70.9 42.6 M74.85 42.6 Q74.85 57.25 64.7 67.6 54.35 77.75 39.85 77.95 25.25 78.1 15.0 68.25 4.75 58.1 4.75 43.5 4.75 28.9 15.0 18.65 25.25 8.1 39.85 7.9 54.35 7.8 64.7 17.95 74.85 28.0 74.85 42.6" fill="url(#gradient1)" fill-rule="evenodd" stroke="none"/>
    <path d="M70.9 42.6 Q70.9 55.5 62.05 64.7 52.7 74.05 39.85 74.25 26.85 74.35 17.85 65.3 8.75 56.3 8.75 43.4 8.75 30.45 17.85 21.2 26.85 12.0 39.85 11.75 52.7 11.65 62.05 20.6 70.9 29.7 70.9 42.6" fill="url(#gradient2)" fill-rule="evenodd" stroke="none"/>
    <path d="M74.85 42.6 Q74.85 57.25 64.7 67.6 54.35 77.75 39.85 77.95 25.25 78.1 15.0 68.25 4.75 58.1 4.75 43.5 4.75 28.9 15.0 18.65 25.25 8.1 39.85 7.9 54.35 7.8 64.7 17.95 74.85 28.0 74.85 42.6" fill="none" stroke="#ffff33" stroke-linecap="round" stroke-linejoin="round" stroke-width="1.5"/>
    <path d="M70.9 42.6 Q70.9 55.5 62.05 64.7 52.7 74.05 39.85 74.25 26.85 74.35 17.85 65.3 8.75 56.3 8.75 43.4 8.75 30.45 17.85 21.2 26.85 12.0 39.85 11.75 52.7 11.65 62.05 20.6 70.9 29.7 70.9 42.6 M80.15 42.5 Q80.15 59.3 68.45 71.2 56.6 83.05 39.85 83.3 23.05 83.4 11.25 71.9 -0.5 60.2 -0.5 43.5 -0.5 26.85 11.25 14.85 23.05 2.85 39.85 2.65 56.6 2.45 68.45 14.1 80.15 25.85 80.15 42.5 Z" fill="none" stroke="#cc6600" stroke-linecap="round" stroke-linejoin="round" stroke-width="1.5"/>
    <path d="M28.85 24.6 Q26.0 24.85 24.2 25.95 22.35 27.0 21.6 28.85 20.9 31.0 20.85 32.6 L20.85 37.8 Q20.85 39.95 21.45 41.6 21.85 43.25 22.8 44.3 23.65 45.6 25.15 46.1 26.6 46.8 27.8 46.65 L46.25 46.65 Q47.7 46.65 48.2 47.5 48.8 48.4 49.0 49.4 49.2 51.9 48.3 52.75 47.55 53.6 46.4 53.75 L34.25 53.8 33.15 53.75 32.2 53.05 31.6 51.9 31.5 49.8 21.15 49.8 21.45 55.9 Q21.85 57.6 22.55 58.4 L24.05 59.75 Q24.85 60.4 26.95 60.85 L33.05 61.4 49.7 61.4 54.55 60.75 Q56.2 60.05 57.05 59.35 L58.4 57.15 Q59.25 55.9 59.35 52.5 59.65 49.35 59.25 46.55 59.0 43.85 57.8 42.3 56.6 40.55 54.85 39.9 L50.25 39.05 33.8 38.95 Q33.1 38.8 32.35 38.3 31.5 37.9 31.25 36.4 30.65 34.25 31.25 33.45 31.85 32.6 32.75 32.2 L35.8 31.9 42.35 31.9 Q44.5 31.9 45.6 32.35 46.6 32.55 46.95 33.15 47.55 33.85 47.5 34.4 L47.8 35.9 58.1 35.9 58.0 31.35 Q58.0 30.15 57.5 29.05 57.35 28.0 56.55 26.95 L54.85 25.4 51.8 24.6 47.8 24.4 34.4 24.4 28.85 24.6 Z" fill="none" stroke="url(#gradient3)" stroke-linecap="round" stroke-linejoin="round" stroke-width="6.0"/>
    <path d="M29.05 22.45 Q25.15 24.9 21.4 27.55 L21.6 26.7 21.95 25.95 Q22.7 24.65 24.2 23.8 25.15 23.25 26.35 22.9 L28.85 22.45 29.05 22.45" fill="#ffffff" fill-rule="evenodd" stroke="none"/>
    <path d="M36.05 22.2 L47.8 22.2 51.8 22.45 54.85 23.25 56.55 24.8 Q57.35 25.85 57.5 26.9 L58.0 28.6 49.0 33.75 47.8 33.75 47.5 32.25 Q47.55 31.65 46.95 31.0 46.6 30.4 45.6 30.2 44.5 29.75 42.35 29.75 L35.8 29.75 32.75 30.05 Q31.85 30.4 31.25 31.3 30.65 32.1 31.25 34.2 31.5 35.75 32.35 36.1 33.1 36.65 33.8 36.8 L43.7 36.85 36.55 41.15 31.25 44.5 27.8 44.5 Q26.6 44.6 25.15 43.95 23.65 43.45 22.8 42.15 21.85 41.1 21.45 39.45 20.85 37.8 20.85 35.65 L20.85 32.5 Q26.55 28.2 32.75 24.35 L36.05 22.2 M26.3 47.65 L21.3 50.95 21.15 47.65 26.3 47.65 M44.55 59.25 L59.4 46.1 59.35 50.3 59.05 53.05 58.4 55.0 57.05 57.2 Q56.2 57.9 54.55 58.6 L51.85 59.15 49.7 59.25 44.55 59.25" fill="url(#gradient4)" fill-rule="evenodd" stroke="none"/>
    <path d="M36.05 22.2 L32.75 24.35 Q26.55 28.2 20.85 32.5 L20.85 30.4 Q20.9 29.2 21.35 27.7 L21.4 27.55 Q25.15 24.9 29.05 22.45 L29.85 22.4 34.4 22.2 36.05 22.2 M49.0 33.75 L58.0 28.6 58.0 29.15 58.1 33.75 49.0 33.75" fill="url(#gradient5)" fill-rule="evenodd" stroke="none"/>
    <path d="M31.25 44.5 L36.55 41.15 43.7 36.85 50.25 36.9 54.85 37.75 Q56.6 38.4 57.8 40.15 58.4 40.95 58.8 42.1 L59.25 44.4 59.4 46.1 44.55 59.25 33.05 59.25 32.6 59.3 26.95 58.7 Q24.85 58.25 24.05 57.6 L22.55 56.25 Q21.85 55.45 21.45 53.75 L21.3 50.95 26.3 47.65 31.5 47.65 31.6 49.75 32.2 50.9 33.15 51.55 34.25 51.65 46.4 51.55 Q47.55 51.45 48.3 50.6 48.95 49.95 49.05 48.35 L49.0 47.25 Q48.8 46.2 48.2 45.35 47.7 44.5 46.25 44.5 L31.25 44.5" fill="url(#gradient6)" fill-rule="evenodd" stroke="none"/>
  </g>
  <defs>
    <linearGradient gradientTransform="matrix(0.0, -0.0128, 0.0493, -6.0E-4, 39.85, 42.3)" gradientUnits="userSpaceOnUse" id="gradient0" spreadMethod="pad" x1="-819.2" x2="819.2">
      <stop offset="0.0" stop-color="#ffff33"/>
      <stop offset="1.0" stop-color="#ffcc00"/>
    </linearGradient>
    <linearGradient gradientTransform="matrix(0.0, 0.0274, -0.0428, 5.0E-4, 39.85, 25.35)" gradientUnits="userSpaceOnUse" id="gradient1" spreadMethod="pad" x1="-819.2" x2="819.2">
      <stop offset="0.0" stop-color="#ffff33"/>
      <stop offset="1.0" stop-color="#ffcc00"/>
    </linearGradient>
    <radialGradient cx="0" cy="0" gradientTransform="matrix(-0.0384, 5.0E-4, 0.0, -0.0384, 39.75, 42.9)" gradientUnits="userSpaceOnUse" id="gradient2" r="819.2" spreadMethod="pad">
      <stop offset="0.396078431372549" stop-color="#3300ff"/>
      <stop offset="1.0" stop-color="#000000"/>
    </radialGradient>
    <linearGradient gradientTransform="matrix(0.0, 0.0267, -0.0258, 0.0, 40.2, 42.9)" gradientUnits="userSpaceOnUse" id="gradient3" spreadMethod="pad" x1="-819.2" x2="819.2">
      <stop offset="0.0" stop-color="#0099ff"/>
      <stop offset="0.49411764705882355" stop-color="#0033ff"/>
      <stop offset="1.0" stop-color="#0000ff"/>
    </linearGradient>
    <linearGradient gradientTransform="matrix(0.0, 0.0216, -0.0261, 0.0, -18.0, 44.9)" gradientUnits="userSpaceOnUse" id="gradient4" spreadMethod="pad" x1="-819.2" x2="819.2">
      <stop offset="0.0" stop-color="#00ffff"/>
      <stop offset="0.5098039215686274" stop-color="#6633ff"/>
      <stop offset="1.0" stop-color="#ff99ff"/>
    </linearGradient>
    <linearGradient gradientTransform="matrix(0.0, 0.0216, -0.0261, 0.0, -18.0, 44.9)" gradientUnits="userSpaceOnUse" id="gradient5" spreadMethod="pad" x1="-819.2" x2="819.2">
      <stop offset="0.0" stop-color="#66ffff"/>
      <stop offset="0.5098039215686274" stop-color="#00ccff"/>
      <stop offset="1.0" stop-color="#0099ff"/>
    </linearGradient>
    <linearGradient gradientTransform="matrix(0.0, 0.0216, -0.0261, 0.0, -18.0, 44.9)" gradientUnits="userSpaceOnUse" id="gradient6" spreadMethod="pad" x1="-819.2" x2="819.2">
      <stop offset="0.0" stop-color="#6699ff"/>
      <stop offset="0.5098039215686274" stop-color="#6666ff"/>
      <stop offset="1.0" stop-color="#ff66ff"/>
    </linearGradient>
  </defs>
</svg>
