<?xml version="1.0" encoding="UTF-8" standalone="no"?>
<svg xmlns:ffdec="https://www.free-decompiler.com/flash" xmlns:xlink="http://www.w3.org/1999/xlink" ffdec:objectType="frame" height="71.4px" width="82.6px" xmlns="http://www.w3.org/2000/svg">
  <g transform="matrix(1.0, 0.0, 0.0, 1.0, 29.1, 20.25)">
    <use ffdec:characterId="5" ffdec:characterName="_2_fla.n_pcgfndsj3f4_2" height="174.05" transform="matrix(0.3457, -0.0533, 0.0533, 0.3455, -29.1025, -8.9544)" width="212.05" xlink:href="#sprite0"/>
  </g>
  <defs>
    <g id="sprite0" transform="matrix(1.0, 0.0, 0.0, 1.0, 54.5, 40.55)">
      <filter id="filter0">
        <feOffset dx="3.5355799791601" dy="3.535487832104965" in="SourceGraphic" result="filterResult0"/>
        <feColorMatrix in="filterResult0" result="filterResult1" type="matrix" values="0 0 0 0 0.18431373,0 0 0 0 0.0,0 0 0 0 0.0,0 0 0 1 0"/>
        <feConvolveMatrix divisor="36.0" in="filterResult1" kernelMatrix="1 1 1 1 1 1 1 1 1 1 1 1 1 1 1 1 1 1 1 1 1 1 1 1 1 1 1 1 1 1 1 1 1 1 1 1" order="6 6" result="filterResult2"/>
        <feColorMatrix in="filterResult2" result="filterResult3" type="matrix" values="1 0 0 0 0,0 1 0 0 0,0 0 1 0 0,0 0 0 0.81640625 0"/>
        <feComposite in="SourceGraphic" in2="filterResult3" operator="over" result="filterResult4"/>
      </filter>
      <use ffdec:characterId="2" filter="url(#filter0)" height="98.95" transform="matrix(1.0, 0.0, 0.0, 1.0, -3.5, -3.25)" width="103.25" xlink:href="#sprite1"/>
      <clipPath id="clipPath0">
        <path d="M 20.4 6.8 L 20.4 6.8 L 20.4 6.8 L 20.4 6.8 Z M 64.8 26.85 L 64.93 27.01 L 65.05 27.2 L 65.16 27.42 L 65.25 27.68 L 65.34 27.98 L 65.41 28.31 L 65.47 28.67 L 65.51 29.08 L 65.55 29.51 L 65.57 29.98 L 65.58 30.49 L 65.58 31.03 L 65.56 31.61 L 65.54 32.22 L 65.45 33.55 L 65.45 34.9 L 65.45 35.3 L 65.33 34.87 L 65.2 34.46 L 65.07 34.07 L 64.92 33.71 L 64.76 33.36 L 64.59 33.05 L 64.41 32.75 L 64.22 32.47 L 64.03 32.22 L 63.82 32 L 63.6 31.79 L 63.37 31.61 L 63.13 31.45 L 62.88 31.31 L 62.62 31.19 L 62.35 31.1 L 62.47 30.75 L 62.61 30.41 L 62.79 30.08 L 63 29.75 L 64.8 26.85 Z M 62.1 31.3 L 62.55 32.4 L 62.49 32.91 L 62.38 33.43 L 62.24 33.98 L 62.06 34.55 L 61.84 35.14 L 61.59 35.74 L 61.29 36.37 L 60.96 37.02 L 60.96 37.02 L 59.59 37.21 L 59.53 37.09 L 59.49 36.95 L 59.46 36.81 L 59.45 36.65 L 59.44 36.47 L 59.45 36.27 L 59.48 36.05 L 59.54 35.81 L 59.62 35.55 L 59.73 35.26 L 59.86 34.96 L 60.01 34.64 L 60.19 34.29 L 60.39 33.93 L 60.87 33.13 L 61.44 32.26 L 62.1 31.3 Z M 42.75 31.3 L 43.2 32.4 L 43.16 32.68 L 43.11 32.98 L 43.05 33.27 L 42.98 33.58 L 42.79 34.21 L 42.56 34.86 L 42.28 35.54 L 41.95 36.25 L 41.58 36.99 L 41.15 37.75 L 40.89 37.69 L 40.67 37.61 L 40.48 37.5 L 40.33 37.38 L 40.26 37.3 L 40.2 37.23 L 40.16 37.14 L 40.12 37.06 L 40.07 36.86 L 40.05 36.65 L 40.04 36.5 L 40.04 36.33 L 40.07 36.14 L 40.12 35.93 L 40.18 35.7 L 40.27 35.45 L 40.38 35.17 L 40.51 34.88 L 40.84 34.22 L 41.24 33.48 L 41.73 32.66 L 42.3 31.75 L 42.75 31.3 Z M 50.11 11.38 L 50.72 11.38 L 51.33 11.4 L 52.55 11.46 L 53.8 11.56 L 55.05 11.7 L 55.71 11.81 L 56.36 11.92 L 57.01 12.05 L 57.65 12.18 L 58.29 12.33 L 58.92 12.48 L 59.55 12.65 L 60.17 12.83 L 60.79 13.02 L 61.41 13.21 L 62.02 13.42 L 62.62 13.64 L 63.23 13.87 L 63.82 14.1 L 64.41 14.35 L 65 14.61 L 65.58 14.88 L 66.16 15.16 L 66.73 15.45 L 67.3 15.75 L 67.86 16.06 L 68.42 16.38 L 68.98 16.71 L 69.53 17.05 L 70.07 17.4 L 70.61 17.77 L 71.14 18.14 L 71.68 18.52 L 72.2 18.91 L 72.72 19.31 L 73.24 19.73 L 73.75 20.15 L 74.45 20.8 L 75.24 21.55 L 75.05 21.55 L 75.17 21.65 L 75.05 21.65 L 75.51 22.06 L 75.93 22.46 L 76.31 22.85 L 76.64 23.23 L 76.92 23.6 L 77.16 23.96 L 77.35 24.31 L 77.5 24.65 L 77.55 24.55 L 77.6 24.5 L 79.75 27.5 L 79.9 27.7 L 80.27 28.31 L 80.64 28.92 L 80.99 29.54 L 81.32 30.16 L 81.65 30.79 L 81.96 31.42 L 82.25 32.06 L 82.54 32.7 L 82.81 33.35 L 83.07 34 L 83.31 34.65 L 83.55 35.31 L 83.77 35.98 L 83.97 36.65 L 84.17 37.32 L 84.35 38 L 84.5 38.69 L 84.45 38.6 L 84.55 38.94 L 84.55 38.95 L 84.4 38.6 L 84.4 38.6 L 84.62 39.2 L 84.62 39.2 L 85.23 41.31 L 85.23 41.31 L 85.35 41.95 L 85.44 42.57 L 85.44 42.57 L 85.5 43.35 L 85.5 43.35 L 85.5 43.35 L 85.51 43.73 L 85.5 44.1 L 85.34 43.98 L 85.2 43.84 L 85.06 43.68 L 84.94 43.5 L 84.82 43.3 L 84.72 43.09 L 84.63 42.85 L 84.55 42.6 L 82.3 34.15 L 82.07 33.34 L 81.94 32.96 L 81.81 32.59 L 81.67 32.23 L 81.52 31.88 L 81.37 31.55 L 81.21 31.23 L 81.04 30.92 L 80.87 30.62 L 80.69 30.33 L 80.5 30.06 L 80.31 29.8 L 80.11 29.56 L 79.9 29.32 L 79.69 29.1 L 79.47 28.89 L 79.24 28.69 L 79.01 28.51 L 78.76 28.34 L 78.52 28.18 L 78.26 28.03 L 78 27.9 L 77.73 27.77 L 77.46 27.67 L 77.18 27.57 L 76.89 27.48 L 76.6 27.41 L 76.29 27.35 L 75.99 27.31 L 75.67 27.27 L 75.35 27.25 L 75.35 27.25 L 76.4 28.3 L 76.96 29 L 77.49 29.72 L 77.99 30.46 L 78.47 31.22 L 78.92 32 L 79.34 32.79 L 79.74 33.61 L 80.1 34.45 L 80.1 34.45 L 74.99 35.13 L 74.99 35.13 L 75.05 31.1 L 75.03 30.74 L 75 30.4 L 74.95 30.06 L 74.89 29.73 L 74.82 29.42 L 74.74 29.11 L 74.64 28.82 L 74.53 28.53 L 74.4 28.26 L 74.27 28 L 74.11 27.74 L 73.95 27.5 L 73.77 27.27 L 73.58 27.05 L 73.38 26.84 L 73.16 26.64 L 72.93 26.45 L 72.69 26.27 L 72.43 26.1 L 72.16 25.94 L 71.88 25.79 L 71.58 25.65 L 71.28 25.53 L 70.95 25.41 L 70.62 25.3 L 70.27 25.21 L 69.91 25.12 L 69.53 25.05 L 69.14 24.98 L 68.74 24.93 L 68.33 24.88 L 67.9 24.85 L 65 25.3 L 64.96 24.87 L 64.9 24.46 L 64.81 24.08 L 64.69 23.73 L 64.55 23.4 L 64.38 23.1 L 64.18 22.83 L 63.96 22.58 L 63.72 22.35 L 63.44 22.15 L 63.14 21.98 L 62.82 21.83 L 62.46 21.71 L 62.09 21.61 L 61.68 21.54 L 61.25 21.5 L 60.96 21.51 L 60.67 21.54 L 60.37 21.59 L 60.06 21.66 L 59.75 21.75 L 59.44 21.87 L 59.12 22 L 58.8 22.15 L 58.55 22.4 L 58.5 22.44 L 58.45 22.48 L 58.39 22.49 L 58.34 22.5 L 58.28 22.49 L 58.22 22.48 L 58.1 22.4 L 57.65 22.15 L 57.5 22.33 L 57.38 22.52 L 57.28 22.73 L 57.21 22.95 L 57.17 23.18 L 57.15 23.42 L 57.16 23.68 L 57.2 23.95 L 57.45 25.3 L 57.65 26.2 L 57.64 26.42 L 57.63 26.66 L 57.6 26.91 L 57.55 27.17 L 57.43 27.74 L 57.26 28.35 L 57.04 29.01 L 56.78 29.73 L 56.46 30.49 L 56.1 31.3 L 55.78 32.12 L 55.5 32.89 L 55.25 33.62 L 55.04 34.31 L 54.86 34.96 L 54.72 35.57 L 54.62 36.13 L 54.55 36.65 L 54.56 35.49 L 54.61 34.35 L 54.68 33.22 L 54.78 32.1 L 54.9 30.99 L 55.06 29.9 L 55.24 28.82 L 55.45 27.75 L 55.4 27.63 L 55.36 27.5 L 55.33 27.35 L 55.33 27.19 L 55.33 27.01 L 55.36 26.82 L 55.4 26.62 L 55.45 26.4 L 55.45 25.05 L 55.44 24.71 L 55.42 24.38 L 55.38 24.05 L 55.33 23.74 L 55.26 23.44 L 55.18 23.15 L 55.09 22.87 L 54.97 22.59 L 54.85 22.33 L 54.71 22.08 L 54.55 21.84 L 54.38 21.6 L 54.2 21.38 L 54 21.17 L 53.78 20.97 L 53.55 20.77 L 53.31 20.59 L 53.05 20.42 L 52.77 20.26 L 52.48 20.1 L 52.18 19.96 L 51.86 19.83 L 51.52 19.71 L 51.17 19.59 L 50.81 19.49 L 50.43 19.4 L 50.04 19.32 L 49.63 19.24 L 49.21 19.18 L 48.77 19.13 L 48.32 19.08 L 47.85 19.05 L 47.52 19.06 L 47.2 19.08 L 46.88 19.11 L 46.57 19.16 L 46.26 19.23 L 45.95 19.3 L 45.66 19.39 L 45.36 19.5 L 45.07 19.62 L 44.79 19.75 L 44.51 19.9 L 44.24 20.06 L 43.97 20.24 L 43.71 20.43 L 43.45 20.63 L 43.2 20.85 L 43.4 20.85 L 43.61 20.86 L 43.8 20.88 L 43.99 20.91 L 44.18 20.95 L 44.35 21.01 L 44.52 21.08 L 44.68 21.16 L 44.84 21.25 L 44.98 21.36 L 45.12 21.48 L 45.25 21.61 L 45.38 21.76 L 45.49 21.91 L 45.6 22.08 L 45.71 22.27 L 45.8 22.46 L 45.89 22.67 L 45.97 22.89 L 46.04 23.12 L 46.1 23.37 L 46.21 23.9 L 46.29 24.48 L 46.34 25.11 L 46.35 25.79 L 46.34 26.52 L 46.3 27.3 L 46.3 28.4 L 46.3 35.3 L 46.13 34.84 L 45.95 34.41 L 45.77 34.01 L 45.58 33.63 L 45.39 33.28 L 45.2 32.95 L 44.99 32.65 L 44.79 32.38 L 44.58 32.13 L 44.36 31.9 L 44.14 31.7 L 43.91 31.53 L 43.68 31.38 L 43.44 31.26 L 43.2 31.17 L 42.95 31.1 L 43.52 30.13 L 44.02 29.24 L 44.44 28.41 L 44.62 28.02 L 44.79 27.65 L 44.93 27.3 L 45.06 26.96 L 45.16 26.64 L 45.25 26.34 L 45.31 26.05 L 45.36 25.78 L 45.39 25.53 L 45.4 25.3 L 45.39 24.87 L 45.34 24.46 L 45.28 24.08 L 45.18 23.73 L 45.05 23.4 L 44.9 23.1 L 44.72 22.83 L 44.51 22.58 L 44.28 22.35 L 44.01 22.15 L 43.72 21.98 L 43.4 21.83 L 43.06 21.71 L 42.68 21.61 L 42.28 21.54 L 41.85 21.5 L 41.57 21.51 L 41.3 21.54 L 41.02 21.59 L 40.74 21.66 L 40.46 21.75 L 40.17 21.87 L 39.89 22 L 39.6 22.15 L 38.95 22.4 L 38.83 22.48 L 38.77 22.49 L 38.71 22.5 L 38.66 22.49 L 38.6 22.48 L 38.55 22.44 L 38.5 22.4 L 38.05 22.15 L 37.95 22.33 L 37.87 22.52 L 37.81 22.73 L 37.78 22.95 L 37.76 23.18 L 37.77 23.42 L 37.8 23.68 L 37.85 23.95 L 37.8 24.11 L 37.76 24.26 L 37.73 24.41 L 37.72 24.55 L 37.73 24.68 L 37.76 24.81 L 37.8 24.93 L 37.85 25.05 L 38.05 26.4 L 38.04 26.6 L 38.03 26.82 L 37.95 27.29 L 37.83 27.82 L 37.66 28.4 L 37.44 29.04 L 37.18 29.74 L 36.86 30.49 L 36.5 31.3 L 36.25 31.94 L 36.04 32.53 L 35.85 33.07 L 35.7 33.56 L 35.58 34.01 L 35.49 34.4 L 35.43 34.75 L 35.4 35.05 L 35.4 33.3 L 35.39 32.71 L 35.36 32.14 L 35.32 31.59 L 35.26 31.06 L 35.18 30.55 L 35.08 30.05 L 34.96 29.58 L 34.83 29.12 L 34.68 28.68 L 34.51 28.26 L 34.32 27.86 L 34.11 27.48 L 33.89 27.12 L 33.65 26.77 L 33.39 26.45 L 33.11 26.14 L 32.82 25.85 L 32.5 25.58 L 32.17 25.33 L 31.83 25.09 L 31.46 24.88 L 31.08 24.68 L 30.67 24.51 L 30.25 24.35 L 29.82 24.21 L 29.36 24.09 L 28.89 23.98 L 28.39 23.9 L 27.89 23.83 L 27.36 23.79 L 26.81 23.76 L 26.25 23.75 L 26.4 24.33 L 26.53 24.96 L 26.65 25.65 L 26.74 26.4 L 26.81 27.2 L 26.86 28.06 L 26.89 28.98 L 26.9 29.95 L 26.7 38 L 26.7 41.64 L 26.7 41.64 L 20.34 42.49 L 20.34 42.49 L 20.18 42.42 L 20 42.37 L 19.8 42.33 L 19.58 42.32 L 19.4 42.33 L 19.2 42.35 L 17.28 42.86 L 17.28 42.86 L 17.3 42.8 L 17.3 42.8 L 16.95 42.9 L 16.95 42.9 L 17 41.85 L 17.07 41.02 L 17.17 40.19 L 17.28 39.38 L 17.41 38.57 L 17.56 37.77 L 17.72 36.98 L 17.91 36.2 L 18.11 35.43 L 18.33 34.67 L 18.57 33.91 L 18.83 33.17 L 19.1 32.43 L 19.4 31.71 L 19.71 30.99 L 20.04 30.28 L 20.39 29.58 L 20.75 28.88 L 21.14 28.2 L 21.54 27.52 L 21.96 26.86 L 22.4 26.2 L 22.86 25.55 L 23.34 24.91 L 23.83 24.28 L 24.35 23.66 L 24.88 23.05 L 25.43 22.44 L 26 21.85 L 26.58 21.26 L 27.19 20.68 L 27.81 20.11 L 28.45 19.55 L 29.05 19.05 L 29.65 18.56 L 30.26 18.09 L 30.87 17.63 L 31.49 17.2 L 32.11 16.77 L 32.74 16.37 L 33.37 15.97 L 34.01 15.6 L 34.65 15.24 L 35.3 14.9 L 35.95 14.57 L 36.61 14.26 L 37.28 13.96 L 37.94 13.68 L 38.62 13.42 L 39.3 13.17 L 39.98 12.94 L 40.67 12.73 L 41.37 12.53 L 42.07 12.34 L 42.77 12.17 L 43.48 12.02 L 44.2 11.89 L 44.92 11.77 L 45.65 11.66 L 46.38 11.58 L 47.11 11.5 L 47.85 11.45 L 48.6 11.41 L 49.35 11.38 L 50.11 11.38 Z M 84.02 30.42 L 84.26 30.69 L 84.49 30.97 L 84.71 31.25 L 84.93 31.55 L 85.14 31.85 L 85.34 32.17 L 85.53 32.49 L 85.72 32.83 L 85.9 33.17 L 86.07 33.53 L 86.24 33.89 L 86.39 34.26 L 86.54 34.64 L 86.69 35.04 L 86.95 35.85 L 87.15 36.53 L 87.33 37.22 L 87.51 37.91 L 87.67 38.6 L 87.82 39.28 L 87.96 39.98 L 88.09 40.67 L 88.2 41.36 L 88.3 42.05 L 88.4 42.75 L 88.47 43.44 L 88.54 44.14 L 88.6 44.84 L 88.64 45.54 L 88.68 46.24 L 88.7 46.94 L 88.7 46.94 L 88.37 46.07 L 88.05 45.19 L 87.75 44.3 L 87.45 43.41 L 87.16 42.51 L 86.88 41.6 L 86.61 40.68 L 86.35 39.76 L 86.1 38.83 L 85.86 37.89 L 85.62 36.94 L 85.4 35.99 L 85.19 35.03 L 84.98 34.06 L 84.79 33.08 L 84.6 32.1 L 84.05 30.65 L 84.02 30.42 Z M 62.1 54.7 L 62.18 54.95 L 62.27 55.17 L 62.36 55.39 L 62.46 55.59 L 62.56 55.77 L 62.67 55.93 L 62.78 56.08 L 62.9 56.22 L 63.03 56.34 L 63.16 56.44 L 63.29 56.53 L 63.43 56.6 L 63.58 56.65 L 63.73 56.69 L 63.89 56.72 L 64.05 56.72 L 64.2 56.72 L 64.35 56.7 L 64.47 56.69 L 64.59 56.66 L 64.72 56.61 L 64.85 56.54 L 64.99 56.45 L 65.14 56.33 L 65.29 56.2 L 65.45 56.05 L 65.45 58.7 L 61 57.85 L 54.3 57.4 L 54.3 55.6 L 56.01 55.13 L 56.01 55.13 L 56.28 55.35 L 56.57 55.54 L 56.89 55.69 L 57.22 55.82 L 57.58 55.92 L 57.97 55.99 L 58.37 56.04 L 58.8 56.05 L 59.1 56.04 L 59.39 56.03 L 59.66 56 L 59.92 55.97 L 60.17 55.92 L 60.41 55.86 L 60.64 55.79 L 60.85 55.71 L 61.05 55.62 L 61.24 55.52 L 61.41 55.41 L 61.58 55.29 L 61.72 55.16 L 61.86 55.02 L 61.99 54.86 L 62.1 54.7 Z M 20.21 48.43 L 24.75 59.18 L 24.75 59.18 L 24.42 58.85 L 24.1 58.5 L 23.65 57.95 L 23.22 57.39 L 22.83 56.82 L 22.46 56.24 L 22.12 55.64 L 21.81 55.04 L 21.52 54.43 L 21.26 53.8 L 21.03 53.17 L 20.83 52.52 L 20.66 51.87 L 20.51 51.2 L 20.39 50.52 L 20.3 49.83 L 20.24 49.14 L 20.21 48.43 Z M 49.97 0.15 L 48.85 0.16 L 47.74 0.19 L 46.64 0.25 L 45.55 0.33 L 44.47 0.44 L 43.39 0.57 L 42.33 0.72 L 41.27 0.9 L 40.22 1.1 L 39.18 1.32 L 38.15 1.57 L 37.12 1.84 L 36.11 2.13 L 35.1 2.45 L 34.11 2.79 L 33.12 3.16 L 32.14 3.55 L 31.16 3.96 L 30.2 4.39 L 29.25 4.85 L 28.3 5.34 L 27.36 5.84 L 26.43 6.37 L 25.51 6.93 L 24.6 7.5 L 23.69 8.1 L 22.8 8.73 L 21.91 9.37 L 21.03 10.05 L 20.16 10.74 L 19.3 11.46 L 18.45 12.2 L 17.6 12.97 L 16.78 13.75 L 15.98 14.55 L 15.2 15.36 L 14.45 16.17 L 13.72 17 L 13 17.85 L 12.32 18.7 L 11.65 19.57 L 11.01 20.44 L 10.38 21.33 L 9.79 22.23 L 9.21 23.14 L 8.65 24.07 L 8.12 25 L 7.61 25.95 L 7.13 26.91 L 6.66 27.88 L 6.22 28.86 L 5.8 29.86 L 5.4 30.86 L 5.02 31.88 L 4.67 32.91 L 4.34 33.95 L 4.03 35 L 3.75 36.07 L 3.48 37.14 L 3.24 38.23 L 3.02 39.33 L 2.83 40.44 L 2.65 41.57 L 2.5 42.7 L 1.8 46.8 L 1.82 45.98 L 1.85 45.16 L 1.9 44.34 L 1.95 43.52 L 2.02 42.71 L 2.1 41.9 L 2.19 41.09 L 2.29 40.29 L 2.41 39.49 L 2.53 38.69 L 2.67 37.89 L 2.82 37.1 L 2.98 36.31 L 3.15 35.52 L 3.33 34.73 L 3.53 33.95 L 3.73 33.17 L 3.95 32.39 L 4.18 31.62 L 4.42 30.85 L 4.67 30.08 L 4.93 29.31 L 5.21 28.55 L 5.49 27.79 L 5.79 27.03 L 6.1 26.27 L 6.42 25.52 L 6.75 24.77 L 7.1 24.02 L 7.45 23.28 L 7.82 22.54 L 8.2 21.8 L 8.95 20.8 L 9.35 19.75 L 9.98 18.72 L 10.62 17.72 L 11.29 16.73 L 11.98 15.77 L 12.68 14.83 L 13.4 13.9 L 14.14 13 L 14.9 12.12 L 15.68 11.27 L 16.48 10.43 L 17.29 9.61 L 18.12 8.82 L 18.98 8.04 L 19.85 7.29 L 20.74 6.56 L 21.65 5.85 L 21.65 5.85 L 21.02 6.32 L 20.4 6.8 L 21.02 6.29 L 21.65 5.8 L 21.65 5.8 L 20.75 6.48 L 19.87 7.17 L 19.01 7.89 L 18.16 8.62 L 17.33 9.37 L 16.52 10.14 L 15.73 10.93 L 14.95 11.74 L 14.19 12.56 L 13.45 13.41 L 12.72 14.27 L 12.01 15.15 L 11.32 16.05 L 10.65 16.96 L 9.99 17.9 L 9.35 18.85 L 8.45 19 L 7.7 20.85 L 7.25 21.05 L 5.3 25.15 L 6.95 22.55 L 4.95 27.5 L 5.05 27.65 L 5.05 27.95 L 4.7 28.1 L 4.8 28.6 L 4.55 28.65 L 4.51 28.71 L 4.49 28.77 L 4.48 28.86 L 4.5 28.95 L 4.5 29.25 L 4.33 29.37 L 4.18 29.51 L 4.05 29.66 L 3.94 29.83 L 3.84 30.01 L 3.76 30.21 L 3.7 30.42 L 3.65 30.65 L 2.6 34.3 L 2.75 34.45 L 2.75 34.95 L 2.6 35.15 L 2.4 35.15 L 2.7 35.95 L 2.5 36.75 L 2 37.25 L 0.85 47.15 L 0.8 40.75 L 1.05 40.35 L 1.1 38.5 L 1.1 38.5 L 0.97 39.14 L 0.85 39.78 L 0.75 40.43 L 0.66 41.08 L 0.58 41.73 L 0.51 42.38 L 0.46 43.04 L 0.43 43.7 L 0.4 44.36 L 0.39 45.03 L 0.39 45.7 L 0.41 46.38 L 0.43 47.05 L 0.48 47.73 L 0.53 48.41 L 0.6 49.1 L 0 49.5 L 0.57 52.46 L 1.19 55.44 L 1.85 58.43 L 2.55 61.45 L 2.9 64 L 3.15 64.35 L 3.9 64 L 4.4 63.65 L 6.1 66.15 L 6.25 66 L 6.15 65.9 L 6 65.7 L 6 65.45 L 5.75 65.2 L 5.8 65.05 L 6.22 65.8 L 6.66 66.55 L 7.1 67.29 L 7.55 68.02 L 8.01 68.74 L 8.47 69.46 L 8.95 70.17 L 9.44 70.88 L 9.93 71.57 L 10.44 72.26 L 10.95 72.94 L 11.47 73.62 L 12 74.29 L 12.54 74.95 L 13.09 75.6 L 13.65 76.25 L 14.22 76.89 L 14.79 77.52 L 15.38 78.15 L 15.97 78.77 L 16.57 79.38 L 17.19 79.99 L 17.81 80.58 L 18.44 81.18 L 19.08 81.76 L 19.72 82.34 L 20.38 82.91 L 21.05 83.47 L 21.72 84.02 L 22.41 84.57 L 23.1 85.12 L 23.8 85.65 L 25 86.05 L 25.3 86.55 L 31.53 89.52 L 31.53 89.52 L 30.4 89.8 L 30.52 89.82 L 30.52 89.82 L 30.4 89.85 L 31 89.95 L 31.1 89.75 L 31.25 90.25 L 31.61 90.29 L 31.96 90.35 L 32.31 90.41 L 32.66 90.48 L 33 90.57 L 33.33 90.66 L 33.66 90.77 L 33.99 90.89 L 34.31 91.01 L 34.62 91.15 L 34.93 91.3 L 35.23 91.46 L 35.53 91.63 L 35.83 91.81 L 36.12 92 L 36.4 92.2 L 38.1 91.75 L 38.6 91.6 L 38.56 91.56 L 38.56 91.56 L 38.6 91.55 L 37.15 90.3 L 36.77 90.31 L 36.54 90.31 L 36.32 90.29 L 36.09 90.27 L 35.87 90.23 L 35.66 90.18 L 35.45 90.12 L 35.24 90.05 L 35.04 89.97 L 34.84 89.88 L 34.64 89.78 L 34.45 89.67 L 34.26 89.55 L 34.08 89.41 L 33.9 89.27 L 33.72 89.12 L 33.55 88.95 L 33.2 88.6 L 32.89 88.54 L 32.58 88.47 L 32.28 88.39 L 32 88.3 L 31.72 88.2 L 31.45 88.09 L 31.19 87.97 L 30.94 87.83 L 30.7 87.69 L 30.46 87.54 L 30.24 87.38 L 30.03 87.21 L 29.82 87.03 L 29.62 86.83 L 29.43 86.63 L 29.26 86.42 L 29.26 86.42 L 30.45 86.85 L 31.25 86.65 L 33.45 87.45 L 34.3 87.1 L 34.45 87.1 L 34.55 87.11 L 34.65 87.14 L 34.75 87.18 L 34.85 87.25 L 35.15 87.1 L 35.55 87 L 35.85 87.1 L 36.4 86.7 L 37.1 87.35 L 37.28 87.45 L 37.45 87.54 L 37.62 87.61 L 37.8 87.67 L 37.97 87.72 L 38.14 87.75 L 38.31 87.77 L 38.48 87.78 L 38.7 87.76 L 38.93 87.73 L 39.15 87.67 L 39.38 87.58 L 39.6 87.47 L 39.82 87.34 L 40.03 87.18 L 40.25 87 L 41.05 86.3 L 41.2 86.15 L 41.25 86.05 L 41.24 86.02 L 41.24 86.02 L 41.25 86 L 41.2 85.8 L 41.06 85.48 L 41.06 85.48 L 41.25 85.1 L 41.24 85.07 L 41.25 85.05 L 41.02 84.59 L 41.45 84.25 L 41.5 84.05 L 41.49 84.04 L 41.49 84.04 L 41.5 84 L 40.66 83.48 L 40.66 83.48 L 41.55 83.25 L 42.4 81.85 L 42.39 81.82 L 42.39 81.82 L 42.4 81.8 L 41.77 80.14 L 41.77 80.14 L 42.55 79.85 L 42.51 79.82 L 42.55 79.8 L 40.7 78.35 L 38.4 78.3 L 38.4 77.8 L 38 78.1 L 37.7 77.6 L 35.65 76.55 L 39.15 76.55 L 39.12 76.5 L 39.15 76.5 L 37.9 74.65 L 34.7 74.45 L 29.16 70.44 L 29.16 70.44 L 29.2 70.4 L 29.17 70.38 L 29.2 70.35 L 28.1 69.25 L 27.5 69.25 L 25.45 66.65 L 24.45 65.7 L 24.45 65.75 L 24.4 65.65 L 24.35 65.6 L 24.2 65.4 L 24.2 65.35 L 24.15 65.3 L 23.67 64.64 L 23.21 63.98 L 22.76 63.3 L 22.34 62.61 L 21.93 61.91 L 21.53 61.2 L 21.16 60.48 L 20.8 59.75 L 20.75 59.6 L 20.75 59.55 L 20.58 59.36 L 20.58 59.36 L 20.55 59.3 L 23.5 62.65 L 23.69 62.79 L 23.89 62.9 L 24.11 63 L 24.33 63.09 L 24.57 63.15 L 24.83 63.2 L 25.09 63.22 L 25.37 63.23 L 25.65 63.22 L 25.95 63.2 L 26.27 63.15 L 26.59 63.09 L 26.59 63.09 L 26.71 63.41 L 26.83 63.72 L 26.96 64.02 L 27.11 64.31 L 27.26 64.59 L 27.42 64.86 L 27.6 65.12 L 27.78 65.37 L 27.97 65.61 L 28.17 65.84 L 28.39 66.06 L 28.61 66.26 L 28.84 66.46 L 29.09 66.65 L 29.34 66.83 L 29.6 67 L 29.87 67.15 L 30.16 67.3 L 30.45 67.44 L 30.75 67.57 L 31.06 67.68 L 31.38 67.79 L 31.72 67.89 L 32.06 67.97 L 32.41 68.05 L 32.77 68.12 L 33.14 68.17 L 33.52 68.22 L 33.92 68.25 L 34.32 68.28 L 34.73 68.29 L 35.15 68.3 L 38.7 68.1 L 39.14 67.96 L 39.61 67.83 L 40.12 67.71 L 40.67 67.6 L 41.25 67.49 L 41.87 67.4 L 42.53 67.31 L 43.22 67.24 L 43.96 67.17 L 44.72 67.11 L 45.53 67.06 L 46.37 67.02 L 47.25 66.99 L 48.16 66.97 L 50.1 66.95 L 52.1 67.2 L 57.2 67.4 L 62.55 67.65 L 63.1 67.64 L 63.63 67.59 L 64.14 67.52 L 64.62 67.43 L 65.09 67.3 L 65.53 67.14 L 65.95 66.96 L 66.35 66.75 L 66.47 66.97 L 66.61 67.17 L 66.76 67.36 L 66.93 67.54 L 67.11 67.7 L 67.31 67.85 L 67.52 67.98 L 67.75 68.1 L 68 68.21 L 68.26 68.3 L 68.53 68.37 L 68.82 68.44 L 69.13 68.49 L 69.46 68.52 L 69.8 68.54 L 70.15 68.55 L 70.41 68.54 L 70.66 68.52 L 70.91 68.49 L 71.14 68.44 L 71.37 68.38 L 71.59 68.3 L 71.79 68.21 L 71.99 68.1 L 72.18 67.98 L 72.37 67.85 L 72.54 67.71 L 72.7 67.54 L 72.86 67.37 L 73.01 67.18 L 73.15 66.98 L 73.28 66.76 L 73.4 66.53 L 73.51 66.29 L 73.61 66.03 L 73.7 65.76 L 73.79 65.47 L 73.87 65.17 L 73.93 64.86 L 73.99 64.53 L 74.04 64.19 L 74.09 63.83 L 74.14 63.08 L 74.16 62.27 L 74.15 61.4 L 74.61 50.1 L 74.61 50.1 L 85.7 47.1 L 85.7 47.9 L 85.5 48.8 L 85.44 49.96 L 85.34 51.12 L 85.21 52.26 L 85.05 53.39 L 84.85 54.52 L 84.62 55.63 L 84.35 56.73 L 84.05 57.83 L 83.71 58.91 L 83.34 59.98 L 82.94 61.04 L 82.5 62.09 L 82.03 63.14 L 81.52 64.17 L 80.98 65.19 L 80.4 66.2 L 79.97 66.91 L 79.53 67.6 L 79.08 68.29 L 78.62 68.97 L 78.16 69.63 L 77.68 70.29 L 77.2 70.93 L 76.7 71.56 L 76.2 72.19 L 75.68 72.8 L 75.16 73.4 L 74.62 73.99 L 74.08 74.57 L 73.53 75.14 L 72.97 75.7 L 72.4 76.25 L 72.97 75.8 L 72.97 75.8 L 72.4 76.35 L 73.24 75.68 L 74.06 75 L 74.86 74.31 L 75.63 73.61 L 76.37 72.89 L 77.09 72.15 L 77.79 71.41 L 78.46 70.65 L 79.11 69.88 L 79.73 69.09 L 80.33 68.29 L 80.9 67.48 L 81.45 66.66 L 81.98 65.82 L 82.48 64.97 L 82.95 64.1 L 83.4 63.22 L 83.83 62.33 L 84.23 61.42 L 84.6 60.51 L 84.95 59.57 L 85.28 58.63 L 85.58 57.67 L 85.86 56.7 L 86.12 55.72 L 86.34 54.72 L 86.55 53.71 L 86.73 52.68 L 86.88 51.64 L 87.01 50.59 L 87.12 49.53 L 87.2 48.45 L 88.7 48.05 L 88.6 52.55 L 88.6 52.53 L 88.6 52.53 L 88.6 52.7 L 88.71 51.91 L 88.81 51.13 L 88.9 50.34 L 88.97 49.57 L 89.02 48.79 L 89.06 48.02 L 89.08 47.25 L 89.08 46.49 L 89.08 46.49 L 89.08 45.76 L 89.06 45.03 L 89.03 44.31 L 88.98 43.59 L 88.92 42.88 L 88.84 42.17 L 88.75 41.46 L 88.64 40.75 L 88.53 40.05 L 88.39 39.35 L 88.25 38.66 L 88.08 37.96 L 87.91 37.27 L 87.72 36.59 L 87.52 35.9 L 87.3 35.22 L 87.07 34.54 L 86.82 33.87 L 86.56 33.2 L 86.29 32.53 L 86 31.86 L 85.7 31.2 L 85.38 30.54 L 85.05 29.89 L 84.71 29.23 L 84.35 28.58 L 83.98 27.94 L 83.59 27.29 L 83.19 26.65 L 82.77 26.02 L 82.34 25.38 L 81.9 24.75 L 81.33 23.98 L 80.75 23.22 L 80.16 22.47 L 79.55 21.74 L 78.93 21.01 L 78.3 20.3 L 77.66 19.59 L 77 18.9 L 76.36 18.27 L 75.7 17.66 L 75.03 17.07 L 74.35 16.5 L 73.66 15.95 L 72.95 15.41 L 72.23 14.9 L 71.5 14.4 L 70.51 13.76 L 69.52 13.15 L 68.51 12.58 L 67.49 12.03 L 66.46 11.52 L 65.42 11.04 L 64.37 10.59 L 63.31 10.18 L 62.24 9.79 L 61.16 9.44 L 60.07 9.12 L 58.97 8.83 L 57.85 8.58 L 56.73 8.35 L 55.59 8.16 L 54.45 8 L 53.38 7.9 L 52.3 7.83 L 51.24 7.78 L 50.17 7.77 L 49.53 7.77 L 48.89 7.79 L 48.26 7.81 L 47.62 7.85 L 46.99 7.9 L 46.35 7.96 L 45.72 8.02 L 45.09 8.1 L 44.46 8.19 L 43.83 8.29 L 43.2 8.4 L 42.58 8.52 L 41.95 8.66 L 41.33 8.8 L 40.71 8.95 L 40.08 9.11 L 40.35 8.85 L 40.63 8.59 L 40.92 8.36 L 41.23 8.14 L 41.54 7.95 L 41.87 7.76 L 42.21 7.6 L 42.56 7.45 L 42.92 7.32 L 43.3 7.21 L 43.69 7.12 L 44.09 7.04 L 44.5 6.98 L 44.92 6.93 L 45.35 6.91 L 45.8 6.9 L 60 7.85 L 60.65 8.4 L 61.47 8.63 L 62.28 8.87 L 63.09 9.12 L 63.88 9.39 L 64.67 9.68 L 65.44 9.97 L 66.21 10.29 L 66.97 10.62 L 67.72 10.96 L 68.47 11.32 L 69.2 11.69 L 69.92 12.07 L 70.64 12.47 L 71.35 12.89 L 72.05 13.32 L 72.74 13.76 L 73.42 14.22 L 74.09 14.69 L 74.76 15.18 L 75.41 15.69 L 76.06 16.2 L 76.7 16.73 L 77.33 17.28 L 77.95 17.84 L 78.56 18.42 L 79.16 19.01 L 79.76 19.61 L 80.34 20.23 L 80.92 20.86 L 81.49 21.51 L 82.05 22.17 L 82.6 22.85 L 84.6 26.15 L 84.55 25.91 L 84.6 26 L 84.44 25.29 L 84.44 25.29 L 85.12 26.02 L 85.77 26.76 L 86.08 27.14 L 86.38 27.53 L 86.67 27.92 L 86.96 28.32 L 87.24 28.73 L 87.51 29.14 L 87.77 29.55 L 88.02 29.97 L 88.5 30.83 L 88.95 31.72 L 89.37 32.62 L 89.75 33.55 L 90.1 34.5 L 90.41 35.47 L 90.7 36.47 L 90.95 37.49 L 91.17 38.53 L 91.35 39.6 L 91.48 40.51 L 91.59 41.41 L 91.68 42.32 L 91.76 43.23 L 91.82 44.13 L 91.87 45.04 L 91.89 45.94 L 91.9 46.84 L 91.9 46.84 L 91.89 47.9 L 91.85 48.95 L 91.79 50 L 91.71 51.05 L 91.61 52.1 L 91.48 53.15 L 91.33 54.2 L 91.15 55.25 L 90.97 56.2 L 90.77 57.15 L 90.55 58.08 L 90.31 59 L 90.05 59.9 L 89.77 60.8 L 89.47 61.68 L 89.15 62.56 L 88.81 63.42 L 88.45 64.27 L 88.08 65.11 L 87.68 65.93 L 87.27 66.75 L 86.83 67.55 L 86.37 68.34 L 85.9 69.12 L 85.41 69.89 L 84.89 70.65 L 84.36 71.4 L 83.81 72.13 L 83.23 72.86 L 82.64 73.57 L 82.03 74.27 L 81.4 74.96 L 80.75 75.63 L 80.08 76.3 L 79.39 76.95 L 78.68 77.6 L 77.95 78.23 L 77.2 78.85 L 76.44 79.45 L 75.65 80.05 L 76.75 79.31 L 76.75 79.31 L 76.21 79.73 L 75.65 80.15 L 76.49 79.6 L 77.31 79.03 L 78.11 78.45 L 78.89 77.85 L 79.65 77.24 L 80.39 76.62 L 81.11 75.98 L 81.82 75.33 L 82.5 74.67 L 83.17 73.99 L 83.82 73.3 L 84.45 72.59 L 85.06 71.87 L 85.65 71.13 L 86.22 70.39 L 86.78 69.62 L 87.31 68.85 L 87.82 68.06 L 88.32 67.26 L 88.8 66.44 L 89.26 65.61 L 89.7 64.76 L 90.12 63.9 L 90.52 63.03 L 90.9 62.14 L 91.27 61.24 L 91.61 60.33 L 91.94 59.4 L 92.24 58.46 L 92.53 57.5 L 92.8 56.53 L 93.05 55.55 L 93.3 54.35 L 94.25 46.6 L 94.23 46.57 L 94.25 46.45 L 93.96 45.91 L 94.1 41.9 L 94.45 43 L 94.6 44.3 L 94.9 44.65 L 95.04 47.52 L 94.75 48.3 L 94.75 48.45 L 94.75 48.45 L 94.75 48.45 L 94.75 48.8 L 94.75 48.8 L 94.73 49.9 L 94.69 50.99 L 94.61 52.08 L 94.5 53.17 L 94.36 54.26 L 94.19 55.34 L 93.98 56.42 L 93.75 57.5 L 93.35 58.3 L 93.37 58.4 L 93.35 58.45 L 93.43 58.81 L 93.43 58.81 L 93.2 59.54 L 92.96 60.25 L 92.71 60.96 L 92.44 61.66 L 92.17 62.36 L 91.89 63.05 L 91.59 63.73 L 91.29 64.41 L 90.97 65.08 L 90.64 65.74 L 90.31 66.4 L 89.96 67.05 L 89.6 67.7 L 89.23 68.33 L 88.85 68.96 L 88.46 69.59 L 88.06 70.21 L 87.64 70.82 L 87.22 71.42 L 86.79 72.02 L 86.34 72.62 L 85.89 73.2 L 85.42 73.78 L 84.95 74.35 L 84.46 74.92 L 83.96 75.48 L 83.45 76.03 L 82.93 76.58 L 82.4 77.12 L 81.86 77.65 L 81.31 78.18 L 80.75 78.7 L 81.76 77.83 L 82.73 76.94 L 82.73 76.94 L 81.76 77.91 L 80.75 78.85 L 81.41 78.29 L 82.05 77.71 L 82.68 77.13 L 83.3 76.54 L 83.9 75.94 L 84.49 75.33 L 85.07 74.71 L 85.63 74.08 L 86.18 73.45 L 86.71 72.8 L 87.23 72.15 L 87.74 71.48 L 88.23 70.81 L 88.71 70.13 L 89.17 69.44 L 89.62 68.74 L 90.06 68.03 L 90.48 67.31 L 90.89 66.58 L 91.29 65.85 L 91.67 65.1 L 92.04 64.35 L 92.39 63.58 L 92.73 62.81 L 93.06 62.03 L 93.37 61.24 L 93.67 60.44 L 93.95 59.63 L 94.22 58.81 L 94.48 57.98 L 94.72 57.15 L 94.95 56.3 L 95.11 55.65 L 95.26 55.01 L 95.4 54.36 L 95.53 53.71 L 95.65 53.07 L 95.76 52.42 L 95.86 51.78 L 95.94 51.13 L 96.02 50.48 L 96.09 49.84 L 96.14 49.19 L 96.19 48.55 L 96.23 47.91 L 96.25 47.26 L 96.26 46.62 L 96.27 45.97 L 96.27 45.97 L 96.26 45.19 L 96.24 44.4 L 96.2 43.61 L 96.15 42.83 L 96.08 42.04 L 96 41.25 L 95.89 40.47 L 95.78 39.68 L 95.65 38.9 L 95.5 38.11 L 95.34 37.33 L 95.16 36.54 L 94.96 35.76 L 94.75 34.98 L 94.53 34.19 L 94.29 33.41 L 94.29 33.41 L 94.75 32.9 L 94.71 32.79 L 94.71 32.79 L 94.75 32.75 L 94.35 31.57 L 93.92 30.41 L 93.48 29.28 L 93.01 28.16 L 92.51 27.06 L 92 25.98 L 91.46 24.92 L 90.9 23.88 L 90.32 22.87 L 89.72 21.87 L 89.09 20.89 L 88.44 19.93 L 87.77 18.99 L 87.07 18.07 L 86.35 17.17 L 85.61 16.29 L 84.85 15.43 L 84.06 14.59 L 83.26 13.77 L 82.43 12.96 L 81.57 12.18 L 80.7 11.42 L 79.8 10.68 L 78.88 9.96 L 77.93 9.26 L 76.97 8.58 L 75.98 7.91 L 74.97 7.27 L 73.94 6.65 L 72.88 6.05 L 71.8 5.46 L 70.7 4.9 L 69.53 4.34 L 68.34 3.82 L 67.15 3.33 L 65.94 2.88 L 64.73 2.46 L 63.5 2.08 L 62.27 1.73 L 61.03 1.41 L 59.77 1.13 L 58.5 0.89 L 57.23 0.68 L 55.94 0.5 L 54.65 0.36 L 53.34 0.26 L 52.03 0.19 L 50.7 0.15 L 49.97 0.15 Z"/>
      </clipPath>
      <g clip-path="url(#clipPath0)">
        <use ffdec:characterId="4" height="115.5" transform="matrix(1.0, 0.0, 0.0, 1.0, -54.5, -40.55)" width="81.1" xlink:href="#sprite2"/>
      </g>
    </g>
    <g id="sprite1" transform="matrix(1.0, 0.0, 0.0, 1.0, 3.5, 3.25)">
      <use ffdec:characterId="1" height="98.95" transform="matrix(1.0, 0.0, 0.0, 1.0, -3.5, -3.25)" width="103.25" xlink:href="#shape0"/>
    </g>
    <g id="shape0" transform="matrix(1.0, 0.0, 0.0, 1.0, 3.5, 3.25)">
      <path d="M26.95 63.0 Q24.7 63.6 23.5 62.65 L20.55 59.3 20.75 59.65 20.8 59.8 Q22.2 62.75 24.15 65.35 L24.2 65.4 24.2 65.45 24.35 65.65 24.4 65.7 24.5 65.85 24.45 65.75 25.45 66.7 27.5 69.3 28.1 69.3 29.2 70.4 29.15 70.45 29.1 70.45 34.7 74.5 37.9 74.7 39.15 76.55 35.55 76.55 37.7 77.65 38.0 78.15 38.4 77.85 38.4 78.35 40.7 78.4 42.55 79.85 41.75 80.15 42.4 81.85 41.55 83.25 40.6 83.5 41.5 84.05 41.45 84.25 41.0 84.6 41.25 85.1 41.05 85.5 41.2 85.85 41.25 86.05 41.2 86.15 41.05 86.3 40.25 87.0 Q38.75 88.35 37.1 87.35 L36.4 86.7 35.85 87.1 35.55 87.0 35.15 87.1 34.85 87.25 Q34.65 87.1 34.45 87.1 L34.3 87.1 33.45 87.45 31.25 86.65 30.45 86.85 29.2 86.4 Q30.6 88.2 33.2 88.65 L33.55 89.0 Q35.05 90.5 37.15 90.35 L38.6 91.6 38.1 91.75 36.4 92.2 Q34.15 90.55 31.25 90.25 L31.1 89.75 31.0 89.95 30.4 89.85 31.6 89.55 25.3 86.55 25.0 86.05 23.8 85.65 Q12.5 77.15 5.8 65.05 L5.75 65.2 6.0 65.45 6.0 65.7 6.15 65.9 6.25 66.0 6.1 66.15 4.4 63.65 3.9 64.0 3.15 64.35 2.9 64.0 2.55 61.45 Q1.1 55.4 0.0 49.5 L0.6 49.1 Q0.0 43.6 1.1 38.5 L1.05 40.35 0.8 40.75 0.85 47.15 2.0 37.25 2.5 36.75 2.7 35.95 2.4 35.15 2.6 35.15 2.75 34.95 2.75 34.45 2.6 34.3 3.65 30.65 Q3.8 29.7 4.5 29.25 L4.5 28.95 Q4.45 28.75 4.55 28.65 L4.8 28.6 4.7 28.1 5.05 27.95 5.05 27.65 4.95 27.5 6.95 22.55 5.3 25.15 7.25 21.05 7.7 20.85 8.45 19.0 9.35 18.85 Q14.4 11.15 21.65 5.85 14.3 11.45 9.35 19.75 L8.95 20.8 8.2 21.8 Q2.05 33.6 1.8 46.8 L2.5 42.7 Q4.75 24.45 18.45 12.25 32.3 -0.05 50.7 0.25 61.35 0.4 70.7 5.0 88.5 13.9 94.75 32.9 L94.25 33.45 Q97.9 44.8 94.95 56.3 91.4 69.9 80.75 78.85 89.85 70.55 93.45 58.9 L93.35 58.45 93.75 57.65 Q94.8 53.1 94.75 48.45 L95.05 47.65 94.9 44.65 94.6 44.3 94.45 43.0 94.1 41.9 93.95 46.05 94.25 46.6 93.3 54.35 93.05 55.55 Q89.2 71.4 75.65 80.15 88.4 70.75 91.15 55.4 92.55 47.55 91.35 39.6 90.0 30.95 84.4 25.25 L84.6 26.15 82.6 22.85 Q73.85 11.9 60.65 8.4 L60.0 7.85 45.8 6.9 Q42.15 6.9 40.05 9.15 L39.95 9.2 Q47.05 7.25 54.45 8.1 63.65 9.25 71.5 14.5 74.45 16.45 77.0 19.0 79.65 21.75 81.9 24.9 90.95 37.55 88.6 52.7 L88.7 48.05 87.2 48.45 Q86.1 65.8 72.4 76.35 77.0 72.0 80.4 66.35 85.15 58.3 85.5 48.95 L85.7 48.05 85.7 47.1 82.95 47.8 Q82.8 42.05 80.75 36.15 79.25 31.75 76.4 28.3 L75.35 27.25 Q80.55 27.5 82.3 34.15 L84.55 42.6 Q84.85 43.65 85.5 44.1 85.6 41.7 84.4 38.6 L84.55 38.95 84.35 38.0 Q82.95 32.55 79.9 27.7 L79.75 27.5 77.6 24.5 77.55 24.55 77.5 24.65 Q77.0 23.3 75.05 21.65 L75.35 21.65 74.45 20.8 73.75 20.15 Q65.6 13.3 55.05 11.7 39.85 9.75 28.45 19.55 18.05 28.45 17.0 41.85 L16.95 42.95 19.2 42.35 Q20.35 42.2 20.75 42.9 L20.55 43.95 20.3 44.3 Q19.55 45.2 19.75 45.9 L20.2 46.95 20.2 48.05 Q20.25 54.0 24.1 58.5 26.15 60.8 28.75 61.95 27.95 62.95 26.95 63.0 M86.95 35.85 Q85.95 32.5 84.0 30.4 L84.05 30.8 84.6 32.25 Q86.05 40.15 88.7 47.1 88.6 41.4 86.95 35.85 M18.55 44.5 L18.0 45.75 Q17.25 46.65 17.45 47.35 20.45 54.35 25.05 59.9 20.45 54.35 17.45 47.35 17.25 46.65 18.0 45.75 L18.55 44.5" fill="url(#gradient0)" fill-rule="evenodd" stroke="none"/>
      <path d="M85.7 47.1 L85.7 48.05 85.5 48.95 Q85.15 58.3 80.4 66.35 77.0 72.0 72.4 76.35 86.1 65.8 87.2 48.45 L88.7 48.05 88.6 52.7 Q90.95 37.55 81.9 24.9 79.65 21.75 77.0 19.0 74.45 16.45 71.5 14.5 63.65 9.25 54.45 8.1 47.05 7.25 39.95 9.2 L40.05 9.15 Q42.15 6.9 45.8 6.9 L60.0 7.85 60.65 8.4 Q73.85 11.9 82.6 22.85 L84.6 26.15 84.4 25.25 Q90.0 30.95 91.35 39.6 92.55 47.55 91.15 55.4 88.4 70.75 75.65 80.15 89.2 71.4 93.05 55.55 L93.3 54.35 94.25 46.6 93.95 46.05 94.1 41.9 94.45 43.0 94.6 44.3 94.9 44.65 95.05 47.65 94.75 48.45 Q94.8 53.1 93.75 57.65 L93.35 58.45 93.45 58.9 Q89.85 70.55 80.75 78.85 91.4 69.9 94.95 56.3 97.9 44.8 94.25 33.45 L94.75 32.9 Q88.5 13.9 70.7 5.0 61.35 0.4 50.7 0.25 32.3 -0.05 18.45 12.25 4.75 24.45 2.5 42.7 L1.8 46.8 Q2.05 33.6 8.2 21.8 L8.95 20.8 9.35 19.75 Q14.3 11.45 21.65 5.85 14.4 11.15 9.35 18.85 L8.45 19.0 7.7 20.85 7.25 21.05 5.3 25.15 6.95 22.55 4.95 27.5 5.05 27.65 5.05 27.95 4.7 28.1 4.8 28.6 4.55 28.65 Q4.45 28.75 4.5 28.95 L4.5 29.25 Q3.8 29.7 3.65 30.65 L2.6 34.3 2.75 34.45 2.75 34.95 2.6 35.15 2.4 35.15 2.7 35.95 2.5 36.75 2.0 37.25 0.85 47.15 0.8 40.75 1.05 40.35 1.1 38.5 Q0.0 43.6 0.6 49.1 L0.0 49.5 Q1.1 55.4 2.55 61.45 L2.9 64.0 3.15 64.35 3.9 64.0 4.4 63.65 6.1 66.15 6.25 66.0 6.15 65.9 6.0 65.7 6.0 65.45 5.75 65.2 5.8 65.05 Q12.5 77.15 23.8 85.65 L25.0 86.05 25.3 86.55 31.6 89.55 30.4 89.85 31.0 89.95 31.1 89.75 31.25 90.25 Q34.15 90.55 36.4 92.2 L38.1 91.75 38.6 91.6 37.15 90.35 Q35.05 90.5 33.55 89.0 L33.2 88.65 Q30.6 88.2 29.2 86.4 L30.45 86.85 31.25 86.65 33.45 87.45 34.3 87.1 34.45 87.1 Q34.65 87.1 34.85 87.25 L35.15 87.1 35.55 87.0 35.85 87.1 36.4 86.7 37.1 87.35 Q38.75 88.35 40.25 87.0 L41.05 86.3 41.2 86.15 41.25 86.05 41.2 85.85 41.05 85.5 41.25 85.1 41.0 84.6 41.45 84.25 41.5 84.05 40.6 83.5 41.55 83.25 42.4 81.85 41.75 80.15 42.55 79.85 40.7 78.4 38.4 78.35 38.4 77.85 38.0 78.15 37.7 77.65 35.55 76.55 39.15 76.55 37.9 74.7 34.7 74.5 29.1 70.45 29.15 70.45 29.2 70.4 28.1 69.3 27.5 69.3 25.45 66.7 24.45 65.75 24.5 65.85 24.4 65.7 24.35 65.65 24.2 65.45 24.2 65.4 24.15 65.35 Q22.2 62.75 20.8 59.8 L20.75 59.65 20.55 59.3 23.5 62.65 Q24.7 63.6 26.95 63.0 M16.95 42.95 L17.0 41.85 Q18.05 28.45 28.45 19.55 39.85 9.75 55.05 11.7 65.6 13.3 73.75 20.15 L74.45 20.8 75.35 21.65 75.05 21.65 Q77.0 23.3 77.5 24.65 L77.55 24.55 77.6 24.5 79.75 27.5 79.9 27.7 Q82.95 32.55 84.35 38.0 L84.55 38.95 84.4 38.6 Q85.6 41.7 85.5 44.1 84.85 43.65 84.55 42.6 L82.3 34.15 M86.95 35.85 Q88.6 41.4 88.7 47.1 86.05 40.15 84.6 32.25 L84.05 30.8 84.0 30.4 Q85.95 32.5 86.95 35.85 M25.05 59.9 Q20.45 54.35 17.45 47.35 17.25 46.65 18.0 45.75 L18.55 44.5" fill="none" stroke="#ffffff" stroke-linecap="round" stroke-linejoin="round" stroke-width="7.0"/>
      <path d="M58.55 22.4 L58.8 22.15 Q60.1 21.5 61.25 21.5 64.8 21.75 65.0 25.3 L67.9 24.85 Q74.85 25.3 75.05 31.1 L74.85 44.25 74.15 61.4 Q74.4 68.55 70.15 68.55 67.25 68.55 66.35 66.75 64.8 67.65 62.55 67.65 L57.2 67.4 52.1 67.2 50.1 66.95 Q42.05 66.95 38.7 68.1 L35.15 68.3 Q25.8 68.3 26.0 58.5 25.8 58.05 26.0 56.25 L26.25 54.05 26.7 44.0 26.7 38.0 26.9 29.95 Q26.9 25.95 26.25 23.75 35.4 23.75 35.4 33.3 L35.4 35.05 Q35.45 33.95 36.5 31.3 38.05 27.95 38.05 26.4 L37.85 25.05 Q37.6 24.6 37.85 23.95 37.6 22.85 38.05 22.15 L38.5 22.4 Q38.7 22.6 38.95 22.4 L39.6 22.15 Q40.75 21.5 41.85 21.5 45.4 21.75 45.4 25.3 45.4 27.1 42.95 31.1 44.95 31.55 46.3 35.3 L46.3 28.4 46.3 27.3 Q46.75 20.85 43.4 20.85 L43.2 20.85 Q45.2 19.05 47.85 19.05 55.45 19.5 55.45 25.05 L55.45 26.4 Q55.2 27.3 55.45 27.75 54.55 32.0 54.55 36.65 54.75 34.65 56.1 31.3 57.65 27.95 57.65 26.2 L57.45 25.3 57.2 23.95 Q57.0 22.85 57.65 22.15 L58.1 22.4 Q58.35 22.6 58.55 22.4 M42.75 31.3 L42.3 31.75 Q39.85 35.55 40.05 36.65 40.05 37.55 41.15 37.75 42.95 34.65 43.2 32.4 L42.75 31.3 M42.05 47.15 L42.05 45.55 Q39.6 48.45 39.85 48.7 39.85 49.35 40.5 49.35 L41.85 49.15 42.3 48.9 42.3 48.05 42.05 47.15 M45.85 43.55 L46.1 39.35 Q45.2 42.0 43.2 44.25 45.2 45.15 45.85 47.35 L45.85 43.55 M59.9 49.35 L61.25 49.15 61.9 48.9 61.9 48.05 61.7 45.55 60.8 46.45 Q59.0 48.25 59.25 48.7 59.25 49.35 59.9 49.35 M54.3 39.8 L54.1 48.9 54.3 53.35 54.3 57.4 61.0 57.85 65.45 58.7 65.45 56.05 Q64.8 56.7 64.35 56.7 62.8 56.95 62.1 54.7 61.25 56.05 58.8 56.05 54.55 56.05 54.55 50.7 54.55 47.8 56.75 43.35 54.55 42.25 54.3 39.8 M60.55 37.75 Q62.35 34.65 62.55 32.4 L62.1 31.3 Q59.25 35.3 59.45 36.65 59.45 37.55 60.55 37.75 M65.45 35.3 L65.45 34.9 65.45 33.55 Q65.9 27.95 64.8 26.85 L63.0 29.75 Q62.55 30.4 62.35 31.1 64.55 31.75 65.45 35.3 M65.45 47.6 L65.45 44.0 65.45 39.1 Q65.0 41.35 62.55 44.25 64.8 45.15 65.45 47.6 M35.15 45.35 Q34.95 48.25 35.15 49.8 35.15 47.15 37.6 43.35 35.6 42.7 35.4 41.1 L35.15 45.35 M38.05 58.05 L46.1 57.6 45.85 56.05 44.95 56.7 Q43.4 56.95 42.75 54.7 41.85 56.05 39.15 56.05 35.4 56.05 35.15 51.8 L35.15 53.6 Q34.95 58.05 38.05 58.05" fill="url(#gradient1)" fill-rule="evenodd" stroke="none"/>
      <path d="M58.55 22.4 L58.8 22.15 Q60.1 21.5 61.25 21.5 64.8 21.75 65.0 25.3 L67.9 24.85 Q74.85 25.3 75.05 31.1 L74.85 44.25 74.15 61.4 Q74.4 68.55 70.15 68.55 67.25 68.55 66.35 66.75 64.8 67.65 62.55 67.65 L57.2 67.4 52.1 67.2 50.1 66.95 Q42.05 66.95 38.7 68.1 L35.15 68.3 Q25.8 68.3 26.0 58.5 25.8 58.05 26.0 56.25 L26.25 54.05 26.7 44.0 26.7 38.0 26.9 29.95 Q26.9 25.95 26.25 23.75 35.4 23.75 35.4 33.3 L35.4 35.05 Q35.45 33.95 36.5 31.3 38.05 27.95 38.05 26.4 L37.85 25.05 Q37.6 24.6 37.85 23.95 37.6 22.85 38.05 22.15 L38.5 22.4 Q38.7 22.6 38.95 22.4 L39.6 22.15 Q40.75 21.5 41.85 21.5 45.4 21.75 45.4 25.3 45.4 27.1 42.95 31.1 44.95 31.55 46.3 35.3 L46.3 28.4 46.3 27.3 Q46.75 20.85 43.4 20.85 L43.2 20.85 Q45.2 19.05 47.85 19.05 55.45 19.5 55.45 25.05 L55.45 26.4 Q55.2 27.3 55.45 27.75 54.55 32.0 54.55 36.65 54.75 34.65 56.1 31.3 57.65 27.95 57.65 26.2 L57.45 25.3 57.2 23.95 Q57.0 22.85 57.65 22.15 L58.1 22.4 Q58.35 22.6 58.55 22.4 M42.75 31.3 L42.3 31.75 Q39.85 35.55 40.05 36.65 40.05 37.55 41.15 37.75 42.95 34.65 43.2 32.4 L42.75 31.3 M42.05 47.15 L42.05 45.55 Q39.6 48.45 39.85 48.7 39.85 49.35 40.5 49.35 L41.85 49.15 42.3 48.9 42.3 48.05 42.05 47.15 M45.85 43.55 L46.1 39.35 Q45.2 42.0 43.2 44.25 45.2 45.15 45.85 47.35 L45.85 43.55 M59.9 49.35 L61.25 49.15 61.9 48.9 61.9 48.05 61.7 45.55 60.8 46.45 Q59.0 48.25 59.25 48.7 59.25 49.35 59.9 49.35 M54.3 39.8 L54.1 48.9 54.3 53.35 54.3 57.4 61.0 57.85 65.45 58.7 65.45 56.05 Q64.8 56.7 64.35 56.7 62.8 56.95 62.1 54.7 61.25 56.05 58.8 56.05 54.55 56.05 54.55 50.7 54.55 47.8 56.75 43.35 54.55 42.25 54.3 39.8 M60.55 37.75 Q62.35 34.65 62.55 32.4 L62.1 31.3 Q59.25 35.3 59.45 36.65 59.45 37.55 60.55 37.75 M65.45 35.3 L65.45 34.9 65.45 33.55 Q65.9 27.95 64.8 26.85 L63.0 29.75 Q62.55 30.4 62.35 31.1 64.55 31.75 65.45 35.3 M65.45 47.6 L65.45 44.0 65.45 39.1 Q65.0 41.35 62.55 44.25 64.8 45.15 65.45 47.6 M35.15 45.35 Q34.95 48.25 35.15 49.8 35.15 47.15 37.6 43.35 35.6 42.7 35.4 41.1 L35.15 45.35 M38.05 58.05 L46.1 57.6 45.85 56.05 44.95 56.7 Q43.4 56.95 42.75 54.7 41.85 56.05 39.15 56.05 35.4 56.05 35.15 51.8 L35.15 53.6 Q34.95 58.05 38.05 58.05 Z" fill="none" stroke="#ffffff" stroke-linecap="round" stroke-linejoin="round" stroke-width="5.0"/>
      <path d="M58.55 22.4 L58.8 22.15 Q60.1 21.5 61.25 21.5 64.8 21.75 65.0 25.3 L67.9 24.85 Q74.85 25.3 75.05 31.1 L74.85 44.25 74.15 61.4 Q74.4 68.55 70.15 68.55 67.25 68.55 66.35 66.75 64.8 67.65 62.55 67.65 L57.2 67.4 52.1 67.2 50.1 66.95 Q42.05 66.95 38.7 68.1 L35.15 68.3 Q25.8 68.3 26.0 58.5 25.8 58.05 26.0 56.25 L26.25 54.05 26.7 44.0 26.7 38.0 26.9 29.95 Q26.9 25.95 26.25 23.75 35.4 23.75 35.4 33.3 L35.4 35.05 Q35.45 33.95 36.5 31.3 38.05 27.95 38.05 26.4 L37.85 25.05 Q37.6 24.6 37.85 23.95 37.6 22.85 38.05 22.15 L38.5 22.4 Q38.7 22.6 38.95 22.4 L39.6 22.15 Q40.75 21.5 41.85 21.5 45.4 21.75 45.4 25.3 45.4 27.1 42.95 31.1 44.95 31.55 46.3 35.3 L46.3 28.4 46.3 27.3 Q46.75 20.85 43.4 20.85 L43.2 20.85 Q45.2 19.05 47.85 19.05 55.45 19.5 55.45 25.05 L55.45 26.4 Q55.2 27.3 55.45 27.75 54.55 32.0 54.55 36.65 54.75 34.65 56.1 31.3 57.65 27.95 57.65 26.2 L57.45 25.3 57.2 23.95 Q57.0 22.85 57.65 22.15 L58.1 22.4 Q58.35 22.6 58.55 22.4 M42.3 31.75 Q39.85 35.55 40.05 36.65 40.05 37.55 41.15 37.75 42.95 34.65 43.2 32.4 L42.75 31.3 42.3 31.75 M42.3 48.05 L42.05 47.15 42.05 45.55 Q39.6 48.45 39.85 48.7 39.85 49.35 40.5 49.35 L41.85 49.15 42.3 48.9 42.3 48.05 M45.85 43.55 L46.1 39.35 Q45.2 42.0 43.2 44.25 45.2 45.15 45.85 47.35 L45.85 43.55 M54.3 39.8 L54.1 48.9 54.3 53.35 54.3 57.4 61.0 57.85 65.45 58.7 65.45 56.05 Q64.8 56.7 64.35 56.7 62.8 56.95 62.1 54.7 61.25 56.05 58.8 56.05 54.55 56.05 54.55 50.7 54.55 47.8 56.75 43.35 54.55 42.25 54.3 39.8 M59.9 49.35 L61.25 49.15 61.9 48.9 61.9 48.05 61.7 45.55 60.8 46.45 Q59.0 48.25 59.25 48.7 59.25 49.35 59.9 49.35 M60.55 37.75 Q62.35 34.65 62.55 32.4 L62.1 31.3 Q59.25 35.3 59.45 36.65 59.45 37.55 60.55 37.75 M65.45 35.3 L65.45 34.9 65.45 33.55 Q65.9 27.95 64.8 26.85 L63.0 29.75 Q62.55 30.4 62.35 31.1 64.55 31.75 65.45 35.3 M65.45 47.6 L65.45 44.0 65.45 39.1 Q65.0 41.35 62.55 44.25 64.8 45.15 65.45 47.6 M35.4 41.1 L35.15 45.35 Q34.95 48.25 35.15 49.8 35.15 47.15 37.6 43.35 35.6 42.7 35.4 41.1 M35.15 51.8 L35.15 53.6 Q34.95 58.05 38.05 58.05 L46.1 57.6 45.85 56.05 44.95 56.7 Q43.4 56.95 42.75 54.7 41.85 56.05 39.15 56.05 35.4 56.05 35.15 51.8" fill="url(#gradient2)" fill-rule="evenodd" stroke="none"/>
      <path d="M84.05 30.65 L84.6 32.1 Q86.05 40.0 88.7 46.95 88.6 41.25 86.95 35.7 85.95 32.35 84.0 30.25 L84.05 30.65 M94.75 32.75 L94.25 33.3 Q97.9 44.65 94.95 56.15 91.4 69.75 80.75 78.7 89.85 70.4 93.45 58.75 L93.35 58.3 93.75 57.5 Q94.8 52.95 94.75 48.3 L95.05 47.5 94.9 44.5 94.6 44.15 94.45 42.85 94.1 41.75 93.95 45.9 94.25 46.45 93.3 54.2 93.05 55.4 Q89.2 71.25 75.65 80.05 88.4 70.6 91.15 55.25 92.55 47.4 91.35 39.45 90.0 30.8 84.4 25.1 L84.6 26.0 82.6 22.7 Q73.85 11.8 60.65 8.3 L60.0 7.75 45.8 6.85 Q42.15 6.85 40.05 9.1 L39.95 9.15 Q47.05 7.2 54.45 8.0 63.65 9.15 71.5 14.4 74.45 16.35 77.0 18.9 79.65 21.65 81.9 24.75 90.95 37.4 88.6 52.55 L88.7 47.9 87.2 48.3 Q86.1 65.65 72.4 76.25 77.0 71.9 80.4 66.2 85.15 58.15 85.5 48.8 L85.7 47.9 85.7 46.95 85.55 47.0 Q85.75 45.2 85.5 43.35 L85.4 42.05 85.4 42.0 85.4 41.9 84.45 38.6 84.55 38.8 84.35 37.85 Q82.95 32.4 79.9 27.6 L79.75 27.4 77.6 24.4 77.55 24.45 77.5 24.55 Q77.0 23.2 75.05 21.55 L75.35 21.55 74.45 20.7 73.75 20.05 Q65.6 13.2 55.05 11.6 39.85 9.7 28.45 19.5 18.05 28.4 17.0 41.8 L16.95 42.9 17.3 42.8 16.7 44.45 Q16.25 45.85 16.7 47.05 L16.7 49.4 17.0 49.7 16.9 51.0 17.15 52.1 Q18.5 54.6 19.0 57.1 L19.1 57.65 20.75 59.55 20.75 59.6 20.8 59.75 Q22.2 62.7 24.15 65.3 L24.2 65.35 24.2 65.4 24.35 65.6 24.4 65.65 24.45 65.75 24.45 65.7 25.45 66.65 27.5 69.25 28.1 69.25 29.2 70.35 29.15 70.4 29.1 70.4 34.7 74.45 37.9 74.65 39.15 76.5 35.55 76.5 37.7 77.6 38.0 78.1 38.4 77.8 38.4 78.3 40.7 78.35 42.55 79.8 41.75 80.1 42.4 81.8 41.55 83.2 40.6 83.45 41.5 84.0 41.45 84.2 41.0 84.55 41.25 85.05 41.05 85.45 41.2 85.8 41.25 86.0 41.2 86.1 41.05 86.25 40.25 86.95 Q38.75 88.3 37.1 87.3 L36.4 86.65 35.85 87.05 35.55 86.95 35.15 87.05 34.85 87.2 Q34.65 87.05 34.45 87.05 L34.3 87.05 33.45 87.4 31.25 86.6 30.45 86.8 29.2 86.35 Q30.6 88.15 33.2 88.6 L33.55 88.95 Q35.05 90.45 37.15 90.3 L38.6 91.55 38.1 91.7 36.4 92.15 Q34.15 90.5 31.25 90.2 L31.1 89.7 31.0 89.9 30.4 89.8 31.6 89.5 25.3 86.5 25.0 86.0 23.8 85.6 Q12.5 77.15 5.8 65.05 L5.75 65.2 6.0 65.45 6.0 65.7 6.15 65.9 6.25 66.0 6.1 66.15 4.4 63.65 3.9 64.0 3.15 64.35 2.9 64.0 2.55 61.45 Q1.1 55.4 0.0 49.5 L0.6 49.1 Q0.0 43.6 1.1 38.5 L1.05 40.35 0.8 40.75 0.85 47.15 2.0 37.25 2.5 36.75 2.7 35.95 2.4 35.15 2.6 35.15 2.75 34.95 2.75 34.45 2.6 34.3 3.65 30.65 Q3.8 29.7 4.5 29.25 L4.5 28.95 Q4.45 28.75 4.55 28.65 L4.8 28.6 4.7 28.1 5.05 27.95 5.05 27.65 4.95 27.5 6.95 22.55 5.3 25.15 7.25 21.05 7.7 20.85 8.45 19.0 9.35 18.85 Q14.4 11.15 21.65 5.8 14.3 11.45 9.35 19.75 L8.95 20.8 8.2 21.8 Q2.05 33.6 1.8 46.8 L2.5 42.7 Q4.75 24.45 18.45 12.2 32.3 -0.1 50.7 0.15 61.35 0.3 70.7 4.9 88.5 13.75 94.75 32.75" fill="url(#gradient3)" fill-rule="evenodd" stroke="none"/>
      <path d="M24.65 63.15 Q24.0 63.0 23.5 62.6 L23.2 62.3 24.65 63.15" fill="url(#gradient4)" fill-rule="evenodd" stroke="none"/>
    </g>
    <linearGradient gradientTransform="matrix(0.0187, 0.0383, -0.0527, 0.0258, 44.35, 39.55)" gradientUnits="userSpaceOnUse" id="gradient0" spreadMethod="pad" x1="-819.2" x2="819.2">
      <stop offset="0.0196078431372549" stop-color="#ff9900"/>
      <stop offset="1.0" stop-color="#ff3333"/>
    </linearGradient>
    <linearGradient gradientTransform="matrix(0.0, 0.0175, -0.0376, 0.0, 49.5, 45.75)" gradientUnits="userSpaceOnUse" id="gradient1" spreadMethod="pad" x1="-819.2" x2="819.2">
      <stop offset="0.0" stop-color="#33ffff"/>
      <stop offset="1.0" stop-color="#6600ff"/>
    </linearGradient>
    <linearGradient gradientTransform="matrix(0.0, 0.0175, -0.0376, 0.0, 49.5, 45.75)" gradientUnits="userSpaceOnUse" id="gradient2" spreadMethod="pad" x1="-819.2" x2="819.2">
      <stop offset="0.0" stop-color="#33ffff"/>
      <stop offset="1.0" stop-color="#6600ff"/>
    </linearGradient>
    <linearGradient gradientTransform="matrix(0.0187, 0.0382, -0.0527, 0.0258, 44.35, 39.5)" gradientUnits="userSpaceOnUse" id="gradient3" spreadMethod="pad" x1="-819.2" x2="819.2">
      <stop offset="0.0" stop-color="#33ffff"/>
      <stop offset="1.0" stop-color="#6600ff"/>
    </linearGradient>
    <linearGradient gradientTransform="matrix(0.0187, 0.0382, -0.0527, 0.0258, 44.35, 39.5)" gradientUnits="userSpaceOnUse" id="gradient4" spreadMethod="pad" x1="-819.2" x2="819.2">
      <stop offset="0.0196078431372549" stop-color="#ff9900"/>
      <stop offset="1.0" stop-color="#ff3333"/>
    </linearGradient>
    <g id="sprite2" transform="matrix(1.0, 0.0, 0.0, 1.0, 0.0, 0.0)">
      <use ffdec:characterId="3" height="115.5" transform="matrix(1.0, 0.0, 0.0, 1.0, 0.0, 0.0)" width="81.1" xlink:href="#shape1"/>
    </g>
    <g id="shape1" transform="matrix(1.0, 0.0, 0.0, 1.0, 0.0, 0.0)">
      <path d="M61.25 3.6 L6.65 104.8 0.0 101.2 54.6 0.0 61.25 3.6 M10.45 106.85 L65.05 5.65 81.1 14.3 26.5 115.5 10.45 106.85" fill="url(#gradient5)" fill-rule="evenodd" stroke="none"/>
    </g>
    <linearGradient gradientTransform="matrix(-0.0256, 0.0507, -0.0628, -0.0318, 37.0, 70.0)" gradientUnits="userSpaceOnUse" id="gradient5" spreadMethod="pad" x1="-819.2" x2="819.2">
      <stop offset="0.0" stop-color="#ff0000"/>
      <stop offset="1.0" stop-color="#ffcc00" stop-opacity="0.8"/>
    </linearGradient>
  </defs>
</svg>
