<?xml version="1.0" encoding="UTF-8" standalone="no"?>
<svg xmlns:ffdec="https://www.free-decompiler.com/flash" xmlns:xlink="http://www.w3.org/1999/xlink" ffdec:objectType="shape" height="98.95px" width="103.25px" xmlns="http://www.w3.org/2000/svg">
  <g transform="matrix(1.0, 0.0, 0.0, 1.0, 3.5, 3.25)">
    <path d="M26.95 63.0 Q24.7 63.6 23.5 62.65 L20.55 59.3 20.75 59.65 20.8 59.8 Q22.2 62.75 24.15 65.35 L24.2 65.4 24.2 65.45 24.35 65.65 24.4 65.7 24.5 65.85 24.45 65.75 25.45 66.7 27.5 69.3 28.1 69.3 29.2 70.4 29.15 70.45 29.1 70.45 34.7 74.5 37.9 74.7 39.15 76.55 35.55 76.55 37.7 77.65 38.0 78.15 38.4 77.85 38.4 78.35 40.7 78.4 42.55 79.85 41.75 80.15 42.4 81.85 41.55 83.25 40.6 83.5 41.5 84.05 41.45 84.25 41.0 84.6 41.25 85.1 41.05 85.5 41.2 85.85 41.25 86.05 41.2 86.15 41.05 86.3 40.25 87.0 Q38.75 88.35 37.1 87.35 L36.4 86.7 35.85 87.1 35.55 87.0 35.15 87.1 34.85 87.25 Q34.65 87.1 34.45 87.1 L34.3 87.1 33.45 87.45 31.25 86.65 30.45 86.85 29.2 86.4 Q30.6 88.2 33.2 88.65 L33.55 89.0 Q35.05 90.5 37.15 90.35 L38.6 91.6 38.1 91.75 36.4 92.2 Q34.15 90.55 31.25 90.25 L31.1 89.75 31.0 89.95 30.4 89.85 31.6 89.55 25.3 86.55 25.0 86.05 23.8 85.65 Q12.5 77.15 5.8 65.05 L5.75 65.2 6.0 65.45 6.0 65.7 6.15 65.9 6.25 66.0 6.1 66.15 4.4 63.65 3.9 64.0 3.15 64.35 2.9 64.0 2.55 61.45 Q1.1 55.4 0.0 49.5 L0.6 49.1 Q0.0 43.6 1.1 38.5 L1.05 40.35 0.8 40.75 0.85 47.15 2.0 37.25 2.5 36.75 2.7 35.95 2.4 35.15 2.6 35.15 2.75 34.95 2.75 34.45 2.6 34.3 3.65 30.65 Q3.8 29.7 4.5 29.25 L4.5 28.95 Q4.45 28.75 4.55 28.65 L4.8 28.6 4.7 28.1 5.05 27.95 5.05 27.65 4.95 27.5 6.95 22.55 5.3 25.15 7.25 21.05 7.7 20.85 8.45 19.0 9.35 18.85 Q14.4 11.15 21.65 5.85 14.3 11.45 9.35 19.75 L8.95 20.8 8.2 21.8 Q2.05 33.6 1.8 46.8 L2.5 42.7 Q4.75 24.45 18.45 12.25 32.3 -0.05 50.7 0.25 61.35 0.4 70.7 5.0 88.5 13.9 94.75 32.9 L94.25 33.45 Q97.9 44.8 94.95 56.3 91.4 69.9 80.75 78.85 89.85 70.55 93.45 58.9 L93.35 58.45 93.75 57.65 Q94.8 53.1 94.75 48.45 L95.05 47.65 94.9 44.65 94.6 44.3 94.45 43.0 94.1 41.9 93.95 46.05 94.25 46.6 93.3 54.35 93.05 55.55 Q89.2 71.4 75.65 80.15 88.4 70.75 91.15 55.4 92.55 47.55 91.35 39.6 90.0 30.95 84.4 25.25 L84.6 26.15 82.6 22.85 Q73.85 11.9 60.65 8.4 L60.0 7.85 45.8 6.9 Q42.15 6.9 40.05 9.15 L39.95 9.2 Q47.05 7.25 54.45 8.1 63.65 9.25 71.5 14.5 74.45 16.45 77.0 19.0 79.65 21.75 81.9 24.9 90.95 37.55 88.6 52.7 L88.7 48.05 87.2 48.45 Q86.1 65.8 72.4 76.35 77.0 72.0 80.4 66.35 85.15 58.3 85.5 48.95 L85.7 48.05 85.7 47.1 82.95 47.8 Q82.8 42.05 80.75 36.15 79.25 31.75 76.4 28.3 L75.35 27.25 Q80.55 27.5 82.3 34.15 L84.55 42.6 Q84.85 43.65 85.5 44.1 85.6 41.7 84.4 38.6 L84.55 38.95 84.35 38.0 Q82.95 32.55 79.9 27.7 L79.75 27.5 77.6 24.5 77.55 24.55 77.5 24.65 Q77.0 23.3 75.05 21.65 L75.35 21.65 74.45 20.8 73.75 20.15 Q65.6 13.3 55.05 11.7 39.85 9.75 28.45 19.55 18.05 28.45 17.0 41.85 L16.95 42.95 19.2 42.35 Q20.35 42.2 20.75 42.9 L20.55 43.95 20.3 44.3 Q19.55 45.2 19.75 45.9 L20.2 46.95 20.2 48.05 Q20.25 54.0 24.1 58.5 26.15 60.8 28.75 61.95 27.95 62.95 26.95 63.0 M86.95 35.85 Q85.95 32.5 84.0 30.4 L84.05 30.8 84.6 32.25 Q86.05 40.15 88.7 47.1 88.6 41.4 86.95 35.85 M18.55 44.5 L18.0 45.75 Q17.25 46.65 17.45 47.35 20.45 54.35 25.05 59.9 20.45 54.35 17.45 47.35 17.25 46.65 18.0 45.75 L18.55 44.5" fill="url(#gradient0)" fill-rule="evenodd" stroke="none"/>
    <path d="M85.7 47.1 L85.7 48.05 85.5 48.95 Q85.15 58.3 80.4 66.35 77.0 72.0 72.4 76.35 86.1 65.8 87.2 48.45 L88.7 48.05 88.6 52.7 Q90.95 37.55 81.9 24.9 79.65 21.75 77.0 19.0 74.45 16.45 71.5 14.5 63.65 9.25 54.45 8.1 47.05 7.25 39.95 9.2 L40.05 9.15 Q42.15 6.9 45.8 6.9 L60.0 7.85 60.65 8.4 Q73.85 11.9 82.6 22.85 L84.6 26.15 84.4 25.25 Q90.0 30.95 91.35 39.6 92.55 47.55 91.15 55.4 88.4 70.75 75.65 80.15 89.2 71.4 93.05 55.55 L93.3 54.35 94.25 46.6 93.95 46.05 94.1 41.9 94.45 43.0 94.6 44.3 94.9 44.65 95.05 47.65 94.75 48.45 Q94.8 53.1 93.75 57.65 L93.35 58.45 93.45 58.9 Q89.85 70.55 80.75 78.85 91.4 69.9 94.95 56.3 97.9 44.8 94.25 33.45 L94.75 32.9 Q88.5 13.9 70.7 5.0 61.35 0.4 50.7 0.25 32.3 -0.05 18.45 12.25 4.75 24.45 2.5 42.7 L1.8 46.8 Q2.05 33.6 8.2 21.8 L8.95 20.8 9.35 19.75 Q14.3 11.45 21.65 5.85 14.4 11.15 9.35 18.85 L8.45 19.0 7.7 20.85 7.25 21.05 5.3 25.15 6.95 22.55 4.95 27.5 5.05 27.65 5.05 27.95 4.7 28.1 4.8 28.6 4.55 28.65 Q4.45 28.75 4.5 28.95 L4.5 29.25 Q3.8 29.7 3.65 30.65 L2.6 34.3 2.75 34.45 2.75 34.95 2.6 35.15 2.4 35.15 2.7 35.95 2.5 36.75 2.0 37.25 0.85 47.15 0.8 40.75 1.05 40.35 1.1 38.5 Q0.0 43.6 0.6 49.1 L0.0 49.5 Q1.1 55.4 2.55 61.45 L2.9 64.0 3.15 64.35 3.9 64.0 4.4 63.65 6.1 66.15 6.25 66.0 6.15 65.9 6.0 65.7 6.0 65.45 5.75 65.2 5.8 65.05 Q12.5 77.15 23.8 85.65 L25.0 86.05 25.3 86.55 31.6 89.55 30.4 89.85 31.0 89.95 31.1 89.75 31.25 90.25 Q34.15 90.55 36.4 92.2 L38.1 91.75 38.6 91.6 37.15 90.35 Q35.05 90.5 33.55 89.0 L33.2 88.65 Q30.6 88.2 29.2 86.4 L30.45 86.85 31.25 86.65 33.45 87.45 34.3 87.1 34.45 87.1 Q34.65 87.1 34.85 87.25 L35.15 87.1 35.55 87.0 35.85 87.1 36.4 86.7 37.1 87.35 Q38.75 88.35 40.25 87.0 L41.05 86.3 41.2 86.15 41.25 86.05 41.2 85.85 41.05 85.5 41.25 85.1 41.0 84.6 41.45 84.25 41.5 84.05 40.6 83.5 41.55 83.25 42.4 81.85 41.75 80.15 42.55 79.85 40.7 78.4 38.4 78.35 38.4 77.85 38.0 78.15 37.7 77.65 35.55 76.55 39.15 76.55 37.9 74.7 34.7 74.5 29.1 70.45 29.15 70.45 29.2 70.4 28.1 69.3 27.5 69.3 25.45 66.7 24.45 65.75 24.5 65.85 24.4 65.7 24.35 65.65 24.2 65.45 24.2 65.4 24.15 65.35 Q22.2 62.75 20.8 59.8 L20.75 59.65 20.55 59.3 23.5 62.65 Q24.7 63.6 26.95 63.0 M16.95 42.95 L17.0 41.85 Q18.05 28.45 28.45 19.55 39.85 9.75 55.05 11.7 65.6 13.3 73.75 20.15 L74.45 20.8 75.35 21.65 75.05 21.65 Q77.0 23.3 77.5 24.65 L77.55 24.55 77.6 24.5 79.75 27.5 79.9 27.7 Q82.95 32.55 84.35 38.0 L84.55 38.95 84.4 38.6 Q85.6 41.7 85.5 44.1 84.85 43.65 84.55 42.6 L82.3 34.15 M86.95 35.85 Q88.6 41.4 88.7 47.1 86.05 40.15 84.6 32.25 L84.05 30.8 84.0 30.4 Q85.95 32.5 86.95 35.85 M25.05 59.9 Q20.45 54.35 17.45 47.35 17.25 46.65 18.0 45.75 L18.55 44.5" fill="none" stroke="#ffffff" stroke-linecap="round" stroke-linejoin="round" stroke-width="7.0"/>
    <path d="M58.55 22.4 L58.8 22.15 Q60.1 21.5 61.25 21.5 64.8 21.75 65.0 25.3 L67.9 24.85 Q74.85 25.3 75.05 31.1 L74.85 44.25 74.15 61.4 Q74.4 68.55 70.15 68.55 67.25 68.55 66.35 66.75 64.8 67.65 62.55 67.65 L57.2 67.4 52.1 67.2 50.1 66.95 Q42.05 66.95 38.7 68.1 L35.15 68.3 Q25.8 68.3 26.0 58.5 25.8 58.05 26.0 56.25 L26.25 54.05 26.7 44.0 26.7 38.0 26.9 29.95 Q26.9 25.95 26.25 23.75 35.4 23.75 35.4 33.3 L35.4 35.05 Q35.45 33.95 36.5 31.3 38.05 27.95 38.05 26.4 L37.85 25.05 Q37.6 24.6 37.85 23.95 37.6 22.85 38.05 22.15 L38.5 22.4 Q38.7 22.6 38.95 22.4 L39.6 22.15 Q40.75 21.5 41.85 21.5 45.4 21.75 45.4 25.3 45.4 27.1 42.95 31.1 44.95 31.55 46.3 35.3 L46.3 28.4 46.3 27.3 Q46.75 20.85 43.4 20.85 L43.2 20.85 Q45.2 19.05 47.85 19.05 55.45 19.5 55.45 25.05 L55.45 26.4 Q55.2 27.3 55.45 27.75 54.55 32.0 54.55 36.65 54.75 34.65 56.1 31.3 57.65 27.95 57.65 26.2 L57.45 25.3 57.2 23.95 Q57.0 22.85 57.65 22.15 L58.1 22.4 Q58.35 22.6 58.55 22.4 M42.75 31.3 L42.3 31.75 Q39.85 35.55 40.05 36.65 40.05 37.55 41.15 37.75 42.95 34.65 43.2 32.4 L42.75 31.3 M42.05 47.15 L42.05 45.55 Q39.6 48.45 39.85 48.7 39.85 49.35 40.5 49.35 L41.85 49.15 42.3 48.9 42.3 48.05 42.05 47.15 M45.85 43.55 L46.1 39.35 Q45.2 42.0 43.2 44.25 45.2 45.15 45.85 47.35 L45.85 43.55 M59.9 49.35 L61.25 49.15 61.9 48.9 61.9 48.05 61.7 45.55 60.8 46.45 Q59.0 48.25 59.25 48.7 59.25 49.35 59.9 49.35 M54.3 39.8 L54.1 48.9 54.3 53.35 54.3 57.4 61.0 57.85 65.45 58.7 65.45 56.05 Q64.8 56.7 64.35 56.7 62.8 56.95 62.1 54.7 61.25 56.05 58.8 56.05 54.55 56.05 54.55 50.7 54.55 47.8 56.75 43.35 54.55 42.25 54.3 39.8 M60.55 37.75 Q62.35 34.65 62.55 32.4 L62.1 31.3 Q59.25 35.3 59.45 36.65 59.45 37.55 60.55 37.75 M65.45 35.3 L65.45 34.9 65.45 33.55 Q65.9 27.95 64.8 26.85 L63.0 29.75 Q62.55 30.4 62.35 31.1 64.55 31.75 65.45 35.3 M65.45 47.6 L65.45 44.0 65.45 39.1 Q65.0 41.35 62.55 44.25 64.8 45.15 65.45 47.6 M35.15 45.35 Q34.95 48.25 35.15 49.8 35.15 47.15 37.6 43.35 35.6 42.7 35.4 41.1 L35.15 45.35 M38.05 58.05 L46.1 57.6 45.85 56.05 44.95 56.7 Q43.4 56.95 42.75 54.7 41.85 56.05 39.15 56.05 35.4 56.05 35.15 51.8 L35.15 53.6 Q34.95 58.05 38.05 58.05" fill="url(#gradient1)" fill-rule="evenodd" stroke="none"/>
    <path d="M58.55 22.4 L58.8 22.15 Q60.1 21.5 61.25 21.5 64.8 21.75 65.0 25.3 L67.9 24.85 Q74.85 25.3 75.05 31.1 L74.85 44.25 74.15 61.4 Q74.4 68.55 70.15 68.55 67.25 68.55 66.35 66.75 64.8 67.65 62.55 67.65 L57.2 67.4 52.1 67.2 50.1 66.95 Q42.05 66.95 38.7 68.1 L35.15 68.3 Q25.8 68.3 26.0 58.5 25.8 58.05 26.0 56.25 L26.25 54.05 26.7 44.0 26.7 38.0 26.9 29.95 Q26.9 25.95 26.25 23.75 35.4 23.75 35.4 33.3 L35.4 35.05 Q35.45 33.95 36.5 31.3 38.05 27.95 38.05 26.4 L37.85 25.05 Q37.6 24.6 37.85 23.95 37.6 22.85 38.05 22.15 L38.5 22.4 Q38.7 22.6 38.95 22.4 L39.6 22.15 Q40.75 21.5 41.85 21.5 45.4 21.75 45.4 25.3 45.4 27.1 42.95 31.1 44.95 31.55 46.3 35.3 L46.3 28.4 46.3 27.3 Q46.75 20.85 43.4 20.85 L43.2 20.85 Q45.2 19.05 47.85 19.05 55.45 19.5 55.45 25.05 L55.45 26.4 Q55.2 27.3 55.45 27.75 54.55 32.0 54.55 36.65 54.75 34.65 56.1 31.3 57.65 27.95 57.65 26.2 L57.45 25.3 57.2 23.95 Q57.0 22.85 57.65 22.15 L58.1 22.4 Q58.35 22.6 58.55 22.4 M42.75 31.3 L42.3 31.75 Q39.85 35.55 40.05 36.65 40.05 37.55 41.15 37.75 42.95 34.65 43.2 32.4 L42.75 31.3 M42.05 47.15 L42.05 45.55 Q39.6 48.45 39.85 48.7 39.85 49.35 40.5 49.35 L41.85 49.15 42.3 48.9 42.3 48.05 42.05 47.15 M45.85 43.55 L46.1 39.35 Q45.2 42.0 43.2 44.25 45.2 45.15 45.85 47.35 L45.85 43.55 M59.9 49.35 L61.25 49.15 61.9 48.9 61.9 48.05 61.7 45.55 60.8 46.45 Q59.0 48.25 59.25 48.7 59.25 49.35 59.9 49.35 M54.3 39.8 L54.1 48.9 54.3 53.35 54.3 57.4 61.0 57.85 65.45 58.7 65.45 56.05 Q64.8 56.7 64.35 56.7 62.8 56.95 62.1 54.7 61.25 56.05 58.8 56.05 54.55 56.05 54.55 50.7 54.55 47.8 56.75 43.35 54.55 42.25 54.3 39.8 M60.55 37.75 Q62.35 34.65 62.55 32.4 L62.1 31.3 Q59.25 35.3 59.45 36.65 59.45 37.55 60.55 37.75 M65.45 35.3 L65.45 34.9 65.45 33.55 Q65.9 27.95 64.8 26.85 L63.0 29.75 Q62.55 30.4 62.35 31.1 64.55 31.75 65.45 35.3 M65.45 47.6 L65.45 44.0 65.45 39.1 Q65.0 41.35 62.55 44.25 64.8 45.15 65.45 47.6 M35.15 45.35 Q34.95 48.25 35.15 49.8 35.15 47.15 37.6 43.35 35.6 42.7 35.4 41.1 L35.15 45.35 M38.05 58.05 L46.1 57.6 45.85 56.05 44.95 56.7 Q43.4 56.95 42.75 54.7 41.85 56.05 39.15 56.05 35.4 56.05 35.15 51.8 L35.15 53.6 Q34.95 58.05 38.05 58.05 Z" fill="none" stroke="#ffffff" stroke-linecap="round" stroke-linejoin="round" stroke-width="5.0"/>
    <path d="M58.55 22.4 L58.8 22.15 Q60.1 21.5 61.25 21.5 64.8 21.75 65.0 25.3 L67.9 24.85 Q74.85 25.3 75.05 31.1 L74.85 44.25 74.15 61.4 Q74.4 68.55 70.15 68.55 67.25 68.55 66.35 66.75 64.8 67.65 62.55 67.65 L57.2 67.4 52.1 67.2 50.1 66.95 Q42.05 66.95 38.7 68.1 L35.15 68.3 Q25.8 68.3 26.0 58.5 25.8 58.05 26.0 56.25 L26.25 54.05 26.7 44.0 26.7 38.0 26.9 29.95 Q26.9 25.95 26.25 23.75 35.4 23.75 35.4 33.3 L35.4 35.05 Q35.45 33.95 36.5 31.3 38.05 27.95 38.05 26.4 L37.85 25.05 Q37.6 24.6 37.85 23.95 37.6 22.85 38.05 22.15 L38.5 22.4 Q38.7 22.6 38.95 22.4 L39.6 22.15 Q40.75 21.5 41.85 21.5 45.4 21.75 45.4 25.3 45.4 27.1 42.95 31.1 44.95 31.55 46.3 35.3 L46.3 28.4 46.3 27.3 Q46.75 20.85 43.4 20.85 L43.2 20.85 Q45.2 19.05 47.85 19.05 55.45 19.5 55.45 25.05 L55.45 26.4 Q55.2 27.3 55.45 27.75 54.55 32.0 54.55 36.65 54.75 34.65 56.1 31.3 57.65 27.95 57.65 26.2 L57.45 25.3 57.2 23.95 Q57.0 22.85 57.65 22.15 L58.1 22.4 Q58.35 22.6 58.55 22.4 M42.3 31.75 Q39.85 35.55 40.05 36.65 40.05 37.55 41.15 37.75 42.95 34.65 43.2 32.4 L42.75 31.3 42.3 31.75 M42.3 48.05 L42.05 47.15 42.05 45.55 Q39.6 48.45 39.85 48.7 39.85 49.35 40.5 49.35 L41.85 49.15 42.3 48.9 42.3 48.05 M45.85 43.55 L46.1 39.35 Q45.2 42.0 43.2 44.25 45.2 45.15 45.85 47.35 L45.85 43.55 M54.3 39.8 L54.1 48.9 54.3 53.35 54.3 57.4 61.0 57.85 65.45 58.7 65.45 56.05 Q64.8 56.7 64.35 56.7 62.8 56.95 62.1 54.7 61.25 56.05 58.8 56.05 54.55 56.05 54.55 50.7 54.55 47.8 56.75 43.35 54.55 42.25 54.3 39.8 M59.9 49.35 L61.25 49.15 61.9 48.9 61.9 48.05 61.7 45.55 60.8 46.45 Q59.0 48.25 59.25 48.7 59.25 49.35 59.9 49.35 M60.55 37.75 Q62.35 34.65 62.55 32.4 L62.1 31.3 Q59.25 35.3 59.45 36.65 59.45 37.55 60.55 37.75 M65.45 35.3 L65.45 34.9 65.45 33.55 Q65.9 27.95 64.8 26.85 L63.0 29.75 Q62.55 30.4 62.35 31.1 64.55 31.75 65.45 35.3 M65.45 47.6 L65.45 44.0 65.45 39.1 Q65.0 41.35 62.55 44.25 64.8 45.15 65.45 47.6 M35.4 41.1 L35.15 45.35 Q34.95 48.25 35.15 49.8 35.15 47.15 37.6 43.35 35.6 42.7 35.4 41.1 M35.15 51.8 L35.15 53.6 Q34.95 58.05 38.05 58.05 L46.1 57.6 45.85 56.05 44.95 56.7 Q43.4 56.95 42.75 54.7 41.85 56.05 39.15 56.05 35.4 56.05 35.15 51.8" fill="url(#gradient2)" fill-rule="evenodd" stroke="none"/>
    <path d="M84.05 30.65 L84.6 32.1 Q86.05 40.0 88.7 46.95 88.6 41.25 86.95 35.7 85.95 32.35 84.0 30.25 L84.05 30.65 M94.75 32.75 L94.25 33.3 Q97.9 44.65 94.95 56.15 91.4 69.75 80.75 78.7 89.85 70.4 93.45 58.75 L93.35 58.3 93.75 57.5 Q94.8 52.95 94.75 48.3 L95.05 47.5 94.9 44.5 94.6 44.15 94.45 42.85 94.1 41.75 93.95 45.9 94.25 46.45 93.3 54.2 93.05 55.4 Q89.2 71.25 75.65 80.05 88.4 70.6 91.15 55.25 92.55 47.4 91.35 39.45 90.0 30.8 84.4 25.1 L84.6 26.0 82.6 22.7 Q73.85 11.8 60.65 8.3 L60.0 7.75 45.8 6.85 Q42.15 6.85 40.05 9.1 L39.95 9.15 Q47.05 7.2 54.45 8.0 63.65 9.15 71.5 14.4 74.45 16.35 77.0 18.9 79.65 21.65 81.9 24.75 90.95 37.4 88.6 52.55 L88.7 47.9 87.2 48.3 Q86.1 65.65 72.4 76.25 77.0 71.9 80.4 66.2 85.15 58.15 85.5 48.8 L85.7 47.9 85.7 46.95 85.55 47.0 Q85.75 45.2 85.5 43.35 L85.4 42.05 85.4 42.0 85.4 41.9 84.45 38.6 84.55 38.8 84.35 37.85 Q82.95 32.4 79.9 27.6 L79.75 27.4 77.6 24.4 77.55 24.45 77.5 24.55 Q77.0 23.2 75.05 21.55 L75.35 21.55 74.45 20.7 73.75 20.05 Q65.6 13.2 55.05 11.6 39.85 9.7 28.45 19.5 18.05 28.4 17.0 41.8 L16.95 42.9 17.3 42.8 16.7 44.45 Q16.25 45.85 16.7 47.05 L16.7 49.4 17.0 49.7 16.9 51.0 17.15 52.1 Q18.5 54.6 19.0 57.1 L19.1 57.65 20.75 59.55 20.75 59.6 20.8 59.75 Q22.2 62.7 24.15 65.3 L24.2 65.35 24.2 65.4 24.35 65.6 24.4 65.65 24.45 65.75 24.45 65.7 25.45 66.65 27.5 69.25 28.1 69.25 29.2 70.35 29.15 70.4 29.1 70.4 34.7 74.45 37.9 74.65 39.15 76.5 35.55 76.5 37.7 77.6 38.0 78.1 38.4 77.8 38.4 78.3 40.7 78.35 42.55 79.8 41.75 80.1 42.4 81.8 41.55 83.2 40.6 83.45 41.5 84.0 41.45 84.2 41.0 84.55 41.25 85.05 41.05 85.45 41.2 85.8 41.25 86.0 41.2 86.1 41.05 86.25 40.25 86.95 Q38.75 88.3 37.1 87.3 L36.4 86.65 35.85 87.05 35.55 86.95 35.15 87.05 34.85 87.2 Q34.65 87.05 34.45 87.05 L34.3 87.05 33.45 87.4 31.25 86.6 30.45 86.8 29.2 86.35 Q30.6 88.15 33.2 88.6 L33.55 88.95 Q35.05 90.45 37.15 90.3 L38.6 91.55 38.1 91.7 36.4 92.15 Q34.15 90.5 31.25 90.2 L31.1 89.7 31.0 89.9 30.4 89.8 31.6 89.5 25.3 86.5 25.0 86.0 23.8 85.6 Q12.5 77.15 5.8 65.05 L5.75 65.2 6.0 65.45 6.0 65.7 6.15 65.9 6.25 66.0 6.1 66.15 4.4 63.65 3.9 64.0 3.15 64.35 2.9 64.0 2.55 61.45 Q1.1 55.4 0.0 49.5 L0.6 49.1 Q0.0 43.6 1.1 38.5 L1.05 40.35 0.8 40.75 0.85 47.15 2.0 37.25 2.5 36.75 2.7 35.95 2.4 35.15 2.6 35.15 2.75 34.95 2.75 34.45 2.6 34.3 3.65 30.65 Q3.8 29.7 4.5 29.25 L4.5 28.95 Q4.45 28.75 4.55 28.65 L4.8 28.6 4.7 28.1 5.05 27.95 5.05 27.65 4.95 27.5 6.95 22.55 5.3 25.15 7.25 21.05 7.7 20.85 8.45 19.0 9.35 18.85 Q14.4 11.15 21.65 5.8 14.3 11.45 9.35 19.75 L8.95 20.8 8.2 21.8 Q2.05 33.6 1.8 46.8 L2.5 42.7 Q4.75 24.45 18.45 12.2 32.3 -0.1 50.7 0.15 61.35 0.3 70.7 4.9 88.5 13.75 94.75 32.75" fill="url(#gradient3)" fill-rule="evenodd" stroke="none"/>
    <path d="M24.65 63.15 Q24.0 63.0 23.5 62.6 L23.2 62.3 24.65 63.15" fill="url(#gradient4)" fill-rule="evenodd" stroke="none"/>
  </g>
  <defs>
    <linearGradient gradientTransform="matrix(0.0187, 0.0383, -0.0527, 0.0258, 44.35, 39.55)" gradientUnits="userSpaceOnUse" id="gradient0" spreadMethod="pad" x1="-819.2" x2="819.2">
      <stop offset="0.0196078431372549" stop-color="#ff9900"/>
      <stop offset="1.0" stop-color="#ff3333"/>
    </linearGradient>
    <linearGradient gradientTransform="matrix(0.0, 0.0175, -0.0376, 0.0, 49.5, 45.75)" gradientUnits="userSpaceOnUse" id="gradient1" spreadMethod="pad" x1="-819.2" x2="819.2">
      <stop offset="0.0" stop-color="#33ffff"/>
      <stop offset="1.0" stop-color="#6600ff"/>
    </linearGradient>
    <linearGradient gradientTransform="matrix(0.0, 0.0175, -0.0376, 0.0, 49.5, 45.75)" gradientUnits="userSpaceOnUse" id="gradient2" spreadMethod="pad" x1="-819.2" x2="819.2">
      <stop offset="0.0" stop-color="#33ffff"/>
      <stop offset="1.0" stop-color="#6600ff"/>
    </linearGradient>
    <linearGradient gradientTransform="matrix(0.0187, 0.0382, -0.0527, 0.0258, 44.35, 39.5)" gradientUnits="userSpaceOnUse" id="gradient3" spreadMethod="pad" x1="-819.2" x2="819.2">
      <stop offset="0.0" stop-color="#33ffff"/>
      <stop offset="1.0" stop-color="#6600ff"/>
    </linearGradient>
    <linearGradient gradientTransform="matrix(0.0187, 0.0382, -0.0527, 0.0258, 44.35, 39.5)" gradientUnits="userSpaceOnUse" id="gradient4" spreadMethod="pad" x1="-819.2" x2="819.2">
      <stop offset="0.0196078431372549" stop-color="#ff9900"/>
      <stop offset="1.0" stop-color="#ff3333"/>
    </linearGradient>
  </defs>
</svg>
