<?xml version="1.0" encoding="UTF-8" standalone="no"?>
<svg xmlns:ffdec="https://www.free-decompiler.com/flash" xmlns:xlink="http://www.w3.org/1999/xlink" ffdec:objectType="shape" height="55.45px" width="59.35px" xmlns="http://www.w3.org/2000/svg">
  <g transform="matrix(1.0, 0.0, 0.0, 1.0, -266.1, -194.3)">
    <path d="M324.1 214.15 L324.2 214.15 324.4 214.45 Q324.25 214.7 324.25 215.0 L324.3 215.35 324.3 215.4 324.4 215.45 324.3 215.05 324.4 214.95 325.15 218.1 325.2 218.45 324.95 218.85 324.95 219.2 325.2 219.1 325.25 219.15 325.4 221.95 325.15 222.2 325.4 222.2 325.45 222.4 325.3 222.9 325.2 222.95 325.1 223.25 325.4 223.45 322.65 233.4 321.95 234.75 Q319.7 238.8 316.05 242.2 L315.85 242.0 315.75 242.2 315.85 242.3 Q313.35 244.5 310.6 246.1 L310.1 246.35 308.65 247.05 308.4 247.05 307.6 247.4 307.65 247.45 307.65 247.55 307.6 247.45 307.3 247.4 307.2 247.55 307.3 247.65 306.2 248.0 306.25 248.05 306.1 248.05 306.0 248.05 301.95 249.05 301.95 249.25 301.8 249.15 301.6 249.15 301.3 249.25 300.15 249.35 300.1 249.4 299.85 249.5 296.7 249.75 296.55 249.75 296.15 249.55 296.1 249.55 296.4 249.45 296.45 249.45 296.1 249.4 295.8 249.35 292.85 249.1 290.0 248.45 289.25 248.0 289.1 247.95 289.2 247.95 289.55 248.05 289.75 248.15 294.0 248.75 296.8 248.7 296.7 248.65 294.05 248.55 292.1 248.25 291.95 248.2 291.45 248.1 291.4 248.05 291.85 248.0 291.7 247.9 Q290.35 247.7 289.25 247.05 L288.85 246.95 Q288.5 246.7 288.35 247.05 288.0 246.7 287.65 246.8 L287.35 246.9 Q286.8 247.25 286.35 246.7 L284.6 246.2 284.65 246.25 285.05 246.7 285.0 246.7 283.1 246.9 282.5 246.9 281.7 245.9 280.55 245.05 280.35 244.95 Q279.9 244.3 279.15 244.2 L278.0 244.4 277.95 244.4 277.95 244.1 278.0 244.2 278.05 244.2 278.15 244.15 278.15 244.1 277.8 243.55 277.8 243.6 277.8 243.85 277.25 243.3 276.9 243.3 276.9 243.55 276.45 243.35 276.4 243.3 276.45 243.3 276.4 243.2 276.25 243.05 276.3 242.95 276.05 242.55 275.3 241.35 274.95 241.3 274.75 241.55 274.45 241.45 274.4 241.8 274.05 241.5 274.0 241.45 274.1 241.25 273.9 240.8 Q273.75 240.7 273.55 240.9 L273.45 241.0 273.65 240.75 273.65 240.7 Q272.3 239.95 271.9 238.5 L271.15 237.95 270.8 237.1 270.8 237.15 270.45 237.95 270.7 238.25 270.65 238.25 270.5 238.2 269.85 237.5 269.75 237.25 269.7 237.2 270.05 237.1 270.05 236.95 Q270.15 236.7 269.85 236.6 L269.95 236.2 269.9 235.8 269.85 235.75 270.05 235.6 269.75 235.4 269.7 235.4 269.95 234.85 270.0 234.4 270.0 234.2 269.5 233.05 269.3 231.9 268.95 231.35 268.55 231.6 268.5 231.6 268.3 231.3 268.25 231.2 267.7 230.6 267.25 230.3 267.05 230.2 267.95 230.05 267.6 229.4 267.5 228.75 267.55 228.65 267.6 228.45 267.6 228.25 Q267.55 227.8 267.95 227.55 L268.3 227.1 268.2 226.8 268.15 226.8 268.1 226.8 268.3 226.3 268.3 226.2 268.2 225.8 268.05 225.55 268.1 225.3 267.95 223.25 267.8 223.35 267.75 223.35 267.95 222.75 267.95 222.6 267.85 222.2 267.6 222.25 267.6 222.2 267.95 222.15 Q268.3 216.9 269.95 211.95 L271.35 209.35 Q271.95 207.6 273.1 206.15 273.2 205.4 273.7 204.75 L273.8 204.85 Q273.4 205.15 273.45 205.6 L274.2 204.5 274.1 204.35 274.1 204.3 274.3 204.25 274.1 203.95 275.05 203.4 276.4 202.5 277.6 201.3 Q278.3 200.55 279.25 200.05 L280.05 199.35 Q281.65 198.15 283.4 197.4 L283.1 197.6 282.2 198.2 281.85 198.45 281.5 198.7 281.6 198.65 284.6 197.1 284.65 197.05 283.75 197.3 283.65 197.3 284.4 196.85 Q285.05 196.5 285.75 196.4 L286.25 196.3 286.5 196.25 286.5 196.15 286.55 196.15 286.65 196.0 287.1 195.95 287.65 195.95 287.8 195.8 287.7 195.7 287.9 195.6 288.0 195.8 288.05 195.8 288.65 195.7 289.45 195.3 290.75 194.75 294.45 194.3 301.05 194.45 303.05 194.75 Q306.75 195.6 310.05 197.2 L312.95 199.05 313.8 199.7 314.65 200.4 314.9 200.5 315.3 201.0 317.95 203.65 318.05 203.85 318.5 204.4 318.55 204.4 318.85 204.75 318.85 204.85 319.6 205.7 321.95 209.45 322.1 209.85 Q323.25 211.85 323.95 214.05 L324.15 214.7 324.2 214.5 324.1 214.15 M314.15 207.95 L314.2 207.7 314.35 207.9 314.45 207.9 Q314.1 207.4 313.65 207.5 L313.5 207.15 313.55 206.9 312.9 206.65 312.85 206.6 313.1 206.35 313.0 206.15 312.35 206.0 312.2 205.9 312.15 205.9 Q311.9 205.6 312.0 205.35 L312.0 205.3 312.05 205.35 312.15 205.4 312.15 205.35 312.15 205.3 312.0 205.3 311.8 205.3 311.7 205.15 311.8 204.85 311.7 204.85 311.7 204.95 311.6 205.05 Q311.5 205.25 311.35 205.05 L311.3 204.95 Q311.3 204.85 311.5 204.85 L311.45 204.75 311.2 204.95 311.15 204.95 310.8 204.55 310.7 204.25 310.7 204.15 Q310.35 203.65 309.9 203.65 L309.35 203.3 308.65 203.0 308.3 202.85 307.65 202.4 306.95 201.95 306.9 201.9 307.55 202.0 307.6 202.0 307.5 201.9 Q307.0 201.7 306.5 201.45 L306.55 201.5 306.9 201.75 306.85 201.8 306.25 201.7 306.2 201.6 306.2 201.55 305.3 201.3 304.45 201.0 304.35 200.8 302.6 200.4 301.25 200.0 Q300.8 200.2 300.5 200.0 L300.25 200.0 300.05 199.95 299.55 199.7 299.15 199.8 296.8 199.65 296.0 199.55 294.55 199.7 294.45 199.75 293.85 199.65 293.7 199.55 293.75 199.65 293.8 199.7 292.4 200.05 Q292.2 200.25 292.1 200.05 L291.25 200.4 290.15 200.75 289.75 200.9 288.0 201.6 286.35 202.5 285.15 203.15 284.85 203.4 284.75 203.3 282.35 205.15 280.25 207.35 280.25 207.4 280.05 207.9 280.15 207.85 280.8 207.25 280.9 207.35 280.15 208.25 279.95 208.75 279.8 209.1 279.9 209.0 280.05 209.1 279.9 209.45 279.65 209.2 279.65 209.35 279.8 209.75 278.8 210.5 278.05 210.85 278.25 210.95 277.95 211.3 278.0 211.3 278.6 211.3 279.85 210.2 282.55 206.9 Q283.0 206.5 283.65 206.25 284.75 204.95 286.25 204.05 L287.5 203.4 289.95 202.4 Q293.6 201.2 297.7 201.4 302.3 201.7 305.95 203.75 L308.5 205.3 312.55 209.35 312.65 208.95 312.65 208.9 Q311.9 208.55 311.45 207.6 L310.7 206.7 309.35 205.6 308.95 205.25 308.7 205.15 308.65 205.15 Q309.25 204.65 309.6 205.25 L310.2 205.9 310.4 206.0 310.4 206.15 310.45 206.2 313.05 209.1 Q314.35 211.0 315.2 213.15 L315.4 213.75 315.4 214.05 315.7 214.85 315.7 215.1 Q315.7 215.5 315.95 215.6 L315.95 215.65 315.75 215.9 315.8 215.9 316.1 215.9 316.1 216.1 315.9 216.2 315.85 216.2 316.2 216.45 316.25 216.6 316.4 217.75 316.6 217.85 316.65 217.95 316.5 218.3 316.3 217.95 316.3 218.55 316.45 218.6 316.5 218.65 316.4 218.85 316.45 218.85 316.75 218.85 316.6 219.05 316.85 219.2 316.8 219.2 316.4 219.3 316.45 219.35 316.6 219.45 316.5 219.65 Q316.1 219.95 316.3 220.05 L316.1 221.6 316.15 221.9 316.1 222.15 316.05 222.4 314.6 229.4 313.45 233.0 313.05 233.55 312.75 233.85 Q312.55 233.3 313.0 232.75 L312.85 232.4 313.0 232.25 313.05 232.15 312.85 231.8 Q312.9 231.6 313.2 231.8 L313.65 229.9 313.65 229.85 313.45 230.05 312.45 232.0 312.15 232.25 312.1 232.4 311.35 233.15 311.25 233.15 311.2 232.95 Q311.2 232.65 311.5 232.4 L311.5 232.35 311.7 232.1 Q311.7 231.7 312.1 231.7 L312.45 230.8 313.0 230.25 313.95 228.0 314.2 227.2 Q315.3 222.5 314.65 217.45 L314.65 216.7 314.4 215.9 314.35 215.9 314.45 215.8 313.35 212.95 Q310.8 207.3 305.2 204.5 L304.75 204.25 304.1 204.0 304.0 203.75 301.7 202.95 297.45 202.3 297.2 202.3 293.55 202.6 293.25 202.75 293.2 202.75 291.95 202.95 Q290.55 203.35 289.25 203.95 L289.15 204.0 288.1 204.45 Q287.2 204.8 286.4 205.3 L285.0 206.4 284.05 207.3 Q285.55 205.95 287.25 204.95 L287.45 205.15 285.15 206.7 284.15 207.5 283.75 207.9 Q280.25 210.95 278.9 214.85 L278.15 217.2 277.8 219.55 277.9 219.85 277.7 222.05 277.8 223.1 Q278.1 227.85 279.95 232.1 L280.55 233.25 Q280.75 233.25 280.75 233.65 L281.9 234.95 Q281.75 235.3 282.2 235.6 L281.9 235.85 281.9 235.9 282.1 236.1 282.4 236.8 282.55 237.3 282.6 237.65 282.9 237.75 283.05 237.6 283.05 237.45 Q283.4 237.5 283.75 237.7 L284.65 237.85 284.65 237.9 284.75 238.0 285.35 238.05 285.4 238.3 285.25 238.6 285.25 238.65 285.5 238.65 285.5 238.6 285.4 238.45 285.85 238.5 285.95 238.7 285.85 238.8 Q285.6 239.05 285.75 239.45 L285.85 240.2 286.15 240.4 Q286.6 240.75 287.1 240.8 L286.9 240.5 286.85 240.5 286.8 240.45 286.9 240.35 287.25 240.55 287.35 240.8 287.15 241.1 287.2 241.1 Q287.45 241.1 287.5 241.3 L287.45 241.4 287.1 241.45 286.95 241.65 286.9 241.7 286.9 241.8 286.45 242.1 286.4 242.1 286.3 242.0 Q286.0 241.9 285.85 242.2 285.7 242.65 285.25 242.2 L284.4 242.3 284.85 242.95 284.85 242.75 285.6 243.3 Q285.35 243.65 284.75 243.3 L284.55 243.45 284.6 243.55 284.6 243.6 284.3 243.75 284.25 243.6 284.25 243.55 283.8 243.55 283.7 243.45 283.65 243.4 Q283.5 243.15 283.1 243.05 L283.1 243.3 283.4 243.3 284.8 244.25 286.4 244.85 286.4 244.75 286.35 244.65 286.25 244.75 284.65 243.5 284.6 243.45 284.75 243.4 284.75 243.45 Q285.05 244.05 285.5 243.55 L285.85 243.95 285.65 244.05 285.95 244.1 286.15 243.95 Q287.25 244.45 288.45 244.75 L288.75 245.2 288.9 245.2 289.0 245.3 288.9 245.4 289.0 245.4 289.85 245.5 290.1 245.5 290.85 245.6 Q295.15 246.3 299.45 245.5 L299.55 245.5 301.05 245.3 Q305.1 244.45 308.6 242.35 L309.25 241.9 309.05 241.85 309.05 241.8 Q310.15 240.8 311.5 240.0 L311.5 239.95 311.45 239.85 307.2 242.55 307.3 242.55 308.5 242.2 308.45 242.3 Q307.65 242.95 306.55 243.05 L306.5 243.1 306.55 243.1 306.5 243.15 305.9 243.4 306.1 243.25 306.1 243.2 Q301.7 245.05 296.55 245.05 L294.25 244.9 293.2 244.85 292.3 244.75 291.25 244.25 291.2 244.2 294.75 244.3 293.15 244.15 292.75 244.05 292.5 243.75 292.25 243.5 292.2 243.45 292.3 243.4 295.9 243.85 296.1 243.65 298.6 243.45 298.65 243.45 298.4 243.4 299.45 243.3 298.3 243.1 298.35 243.15 298.4 243.3 298.3 243.4 294.45 243.3 294.25 243.15 294.25 243.1 295.45 242.95 295.4 242.8 295.45 242.65 295.7 242.85 296.55 242.85 296.3 242.4 296.3 242.35 296.35 242.3 298.05 242.55 302.9 241.6 302.7 241.7 Q301.25 242.45 299.5 242.65 303.05 242.75 306.1 241.2 306.75 240.7 307.5 240.6 L307.45 240.55 307.65 240.35 309.15 239.6 Q309.25 239.15 309.75 239.25 L309.75 239.15 309.9 238.95 310.25 238.6 310.5 238.55 310.5 238.5 Q310.5 238.35 310.8 238.5 L310.7 238.25 Q310.9 238.15 311.0 238.35 L311.25 237.85 311.5 237.65 311.5 237.6 312.2 237.05 312.65 236.95 312.45 236.75 Q312.35 236.5 312.55 236.4 L313.35 236.3 313.25 236.25 313.25 236.2 Q313.35 235.95 313.75 235.85 L313.7 235.6 313.95 235.2 314.35 234.65 Q314.6 234.35 314.75 234.45 L314.65 234.2 Q314.95 233.75 315.4 233.45 315.5 232.95 315.75 232.75 L316.75 230.7 316.85 230.2 316.85 230.15 317.9 227.4 317.95 226.75 318.5 225.2 318.6 224.65 318.9 220.5 318.8 219.75 318.35 216.55 Q318.55 216.1 317.95 215.8 L317.7 215.3 317.8 214.85 318.05 215.5 317.95 214.95 317.45 214.15 317.65 214.05 317.6 213.95 317.45 213.35 Q317.25 213.55 317.15 213.35 L317.35 213.1 317.05 212.6 317.15 212.4 316.95 212.5 316.95 212.4 317.05 212.25 317.05 212.2 316.8 212.3 316.75 212.3 316.4 211.4 316.25 210.9 315.7 210.2 315.3 209.35 Q314.75 209.0 314.45 208.35 L314.15 207.95 M309.5 203.3 L309.5 203.15 308.8 202.7 308.05 202.3 309.5 203.3 M305.6 200.45 L305.65 200.45 304.85 200.1 305.6 200.45 M308.25 201.6 L308.4 201.65 307.0 201.0 307.1 201.2 308.25 201.6 M312.85 209.4 L312.85 209.35 312.55 209.35 312.55 209.4 312.75 209.65 313.35 210.25 312.85 209.55 312.85 209.4 M313.1 210.5 L313.1 210.6 313.35 210.75 313.35 210.6 313.1 210.5 M302.25 199.25 L302.05 199.15 301.85 199.15 295.8 198.8 302.25 199.25 M294.85 246.8 L294.35 246.75 288.65 246.15 Q289.1 246.7 289.95 246.7 L294.95 247.05 296.25 246.95 296.55 246.95 294.85 246.8 M297.9 243.05 L297.15 242.95 297.9 243.2 297.9 243.05 M302.35 243.35 L301.85 243.45 296.2 244.35 297.7 244.4 301.4 243.85 301.4 243.75 301.8 243.65 303.75 242.95 304.0 242.85 302.35 243.35 M296.2 244.35 L294.75 244.3 295.7 244.4 295.9 244.4 296.2 244.35 295.9 244.4 295.7 244.4 294.75 244.3 296.2 244.35 M300.25 244.45 L299.15 244.65 299.3 244.65 303.55 243.75 305.1 243.05 305.2 243.2 305.8 242.95 305.7 242.85 305.75 242.75 306.0 242.75 306.4 242.45 306.55 242.25 306.65 242.2 306.3 242.3 304.9 243.05 300.25 244.45 M316.55 233.25 L316.6 233.15 316.05 233.95 313.75 237.1 314.15 236.9 314.2 236.7 314.25 236.7 314.45 236.75 314.45 236.4 Q314.75 235.85 315.2 235.85 L315.2 235.7 315.2 235.5 315.3 235.6 Q315.3 235.15 315.7 234.95 L316.55 233.25 M313.2 237.75 L313.2 237.7 Q312.75 237.95 312.55 238.45 L312.6 238.45 312.65 238.5 Q312.85 237.85 313.2 237.75 M309.25 240.75 L309.4 240.9 310.2 240.5 310.25 240.45 310.0 240.45 Q309.4 240.35 309.25 240.7 L309.25 240.75 M312.45 238.65 L312.45 238.6 312.2 238.7 312.15 238.7 312.35 238.8 312.45 238.8 312.45 238.65 M311.7 239.15 L311.9 239.15 312.15 239.05 312.15 238.95 311.7 239.15 M311.65 239.05 L311.5 239.15 311.6 239.15 311.65 239.1 311.65 239.05 M312.1 239.45 L311.6 239.85 311.65 239.85 311.7 239.85 312.1 239.45 M278.45 214.85 L278.5 214.7 278.25 214.95 278.2 215.2 278.25 215.25 278.45 214.85 M277.95 216.35 L277.8 216.25 277.8 216.3 277.8 216.55 277.95 216.35 M277.9 216.0 L278.05 216.0 278.1 215.8 278.15 215.7 277.9 216.0 M276.95 221.15 L277.25 221.15 277.1 221.9 277.1 222.0 277.15 222.2 277.15 223.7 277.25 223.7 277.4 223.8 Q277.25 221.3 277.5 218.65 L277.25 218.95 277.2 220.8 277.15 221.05 276.95 221.15 M278.7 230.05 L279.0 230.25 Q277.7 227.1 277.4 223.85 L277.25 224.0 277.4 224.8 277.4 224.85 277.3 225.0 277.9 227.5 277.95 228.4 278.0 228.45 278.1 228.55 278.2 228.85 278.3 229.05 Q278.3 229.65 278.7 230.05" fill="url(#gradient0)" fill-rule="evenodd" stroke="none"/>
    <path d="M322.75 209.95 L322.65 210.0 322.55 210.0 322.75 209.9 322.75 209.95" fill="url(#gradient1)" fill-rule="evenodd" stroke="none"/>
    <path d="M325.4 221.95 L325.4 222.0 325.15 222.2 325.4 221.95 M325.3 222.9 L325.25 223.0 325.1 223.25 325.2 222.95 325.3 222.9 M310.1 246.35 L308.65 247.1 308.4 247.1 307.65 247.45 307.6 247.4 308.4 247.05 308.65 247.05 310.1 246.35 M307.65 247.55 L307.3 247.45 307.2 247.55 307.3 247.4 307.6 247.45 307.65 247.55 M306.1 248.05 L306.0 248.1 305.1 248.35 302.0 249.1 302.0 249.3 301.95 249.25 301.95 249.05 306.0 248.05 306.1 248.05 M301.8 249.15 L301.6 249.2 301.3 249.3 300.15 249.35 301.3 249.25 301.6 249.15 301.8 249.15 M296.55 249.75 L296.1 249.55 296.15 249.55 296.55 249.75 M296.4 249.45 L296.1 249.4 296.45 249.45 296.4 249.45 M291.95 248.2 L291.4 248.1 291.45 248.1 291.95 248.2 M291.7 247.9 Q290.35 247.75 289.25 247.1 L288.85 247.0 Q288.55 246.7 288.35 247.1 288.0 246.75 287.65 246.8 288.0 246.7 288.35 247.05 288.5 246.7 288.85 246.95 L289.25 247.05 Q290.35 247.7 291.7 247.9 M286.35 246.7 L284.65 246.25 284.6 246.2 286.35 246.7 M281.7 245.9 L280.35 244.95 Q279.9 244.35 279.15 244.25 L278.0 244.4 279.15 244.2 Q279.9 244.3 280.35 244.95 L280.55 245.05 281.7 245.9 M278.15 244.15 L277.8 243.6 277.8 243.55 278.15 244.1 278.15 244.15 M276.9 243.55 L276.9 243.6 276.45 243.35 276.9 243.55 M276.45 243.3 L276.4 243.25 276.25 243.05 276.4 243.2 276.45 243.3 M276.05 242.55 L275.3 241.4 274.95 241.3 275.3 241.35 276.05 242.55 M274.75 241.55 L274.45 241.5 274.4 241.8 274.4 241.85 274.0 241.5 274.05 241.5 274.4 241.8 274.45 241.45 274.75 241.55 M274.1 241.25 L273.9 240.85 Q273.75 240.75 273.45 241.0 L273.55 240.9 Q273.75 240.7 273.9 240.8 L274.1 241.25 M273.65 240.75 Q272.3 240.0 271.9 238.55 L271.15 238.0 270.8 237.15 270.8 237.1 271.15 237.95 271.9 238.5 Q272.3 239.95 273.65 240.7 L273.65 240.75 M269.85 237.5 L269.7 237.25 269.75 237.25 269.85 237.5 M269.95 236.2 L269.85 235.8 269.9 235.8 269.95 236.2 M270.05 235.6 L269.7 235.4 269.75 235.4 270.05 235.6 M268.55 231.6 L268.5 231.65 268.3 231.3 268.5 231.6 268.55 231.6 M268.3 227.1 L268.2 226.85 268.1 226.85 268.15 226.8 268.2 226.8 268.3 227.1 M268.3 226.2 L268.2 225.85 268.05 225.55 268.2 225.8 268.3 226.2 M267.95 222.6 L267.85 222.25 267.6 222.25 267.85 222.2 267.95 222.6 M281.85 198.45 L281.6 198.65 281.5 198.7 281.85 198.45 M284.6 197.1 L283.65 197.35 283.75 197.3 284.65 197.05 284.6 197.1 M313.8 199.7 L314.7 200.4 314.9 200.5 314.65 200.4 313.8 199.7 M318.05 203.85 L318.55 204.4 318.5 204.4 318.05 203.85 M318.85 204.75 L318.9 204.8 318.9 204.85 319.6 205.7 318.85 204.85 318.85 204.75 M324.2 214.5 L324.05 214.15 324.1 214.15 324.2 214.5 M314.45 207.9 Q314.05 207.45 313.65 207.55 L313.5 207.15 313.65 207.5 Q314.1 207.4 314.45 207.9 M313.1 206.35 L313.0 206.2 312.35 206.0 313.0 206.15 313.1 206.35 M312.0 205.35 L311.8 205.35 311.7 205.15 311.8 205.3 312.0 205.3 312.15 205.3 312.15 205.35 312.05 205.35 312.0 205.3 312.0 205.35 M311.5 204.85 L311.45 204.8 311.2 204.95 311.45 204.75 311.5 204.85 M310.7 204.15 Q310.35 203.7 309.9 203.7 L309.35 203.35 308.65 203.0 309.35 203.3 309.9 203.65 Q310.35 203.65 310.7 204.15 M307.65 202.4 L306.9 201.95 306.95 201.95 307.65 202.4 M307.55 202.0 L307.5 201.95 306.55 201.5 306.5 201.45 Q307.0 201.7 307.5 201.9 L307.6 202.0 307.55 202.0 M306.9 201.75 L306.85 201.85 306.25 201.7 306.85 201.8 306.9 201.75 M306.2 201.6 L305.3 201.3 306.2 201.55 306.2 201.6 M304.45 201.0 L304.35 200.85 302.6 200.4 304.35 200.8 304.45 201.0 M300.05 199.95 L299.55 199.75 299.15 199.85 296.8 199.65 299.15 199.8 299.55 199.7 300.05 199.95 M296.0 199.55 L294.55 199.75 294.45 199.75 294.55 199.7 296.0 199.55 M293.85 199.65 L293.75 199.65 293.7 199.55 293.85 199.65 M293.8 199.7 L293.8 199.75 292.4 200.1 292.1 200.1 291.25 200.4 292.1 200.05 Q292.2 200.25 292.4 200.05 L293.8 199.7 M290.15 200.75 L288.0 201.6 289.75 200.9 290.15 200.75 M286.35 202.55 L286.35 202.6 286.25 202.7 286.3 202.6 286.35 202.55 M285.15 203.15 L284.85 203.45 284.75 203.35 282.35 205.15 284.75 203.3 284.85 203.4 285.15 203.15 M280.25 207.4 L280.15 207.85 280.05 207.9 280.25 207.4 M280.9 207.35 L280.15 208.3 279.95 208.75 280.15 208.25 280.9 207.35 M280.05 209.1 L280.1 209.1 279.9 209.45 280.05 209.1 M278.25 210.95 L278.0 211.3 277.95 211.3 278.25 210.95 M312.65 208.95 Q311.9 208.55 311.45 207.65 L310.7 206.7 311.45 207.6 Q311.9 208.55 312.65 208.9 L312.65 208.95 M308.95 205.25 L308.65 205.15 308.7 205.15 308.95 205.25 M310.2 205.9 L310.45 206.0 310.45 206.2 310.4 206.15 310.4 206.0 310.2 205.9 M315.95 215.65 L315.8 215.9 315.75 215.9 315.95 215.65 M316.5 218.65 L316.45 218.85 316.4 218.85 316.5 218.65 M316.75 218.85 L316.8 218.85 316.6 219.05 316.75 218.85 M316.8 219.2 L316.85 219.25 316.45 219.35 316.4 219.3 316.8 219.2 M316.1 222.15 L316.05 222.45 314.6 229.45 313.45 233.05 313.05 233.55 313.45 233.0 314.6 229.4 316.05 222.4 316.1 222.15 M313.65 229.9 L313.45 230.05 313.65 229.85 313.65 229.9 M312.45 232.0 L312.1 232.4 312.15 232.25 312.45 232.0 M311.35 233.15 L311.25 233.2 311.2 232.95 311.25 233.15 311.35 233.15 M314.65 216.7 L314.35 215.9 314.4 215.9 314.65 216.7 M304.1 204.0 L304.0 203.8 301.7 202.95 304.0 203.75 304.1 204.0 M288.1 204.45 L286.45 205.35 Q285.65 205.85 285.0 206.4 L286.4 205.3 Q287.2 204.8 288.1 204.45 M285.15 206.7 L284.15 207.55 283.75 207.95 Q280.25 210.95 278.9 214.9 L278.15 217.2 278.9 214.85 Q280.25 210.95 283.75 207.9 L284.15 207.5 285.15 206.7 M282.2 235.6 L281.9 235.9 281.9 235.85 282.2 235.6 M282.4 236.8 L282.6 237.3 282.6 237.65 282.55 237.3 282.4 236.8 M283.05 237.6 L283.0 237.4 283.05 237.4 283.05 237.45 283.05 237.6 M284.65 237.9 L284.7 237.9 284.75 238.0 284.65 237.9 M285.4 238.3 L285.25 238.65 285.25 238.6 285.4 238.3 M285.5 238.65 L285.4 238.45 285.5 238.6 285.5 238.65 M287.35 240.8 L287.2 241.1 287.15 241.1 287.35 240.8 M287.45 241.4 L287.1 241.5 286.95 241.65 287.1 241.45 287.45 241.4 M286.9 241.8 L286.9 241.85 286.45 242.1 286.9 241.8 M284.6 243.6 L284.35 243.75 284.3 243.75 284.6 243.6 M284.25 243.6 L283.8 243.55 284.25 243.55 284.25 243.6 M286.4 244.75 L286.35 244.7 286.25 244.75 285.35 244.1 284.6 243.5 284.65 243.5 286.25 244.75 286.35 244.65 286.4 244.75 M285.25 244.15 L285.35 244.15 285.15 244.25 285.15 244.2 285.25 244.15 M289.0 245.3 L289.0 245.4 288.9 245.4 289.0 245.3 M311.5 240.0 L311.45 239.9 307.3 242.55 307.2 242.55 311.45 239.85 311.5 239.95 311.5 240.0 M306.5 243.15 L306.55 243.15 305.9 243.4 306.5 243.15 M306.1 243.25 Q301.65 245.1 296.55 245.1 L294.25 244.9 296.55 245.05 Q301.7 245.05 306.1 243.2 L306.1 243.25 M292.3 244.75 Q291.6 244.6 291.2 244.25 L291.25 244.25 292.3 244.75 M292.5 243.75 L292.2 243.5 292.25 243.5 292.5 243.75 M298.6 243.45 L298.4 243.4 298.65 243.45 298.6 243.45 M299.45 243.3 L298.35 243.15 298.3 243.1 299.45 243.3 M302.7 241.7 L302.9 241.65 Q301.3 242.5 299.5 242.65 301.25 242.45 302.7 241.7 M317.65 214.05 L317.6 214.0 317.6 213.95 317.65 214.05 M317.05 212.25 L316.8 212.3 317.05 212.2 317.05 212.25 M315.7 210.2 L315.3 209.4 Q314.75 209.05 314.45 208.4 L314.15 207.95 314.45 208.35 Q314.75 209.0 315.3 209.35 L315.7 210.2 M322.75 209.95 L322.65 210.05 322.55 210.05 322.55 210.0 322.65 210.0 322.75 209.95 M310.55 204.1 L310.6 204.15 310.25 203.95 310.55 204.1 M305.6 200.45 L304.85 200.1 305.65 200.45 305.6 200.45 M292.55 200.8 L294.95 200.7 294.65 200.75 292.5 200.85 292.55 200.8 M294.3 200.9 L296.65 200.7 296.65 200.75 294.25 200.95 294.3 200.9 M296.65 200.8 L296.7 200.7 298.3 200.9 299.55 201.25 298.3 200.95 296.7 200.75 296.65 200.85 296.65 200.8 M300.3 201.3 L301.4 201.45 301.5 201.65 302.25 201.65 302.85 202.0 302.25 201.7 301.5 201.7 301.5 201.65 301.4 201.5 300.3 201.3 M303.65 202.1 L304.45 202.55 304.5 202.55 304.45 202.6 303.65 202.1 M305.5 203.05 L304.75 202.7 304.8 202.7 305.5 203.05 M307.0 201.0 L308.4 201.65 308.25 201.6 307.0 201.0 M307.5 203.85 L306.55 203.6 306.4 203.5 307.5 203.85 M307.85 204.45 L307.75 204.45 307.75 204.4 307.85 204.45 M312.55 209.4 L312.55 209.35 312.85 209.35 312.85 209.4 312.55 209.4 M315.55 210.4 L315.6 210.4 315.4 210.5 315.55 210.4 M317.8 216.85 L317.7 216.4 317.75 216.4 317.8 216.85 M318.45 218.65 L318.55 218.75 318.45 218.85 318.5 218.75 318.45 218.65 M318.5 219.35 L318.55 219.35 318.55 219.5 318.35 219.5 318.25 219.75 318.35 219.45 318.5 219.45 318.5 219.35 M318.5 220.85 L318.55 220.9 318.25 221.1 318.25 221.05 318.5 220.85 M318.55 221.4 L318.55 221.8 318.45 222.05 318.45 222.1 318.25 222.15 318.45 222.05 318.55 221.4 M318.35 222.3 L318.55 222.35 318.15 222.35 318.15 222.3 318.35 222.3 M316.75 221.1 L316.7 221.05 316.75 221.05 316.75 221.1 M318.1 222.85 L318.1 223.1 318.05 222.85 318.1 222.85 M317.95 223.45 L318.0 223.45 318.1 223.6 317.95 223.45 M318.2 223.05 L318.15 223.05 318.45 222.75 318.2 223.05 M302.25 199.25 L302.05 199.2 301.85 199.15 302.05 199.15 302.25 199.25 M303.2 201.2 L303.25 201.3 303.15 201.2 303.2 201.2 M295.6 202.55 L295.6 202.6 295.55 202.6 295.55 202.55 295.6 202.55 M289.95 201.6 L290.0 201.6 286.9 202.7 287.05 202.6 289.95 201.6 M289.45 201.6 L289.25 201.6 289.35 201.5 289.45 201.55 289.45 201.6 M283.05 205.35 L283.1 205.4 283.95 204.65 283.1 205.45 283.0 205.35 283.05 205.35 M284.6 237.4 L284.4 237.25 284.25 237.3 284.4 237.2 284.6 237.4 M284.95 237.5 L285.1 237.4 285.15 237.4 284.95 237.5 M285.9 243.15 L285.95 243.3 285.85 243.15 285.9 243.15 M288.2 243.45 L288.25 243.5 285.95 242.6 285.95 242.55 288.2 243.45 M288.65 243.55 L288.75 243.6 288.45 243.6 288.45 243.55 288.65 243.55 M285.75 243.55 L285.75 243.6 285.65 243.45 285.75 243.55 M285.0 243.6 L285.15 243.55 285.15 243.6 285.0 243.6 M292.05 243.45 L292.05 243.5 291.95 243.4 292.05 243.45 M290.05 242.75 L289.0 242.6 289.15 242.6 290.05 242.75 M289.45 243.45 L289.45 243.5 289.35 243.5 289.35 243.45 289.45 243.45 M288.95 243.8 L288.95 243.75 289.0 243.75 288.95 243.85 288.95 243.8 M296.25 246.95 L294.85 246.8 296.55 246.95 296.25 246.95 M302.85 239.35 L302.7 239.65 302.5 239.55 302.7 239.6 302.85 239.35 M303.75 242.95 L302.35 243.35 304.0 242.85 303.75 242.95 M305.0 240.9 L305.2 240.85 304.5 241.2 305.0 240.9 M300.25 244.45 L299.3 244.65 299.15 244.65 300.25 244.45 M306.55 242.25 L306.3 242.3 306.65 242.2 306.55 242.25 M317.8 226.2 L317.55 226.6 317.5 226.55 317.8 226.2 M317.6 224.05 L317.65 224.05 317.7 224.1 317.6 224.1 317.6 224.05 M316.75 229.4 Q316.6 229.25 316.8 228.95 L316.85 228.95 Q316.6 229.2 316.75 229.4 L316.8 229.45 315.95 231.1 315.9 231.05 315.95 231.05 316.75 229.4 M316.1 230.2 L316.1 230.25 316.05 230.2 316.1 230.2 M315.55 231.9 L315.6 231.8 315.3 232.55 315.0 232.85 315.3 232.5 315.55 231.9 M315.85 231.35 L315.7 231.65 315.6 231.65 315.6 231.6 315.7 231.6 315.85 231.35 M314.2 234.35 L314.2 234.4 314.1 234.4 314.1 234.35 314.2 234.35 M316.05 233.95 L316.6 233.15 316.55 233.25 316.05 233.95 M306.25 237.8 L304.35 238.9 304.35 238.85 306.25 237.8 M309.25 238.45 L309.35 238.35 309.4 238.35 308.95 238.7 309.25 238.45 M310.2 240.5 L310.0 240.5 Q309.45 240.4 309.25 240.75 L309.25 240.7 Q309.4 240.35 310.0 240.45 L310.25 240.45 310.2 240.5 M312.35 238.8 L312.15 238.7 312.2 238.7 312.45 238.6 312.45 238.65 312.2 238.7 312.35 238.8 M311.7 239.15 L312.15 238.95 312.15 239.05 311.7 239.15 M311.65 239.85 L311.6 239.85 312.1 239.45 311.65 239.85 M303.95 238.7 L304.1 238.8 303.8 239.15 304.05 238.8 303.95 238.7 M282.65 206.0 L282.5 206.1 282.5 206.05 282.65 206.0 M282.4 206.0 L282.0 206.3 282.05 206.25 282.4 206.0 M281.15 207.05 L281.1 207.2 280.9 207.2 280.95 207.15 281.1 207.15 281.15 207.05 M278.2 215.2 L278.25 214.95 278.5 214.7 278.45 214.85 278.25 215.0 278.2 215.2 M277.8 216.3 L277.8 216.25 277.95 216.35 277.8 216.3 M277.9 216.0 L278.15 215.7 278.1 215.8 277.9 216.0 M276.95 221.15 L277.15 221.05 277.15 221.1 276.95 221.15 M278.7 230.05 Q278.3 229.65 278.3 229.05 L278.2 228.85 278.35 229.05 Q278.35 229.65 278.7 230.05 M278.0 228.45 L277.95 228.4 277.9 227.5 278.0 228.45 M267.5 226.95 L267.4 227.05 267.4 227.0 267.5 226.95 M266.95 232.05 L267.05 232.1 267.05 232.2 266.65 232.1 267.0 232.15 267.0 232.1 266.95 232.05 M268.05 232.25 L268.05 232.3 267.7 231.9 267.4 232.2 267.45 232.1 267.7 231.9 268.05 232.25 M269.3 239.5 L269.6 239.15 269.3 239.55 269.3 239.5 M270.7 240.75 L270.55 240.85 270.55 240.8 270.7 240.75 M271.8 238.85 L271.8 238.9 271.55 239.0 271.55 238.95 271.8 238.85 M271.7 239.5 L271.8 239.5 271.85 239.4 271.8 239.55 271.7 239.55 271.7 239.5 M271.65 239.95 L271.8 239.85 271.85 239.8 271.8 239.9 271.65 240.0 271.65 239.95 M283.6 236.5 L283.4 236.9 283.4 236.85 283.6 236.5 M276.4 244.3 L276.4 244.35 275.75 244.15 275.65 243.95 275.7 243.95 275.75 244.1 Q276.05 244.4 276.4 244.3 M275.55 241.9 L275.4 241.75 275.45 241.75 275.55 241.9 M278.1 244.6 L278.25 244.75 278.05 244.6 278.1 244.6 M290.2 249.05 L290.45 249.15 290.55 249.2 290.2 249.1 290.2 249.05" fill="url(#gradient2)" fill-rule="evenodd" stroke="none"/>
    <path d="M310.25 203.95 L310.15 203.85 310.5 204.05 310.55 204.1 310.25 203.95" fill="url(#gradient3)" fill-rule="evenodd" stroke="none"/>
    <path d="M307.75 204.4 L307.8 204.3 Q307.8 204.05 307.4 204.15 L307.5 203.85 306.4 203.5 Q307.1 203.3 307.75 203.95 L307.75 204.15 308.95 204.75 308.95 204.8 Q308.75 205.15 308.5 204.95 L308.25 204.7 Q308.05 204.5 307.85 204.45 L307.75 204.4" fill="url(#gradient4)" fill-rule="evenodd" stroke="none"/>
    <path d="M315.4 210.5 L315.4 210.3 315.55 210.4 315.4 210.5" fill="url(#gradient5)" fill-rule="evenodd" stroke="none"/>
    <path d="M292.55 200.8 L293.45 200.7 293.45 200.65 295.8 200.4 296.0 200.55 297.1 200.55 297.7 200.4 297.7 200.45 301.95 201.3 302.0 201.3 302.0 201.4 302.8 201.55 Q303.65 201.55 304.0 202.2 L304.75 202.3 304.75 202.35 304.5 202.55 304.45 202.55 303.65 202.1 303.15 202.1 302.9 202.0 302.85 202.0 302.25 201.65 301.5 201.65 301.4 201.45 300.3 201.3 299.55 201.25 298.3 200.9 296.7 200.7 296.65 200.8 296.65 200.75 296.65 200.7 294.3 200.9 294.25 200.9 294.65 200.75 294.95 200.7 292.55 200.8" fill="url(#gradient6)" fill-rule="evenodd" stroke="none"/>
    <path d="M303.25 201.3 L303.2 201.2 303.25 201.2 303.25 201.3" fill="url(#gradient7)" fill-rule="evenodd" stroke="none"/>
    <path d="M301.95 200.9 L302.05 200.9 302.05 201.0 301.95 200.9" fill="url(#gradient8)" fill-rule="evenodd" stroke="none"/>
    <path d="M303.7 201.3 L303.8 201.4 303.65 201.4 303.7 201.3" fill="url(#gradient9)" fill-rule="evenodd" stroke="none"/>
    <path d="M305.4 201.95 L305.1 201.8 305.65 202.0 305.75 202.1 305.45 202.0 305.4 201.95" fill="url(#gradient10)" fill-rule="evenodd" stroke="none"/>
    <path d="M295.6 202.55 L295.55 202.55 295.55 202.5 295.6 202.5 295.6 202.55" fill="url(#gradient11)" fill-rule="evenodd" stroke="none"/>
    <path d="M304.8 202.7 L304.75 202.65 Q305.5 202.5 306.2 202.95 L305.5 203.05 304.8 202.7" fill="url(#gradient12)" fill-rule="evenodd" stroke="none"/>
    <path d="M301.55 203.05 L301.6 203.15 301.4 203.15 301.4 202.95 301.55 203.05" fill="url(#gradient13)" fill-rule="evenodd" stroke="none"/>
    <path d="M317.15 213.15 L317.05 212.95 317.15 213.05 317.15 213.15" fill="url(#gradient14)" fill-rule="evenodd" stroke="none"/>
    <path d="M316.75 213.25 L316.85 213.25 316.85 213.35 316.75 213.25" fill="url(#gradient15)" fill-rule="evenodd" stroke="none"/>
    <path d="M317.95 215.9 L318.15 216.2 317.95 216.0 317.95 215.9" fill="url(#gradient16)" fill-rule="evenodd" stroke="none"/>
    <path d="M317.8 216.85 L317.75 216.4 318.05 217.2 318.25 217.1 318.35 217.35 318.35 217.65 318.15 217.55 318.25 217.3 318.05 217.3 317.95 217.55 317.8 216.85" fill="url(#gradient17)" fill-rule="evenodd" stroke="none"/>
    <path d="M318.45 218.85 L318.35 218.5 318.35 218.45 318.45 218.45 318.45 218.65 318.5 218.75 318.45 218.85" fill="url(#gradient18)" fill-rule="evenodd" stroke="none"/>
    <path d="M318.15 222.3 L318.05 218.65 318.15 218.45 318.15 218.5 318.25 219.0 318.5 219.3 318.5 219.35 318.5 219.45 318.35 219.45 318.25 219.75 318.35 220.05 318.45 220.1 318.45 220.15 Q318.3 220.2 318.3 220.45 L318.35 220.7 318.5 220.85 318.25 221.05 318.25 221.1 318.55 221.4 318.45 222.05 318.25 222.15 318.25 222.2 318.5 222.3 318.35 222.3 318.15 222.3" fill="url(#gradient19)" fill-rule="evenodd" stroke="none"/>
    <path d="M318.1 222.85 L318.05 222.8 318.15 222.8 318.15 222.6 318.45 222.7 318.45 222.75 318.15 223.05 318.2 223.05 318.3 223.25 318.15 223.55 318.1 223.6 318.0 223.45 317.95 223.45 318.1 223.1 318.1 222.85" fill="url(#gradient20)" fill-rule="evenodd" stroke="none"/>
    <path d="M316.7 221.05 L316.5 220.85 316.4 220.2 316.5 219.95 316.6 220.1 316.6 220.15 316.5 220.3 316.5 220.35 Q316.5 220.8 316.85 220.95 L316.85 221.0 316.8 221.35 316.7 221.7 316.5 221.55 316.5 221.3 316.75 221.1 316.75 221.05 316.7 221.05" fill="url(#gradient21)" fill-rule="evenodd" stroke="none"/>
    <path d="M316.85 222.3 L316.85 222.35 316.7 224.65 Q316.4 224.45 316.5 224.0 L316.6 223.9 316.5 221.9 316.85 222.3" fill="url(#gradient22)" fill-rule="evenodd" stroke="none"/>
    <path d="M316.4 226.3 L316.5 226.3 316.5 226.4 316.4 226.4 316.4 226.3" fill="url(#gradient23)" fill-rule="evenodd" stroke="none"/>
    <path d="M317.55 226.6 L317.6 226.85 317.45 227.1 Q317.15 227.3 317.5 227.5 L317.25 227.85 317.35 228.15 317.25 228.05 317.25 228.1 316.8 228.65 316.75 228.65 317.35 227.0 317.9 224.85 317.8 224.55 318.05 223.7 318.05 223.75 Q318.15 224.65 317.85 225.4 L317.75 225.9 317.8 226.2 317.5 226.55 317.55 226.6" fill="url(#gradient24)" fill-rule="evenodd" stroke="none"/>
    <path d="M317.65 224.05 L317.6 224.05 317.6 224.0 317.7 224.05 317.65 224.05" fill="url(#gradient25)" fill-rule="evenodd" stroke="none"/>
    <path d="M289.35 201.5 L289.65 201.2 289.65 201.45 290.0 201.55 289.95 201.6 287.05 202.6 286.9 202.65 Q288.1 202.0 289.45 201.6 L289.45 201.55 289.35 201.5" fill="url(#gradient26)" fill-rule="evenodd" stroke="none"/>
    <path d="M290.3 201.4 L290.3 201.2 291.0 200.8 Q291.5 200.8 291.7 201.1 L291.65 201.1 291.5 201.0 Q291.3 201.3 290.95 201.3 L290.85 201.1 Q290.65 201.5 290.3 201.4" fill="url(#gradient27)" fill-rule="evenodd" stroke="none"/>
    <path d="M286.35 202.5 L286.35 202.55 286.3 202.6 286.25 202.65 286.35 202.5" fill="url(#gradient28)" fill-rule="evenodd" stroke="none"/>
    <path d="M283.05 205.35 L283.0 205.3 Q283.95 204.4 285.05 203.75 L283.95 204.65 283.1 205.4 283.05 205.35" fill="url(#gradient29)" fill-rule="evenodd" stroke="none"/>
    <path d="M284.25 204.85 L284.15 204.95 284.25 204.65 284.25 204.85" fill="url(#gradient30)" fill-rule="evenodd" stroke="none"/>
    <path d="M282.05 206.25 L282.0 206.25 Q282.2 205.8 282.65 205.6 L282.65 206.0 282.5 206.05 282.5 205.9 282.4 206.0 282.05 206.25" fill="url(#gradient31)" fill-rule="evenodd" stroke="none"/>
    <path d="M281.5 206.7 L281.4 206.8 281.35 206.8 281.5 206.6 281.5 206.7" fill="url(#gradient32)" fill-rule="evenodd" stroke="none"/>
    <path d="M280.95 207.15 L280.9 207.15 281.15 206.9 281.15 207.05 281.1 207.15 280.95 207.15" fill="url(#gradient33)" fill-rule="evenodd" stroke="none"/>
    <path d="M266.2 227.3 L266.2 227.5 266.1 227.5 266.1 227.3 266.2 227.3" fill="url(#gradient34)" fill-rule="evenodd" stroke="none"/>
    <path d="M267.85 226.0 L267.75 226.4 267.6 226.55 267.85 225.9 267.85 226.0" fill="url(#gradient35)" fill-rule="evenodd" stroke="none"/>
    <path d="M267.4 227.0 L267.4 226.8 267.5 226.9 267.5 226.95 267.4 227.0" fill="url(#gradient36)" fill-rule="evenodd" stroke="none"/>
    <path d="M283.7 235.25 L283.75 235.1 283.85 235.3 283.75 235.3 283.7 235.25" fill="url(#gradient37)" fill-rule="evenodd" stroke="none"/>
    <path d="M285.15 237.4 L285.1 237.4 284.95 237.5 284.95 237.3 285.15 237.4" fill="url(#gradient38)" fill-rule="evenodd" stroke="none"/>
    <path d="M284.05 236.95 L284.3 236.75 284.25 236.55 284.05 236.4 283.85 236.4 284.3 236.2 284.35 236.25 284.6 237.4 284.4 237.2 284.25 237.3 284.05 236.95" fill="url(#gradient39)" fill-rule="evenodd" stroke="none"/>
    <path d="M283.4 236.85 L283.4 236.4 283.6 236.5 283.4 236.85" fill="url(#gradient40)" fill-rule="evenodd" stroke="none"/>
    <path d="M283.95 236.75 L283.65 236.7 283.95 236.7 283.95 236.75" fill="url(#gradient41)" fill-rule="evenodd" stroke="none"/>
    <path d="M284.05 236.95 L283.75 236.95 283.95 236.8 284.05 236.95" fill="url(#gradient42)" fill-rule="evenodd" stroke="none"/>
    <path d="M285.95 242.55 L285.95 242.45 288.1 243.3 288.25 243.45 288.2 243.45 285.95 242.55" fill="url(#gradient43)" fill-rule="evenodd" stroke="none"/>
    <path d="M285.15 243.55 L285.0 243.6 284.95 243.55 285.05 243.45 285.15 243.55" fill="url(#gradient44)" fill-rule="evenodd" stroke="none"/>
    <path d="M285.65 243.45 L285.7 243.4 Q285.75 243.3 285.95 243.3 L286.05 243.4 285.75 243.4 285.75 243.55 285.65 243.45" fill="url(#gradient45)" fill-rule="evenodd" stroke="none"/>
    <path d="M285.9 243.15 L285.85 243.1 286.05 243.2 286.05 243.25 285.95 243.3 285.9 243.15" fill="url(#gradient46)" fill-rule="evenodd" stroke="none"/>
    <path d="M289.15 242.6 L289.0 242.55 289.95 242.65 290.1 242.75 290.85 242.85 290.55 242.85 290.05 242.75 289.15 242.6" fill="url(#gradient47)" fill-rule="evenodd" stroke="none"/>
    <path d="M288.45 243.55 L288.45 243.45 288.75 243.55 288.65 243.55 288.45 243.55" fill="url(#gradient48)" fill-rule="evenodd" stroke="none"/>
    <path d="M288.95 243.75 L288.95 243.8 288.9 243.85 288.9 243.75 288.95 243.75" fill="url(#gradient49)" fill-rule="evenodd" stroke="none"/>
    <path d="M289.35 243.45 L289.35 243.3 289.45 243.4 289.45 243.45 289.35 243.45" fill="url(#gradient50)" fill-rule="evenodd" stroke="none"/>
    <path d="M289.25 243.75 L289.35 243.85 289.25 243.95 289.25 243.75" fill="url(#gradient51)" fill-rule="evenodd" stroke="none"/>
    <path d="M289.65 243.95 L289.55 243.95 289.55 243.85 289.65 243.95" fill="url(#gradient52)" fill-rule="evenodd" stroke="none"/>
    <path d="M291.4 243.3 L291.6 243.3 291.6 243.4 291.4 243.3" fill="url(#gradient53)" fill-rule="evenodd" stroke="none"/>
    <path d="M292.05 243.45 L291.95 243.4 292.05 243.4 292.05 243.45" fill="url(#gradient54)" fill-rule="evenodd" stroke="none"/>
    <path d="M267.45 232.1 L267.4 232.15 267.6 231.4 268.05 232.25 267.7 231.9 267.45 232.1" fill="url(#gradient55)" fill-rule="evenodd" stroke="none"/>
    <path d="M268.85 232.45 L268.5 232.35 268.8 232.35 268.6 232.0 268.95 232.25 268.95 232.3 268.85 232.45" fill="url(#gradient56)" fill-rule="evenodd" stroke="none"/>
    <path d="M266.95 232.05 L267.0 232.1 267.0 232.15 266.65 232.1 266.75 231.9 266.95 232.05" fill="url(#gradient57)" fill-rule="evenodd" stroke="none"/>
    <path d="M269.7 234.1 L269.7 234.2 269.6 234.2 269.6 234.1 269.7 234.1" fill="url(#gradient58)" fill-rule="evenodd" stroke="none"/>
    <path d="M269.3 239.5 L269.3 239.15 Q269.5 239.0 269.6 239.15 L269.3 239.5" fill="url(#gradient59)" fill-rule="evenodd" stroke="none"/>
    <path d="M271.55 238.95 L271.55 238.7 271.8 238.85 271.55 238.95" fill="url(#gradient60)" fill-rule="evenodd" stroke="none"/>
    <path d="M271.85 239.4 L271.8 239.5 271.7 239.5 271.7 239.15 271.85 239.4" fill="url(#gradient61)" fill-rule="evenodd" stroke="none"/>
    <path d="M271.65 239.95 L271.6 239.95 271.6 239.7 271.85 239.8 271.8 239.85 271.65 239.95" fill="url(#gradient62)" fill-rule="evenodd" stroke="none"/>
    <path d="M270.55 240.8 L270.55 240.7 270.7 240.7 270.7 240.75 270.55 240.8" fill="url(#gradient63)" fill-rule="evenodd" stroke="none"/>
    <path d="M275.45 241.75 L275.4 241.7 275.45 241.7 275.5 241.75 275.55 241.9 275.45 241.75" fill="url(#gradient64)" fill-rule="evenodd" stroke="none"/>
    <path d="M274.4 242.0 L274.4 242.2 274.3 242.0 274.4 242.0" fill="url(#gradient65)" fill-rule="evenodd" stroke="none"/>
    <path d="M275.95 242.95 L276.05 242.95 276.05 243.05 275.95 243.1 275.95 242.95" fill="url(#gradient66)" fill-rule="evenodd" stroke="none"/>
    <path d="M278.25 244.75 L278.1 244.6 278.05 244.55 278.25 244.65 278.25 244.75" fill="url(#gradient67)" fill-rule="evenodd" stroke="none"/>
    <path d="M275.7 243.95 Q276.15 244.05 276.4 244.3 276.05 244.4 275.75 244.1 L275.7 243.95" fill="url(#gradient68)" fill-rule="evenodd" stroke="none"/>
    <path d="M289.95 243.95 L290.1 244.05 289.95 244.05 289.95 243.95" fill="url(#gradient69)" fill-rule="evenodd" stroke="none"/>
    <path d="M295.8 249.35 L296.0 249.75 291.2 249.35 291.1 249.0 295.8 249.45 295.8 249.35" fill="url(#gradient70)" fill-rule="evenodd" stroke="none"/>
    <path d="M290.45 249.15 L290.2 249.05 290.2 249.0 290.55 249.15 290.45 249.15" fill="url(#gradient71)" fill-rule="evenodd" stroke="none"/>
    <path d="M285.35 244.1 L285.25 244.15 285.15 244.2 285.15 244.1 285.35 244.1" fill="url(#gradient72)" fill-rule="evenodd" stroke="none"/>
    <path d="M316.85 228.95 L316.8 228.95 Q316.6 229.25 316.75 229.4 L315.95 231.05 315.9 231.05 315.65 231.05 315.6 231.05 Q315.7 230.55 316.1 230.25 L316.1 230.2 316.05 230.15 316.6 229.25 316.7 228.85 316.85 228.95" fill="url(#gradient73)" fill-rule="evenodd" stroke="none"/>
    <path d="M315.2 231.9 L315.0 231.9 315.5 231.35 315.2 231.9" fill="url(#gradient74)" fill-rule="evenodd" stroke="none"/>
    <path d="M315.6 231.6 L315.85 231.35 315.7 231.6 315.6 231.6" fill="url(#gradient75)" fill-rule="evenodd" stroke="none"/>
    <path d="M315.0 232.85 L315.55 231.9 315.3 232.5 315.0 232.85" fill="url(#gradient76)" fill-rule="evenodd" stroke="none"/>
    <path d="M314.1 234.35 L314.2 234.2 314.2 234.35 314.1 234.35" fill="url(#gradient77)" fill-rule="evenodd" stroke="none"/>
    <path d="M311.25 233.25 L311.25 233.3 309.9 234.55 310.0 234.35 310.5 233.85 311.1 233.15 311.25 233.25 M304.35 238.85 Q304.35 238.45 304.9 238.35 L305.0 238.35 305.4 238.05 305.5 238.15 309.4 234.85 309.35 234.75 309.7 234.7 306.25 237.8 304.35 238.85" fill="url(#gradient78)" fill-rule="evenodd" stroke="none"/>
    <path d="M313.55 234.2 L311.1 236.95 310.9 236.95 313.45 234.2 313.55 234.2" fill="url(#gradient79)" fill-rule="evenodd" stroke="none"/>
    <path d="M313.25 235.5 L313.45 235.4 313.35 235.5 313.25 235.5" fill="url(#gradient80)" fill-rule="evenodd" stroke="none"/>
    <path d="M310.0 237.85 L310.8 237.05 310.9 237.05 310.05 237.85 310.0 237.85" fill="url(#gradient81)" fill-rule="evenodd" stroke="none"/>
    <path d="M309.6 238.15 L309.7 237.95 309.75 238.05 309.65 238.15 309.6 238.15" fill="url(#gradient82)" fill-rule="evenodd" stroke="none"/>
    <path d="M308.65 238.7 L308.85 238.8 306.6 240.15 306.3 240.25 308.65 238.7" fill="url(#gradient83)" fill-rule="evenodd" stroke="none"/>
    <path d="M309.25 238.45 L308.95 238.7 308.85 238.7 308.95 238.65 309.05 238.55 309.25 238.45" fill="url(#gradient84)" fill-rule="evenodd" stroke="none"/>
    <path d="M302.4 239.75 Q299.5 240.85 296.3 241.1 L295.8 241.2 295.6 241.2 296.7 240.9 302.05 239.6 302.25 239.6 302.4 239.7 302.4 239.75" fill="url(#gradient85)" fill-rule="evenodd" stroke="none"/>
    <path d="M303.8 239.15 L303.9 238.7 303.95 238.7 304.05 238.8 303.8 239.15" fill="url(#gradient86)" fill-rule="evenodd" stroke="none"/>
    <path d="M301.4 239.15 L301.5 239.15 301.4 239.35 301.4 239.15" fill="url(#gradient87)" fill-rule="evenodd" stroke="none"/>
    <path d="M302.5 239.55 L302.5 239.5 302.8 239.25 302.85 239.35 302.7 239.6 302.5 239.55" fill="url(#gradient88)" fill-rule="evenodd" stroke="none"/>
    <path d="M303.0 239.5 L303.15 239.25 Q303.15 238.95 303.45 239.25 L303.05 239.5 303.0 239.5" fill="url(#gradient89)" fill-rule="evenodd" stroke="none"/>
    <path d="M304.5 241.2 L303.2 241.7 303.05 241.7 Q304.0 241.2 305.2 240.8 L305.0 240.9 304.5 241.2" fill="url(#gradient90)" fill-rule="evenodd" stroke="none"/>
    <path d="M305.1 248.35 L305.2 248.35 305.2 248.55 305.1 248.55 305.1 248.35" fill="url(#gradient91)" fill-rule="evenodd" stroke="none"/>
    <path d="M311.1 237.4 Q309.85 237.4 309.05 236.45 308.25 235.35 308.25 233.15 307.95 229.95 306.65 228.25 L306.5 227.9 307.0 227.75 Q309.35 228.05 311.4 229.35 313.45 230.45 314.1 232.0 314.75 233.15 314.4 234.4 314.25 235.8 313.45 236.6 312.2 237.4 311.1 237.4 M284.5 228.4 Q285.6 229.8 285.95 232.2 286.25 234.55 285.45 236.3 284.5 238.35 282.8 238.95 281.7 239.45 280.4 238.95 278.95 238.5 278.5 237.25 278.0 236.15 278.65 234.85 279.15 233.6 280.25 233.3 L283.4 231.2 Q284.2 230.3 283.9 228.55 283.9 228.25 284.05 228.25 284.2 228.05 284.5 228.4 M293.2 210.7 L286.25 210.7 286.25 218.9 293.2 218.9 293.2 210.7 M294.8 226.2 L294.65 225.85 Q294.65 225.55 294.95 225.55 L299.25 226.0 Q301.1 226.65 302.1 227.75 302.85 228.7 302.85 229.8 303.05 231.1 302.4 231.85 301.75 232.95 300.65 233.15 299.55 233.45 298.75 232.65 297.95 232.0 297.65 230.75 296.4 227.3 294.8 226.2 M293.35 226.65 Q294.65 226.65 294.8 227.1 295.45 228.05 293.85 228.55 293.55 228.7 293.55 229.15 L293.55 233.45 Q293.55 234.4 293.85 234.55 L296.4 234.85 299.7 234.85 Q301.45 234.85 302.4 234.25 303.35 233.75 304.9 229.8 L305.25 229.5 305.55 229.95 Q305.4 232.85 306.5 233.3 307.45 233.95 307.65 234.55 307.75 235.35 307.45 236.6 307.1 237.85 306.2 238.65 304.3 240.4 299.85 240.4 L294.0 240.4 Q289.1 240.7 288.0 239.3 287.5 238.65 287.5 237.4 L287.5 227.1 Q287.5 226.65 287.7 226.5 288.0 226.2 288.3 226.2 L293.35 226.65 M306.5 210.7 L299.35 210.7 299.35 218.9 306.5 218.9 306.5 210.7 M308.25 207.65 Q308.4 207.5 308.75 207.5 L309.35 207.65 313.15 209.85 Q314.9 211.0 313.15 211.8 312.55 212.1 312.55 212.9 L312.55 221.75 Q312.55 222.2 312.2 222.5 311.7 223.0 309.65 223.0 L307.0 222.7 Q306.5 222.35 306.5 221.6 L306.5 220.0 299.35 220.0 299.35 223.0 Q299.25 224.45 298.75 224.55 L296.2 224.9 293.7 224.75 Q293.2 224.25 293.2 223.0 L293.2 220.0 286.25 220.0 286.25 221.1 Q286.25 222.2 285.75 222.5 285.3 223.0 283.1 223.15 L280.7 222.85 Q280.25 222.35 280.25 221.1 L280.25 207.65 Q280.25 207.35 280.4 207.2 L280.7 207.2 286.4 209.55 293.2 209.55 293.2 205.45 Q293.05 205.15 293.2 204.95 L293.7 204.8 298.75 205.15 300.0 205.45 Q301.0 206.25 299.85 207.0 299.25 207.5 299.35 208.15 L299.35 209.55 306.35 209.55 308.25 207.65" fill="url(#gradient92)" fill-rule="evenodd" stroke="none"/>
    <path d="M308.25 207.65 L306.35 209.55 299.35 209.55 299.35 208.15 Q299.25 207.5 299.85 207.0 301.0 206.25 300.0 205.45 L298.75 205.15 293.7 204.8 293.2 204.95 Q293.05 205.15 293.2 205.45 L293.2 209.55 286.4 209.55 280.7 207.2 280.4 207.2 Q280.25 207.35 280.25 207.65 L280.25 221.1 Q280.25 222.35 280.7 222.85 L283.1 223.15 Q285.3 223.0 285.75 222.5 286.25 222.2 286.25 221.1 L286.25 220.0 293.2 220.0 293.2 223.0 Q293.2 224.25 293.7 224.75 L296.2 224.9 298.75 224.55 Q299.25 224.45 299.35 223.0 L299.35 220.0 306.5 220.0 306.5 221.6 Q306.5 222.35 307.0 222.7 L309.65 223.0 Q311.7 223.0 312.2 222.5 312.55 222.2 312.55 221.75 L312.55 212.9 Q312.55 212.1 313.15 211.8 314.9 211.0 313.15 209.85 L309.35 207.65 308.75 207.5 Q308.4 207.5 308.25 207.65 M306.5 210.7 L306.5 218.9 299.35 218.9 299.35 210.7 306.5 210.7 M293.35 226.65 L288.3 226.2 Q288.0 226.2 287.7 226.5 287.5 226.65 287.5 227.1 L287.5 237.4 Q287.5 238.65 288.0 239.3 289.1 240.7 294.0 240.4 L299.85 240.4 Q304.3 240.4 306.2 238.65 307.1 237.85 307.45 236.6 307.75 235.35 307.65 234.55 307.45 233.95 306.5 233.3 305.4 232.85 305.55 229.95 L305.25 229.5 304.9 229.8 Q303.35 233.75 302.4 234.25 301.45 234.85 299.7 234.85 L296.4 234.85 293.85 234.55 Q293.55 234.4 293.55 233.45 L293.55 229.15 Q293.55 228.7 293.85 228.55 295.45 228.05 294.8 227.1 294.65 226.65 293.35 226.65 M294.8 226.2 Q296.4 227.3 297.65 230.75 297.95 232.0 298.75 232.65 299.55 233.45 300.65 233.15 301.75 232.95 302.4 231.85 303.05 231.1 302.85 229.8 302.85 228.7 302.1 227.75 301.1 226.65 299.25 226.0 L294.95 225.55 Q294.65 225.55 294.65 225.85 L294.8 226.2 M293.2 210.7 L293.2 218.9 286.25 218.9 286.25 210.7 293.2 210.7 M284.5 228.4 Q284.2 228.05 284.05 228.25 283.9 228.25 283.9 228.55 284.2 230.3 283.4 231.2 L280.25 233.3 Q279.15 233.6 278.65 234.85 278.0 236.15 278.5 237.25 278.95 238.5 280.4 238.95 281.7 239.45 282.8 238.95 284.5 238.35 285.45 236.3 286.25 234.55 285.95 232.2 285.6 229.8 284.5 228.4 M311.1 237.4 Q312.2 237.4 313.45 236.6 314.25 235.8 314.4 234.4 314.75 233.15 314.1 232.0 313.45 230.45 311.4 229.35 309.35 228.05 307.0 227.75 L306.5 227.9 306.65 228.25 Q307.95 229.95 308.25 233.15 308.25 235.35 309.05 236.45 309.85 237.4 311.1 237.4 Z" fill="none" stroke="#ffff00" stroke-linecap="round" stroke-linejoin="round" stroke-width="6.0"/>
    <path d="M311.1 237.4 Q309.85 237.4 309.05 236.45 308.25 235.35 308.25 233.15 307.95 229.95 306.65 228.25 L306.5 227.9 307.0 227.75 Q309.35 228.05 311.4 229.35 313.45 230.45 314.1 232.0 314.75 233.15 314.4 234.4 314.25 235.8 313.45 236.6 312.2 237.4 311.1 237.4 M280.25 233.3 L283.4 231.2 Q284.2 230.3 283.9 228.55 283.9 228.25 284.05 228.25 284.2 228.05 284.5 228.4 285.6 229.8 285.95 232.2 286.25 234.55 285.45 236.3 284.5 238.35 282.8 238.95 281.7 239.45 280.4 238.95 278.95 238.5 278.5 237.25 278.0 236.15 278.65 234.85 279.15 233.6 280.25 233.3 M293.2 210.7 L286.25 210.7 286.25 218.9 293.2 218.9 293.2 210.7 M294.8 226.2 L294.65 225.85 Q294.65 225.55 294.95 225.55 L299.25 226.0 Q301.1 226.65 302.1 227.75 302.85 228.7 302.85 229.8 303.05 231.1 302.4 231.85 301.75 232.95 300.65 233.15 299.55 233.45 298.75 232.65 297.95 232.0 297.65 230.75 296.4 227.3 294.8 226.2 M293.35 226.65 Q294.65 226.65 294.8 227.1 295.45 228.05 293.85 228.55 293.55 228.7 293.55 229.15 L293.55 233.45 Q293.55 234.4 293.85 234.55 L296.4 234.85 299.7 234.85 Q301.45 234.85 302.4 234.25 303.35 233.75 304.9 229.8 L305.25 229.5 305.55 229.95 Q305.4 232.85 306.5 233.3 307.45 233.95 307.65 234.55 307.75 235.35 307.45 236.6 307.1 237.85 306.2 238.65 304.3 240.4 299.85 240.4 L294.0 240.4 Q289.1 240.7 288.0 239.3 287.5 238.65 287.5 237.4 L287.5 227.1 Q287.5 226.65 287.7 226.5 288.0 226.2 288.3 226.2 L293.35 226.65 M306.5 210.7 L299.35 210.7 299.35 218.9 306.5 218.9 306.5 210.7 M308.25 207.65 Q308.4 207.5 308.75 207.5 L309.35 207.65 313.15 209.85 Q314.9 211.0 313.15 211.8 312.55 212.1 312.55 212.9 L312.55 221.75 Q312.55 222.2 312.2 222.5 311.7 223.0 309.65 223.0 L307.0 222.7 Q306.5 222.35 306.5 221.6 L306.5 220.0 299.35 220.0 299.35 223.0 Q299.25 224.45 298.75 224.55 L296.2 224.9 293.7 224.75 Q293.2 224.25 293.2 223.0 L293.2 220.0 286.25 220.0 286.25 221.1 Q286.25 222.2 285.75 222.5 285.3 223.0 283.1 223.15 L280.7 222.85 Q280.25 222.35 280.25 221.1 L280.25 207.65 Q280.25 207.35 280.4 207.2 L280.7 207.2 286.4 209.55 293.2 209.55 293.2 205.45 Q293.05 205.15 293.2 204.95 L293.7 204.8 298.75 205.15 300.0 205.45 Q301.0 206.25 299.85 207.0 299.25 207.5 299.35 208.15 L299.35 209.55 306.35 209.55 308.25 207.65" fill="url(#gradient93)" fill-rule="evenodd" stroke="none"/>
    <path d="M308.25 207.65 L306.35 209.55 299.35 209.55 299.35 208.15 Q299.25 207.5 299.85 207.0 301.0 206.25 300.0 205.45 L298.75 205.15 293.7 204.8 293.2 204.95 Q293.05 205.15 293.2 205.45 L293.2 209.55 286.4 209.55 280.7 207.2 280.4 207.2 Q280.25 207.35 280.25 207.65 L280.25 221.1 Q280.25 222.35 280.7 222.85 L283.1 223.15 Q285.3 223.0 285.75 222.5 286.25 222.2 286.25 221.1 L286.25 220.0 293.2 220.0 293.2 223.0 Q293.2 224.25 293.7 224.75 L296.2 224.9 298.75 224.55 Q299.25 224.45 299.35 223.0 L299.35 220.0 306.5 220.0 306.5 221.6 Q306.5 222.35 307.0 222.7 L309.65 223.0 Q311.7 223.0 312.2 222.5 312.55 222.2 312.55 221.75 L312.55 212.9 Q312.55 212.1 313.15 211.8 314.9 211.0 313.15 209.85 L309.35 207.65 308.75 207.5 Q308.4 207.5 308.25 207.65 M306.5 210.7 L306.5 218.9 299.35 218.9 299.35 210.7 306.5 210.7 M293.35 226.65 L288.3 226.2 Q288.0 226.2 287.7 226.5 287.5 226.65 287.5 227.1 L287.5 237.4 Q287.5 238.65 288.0 239.3 289.1 240.7 294.0 240.4 L299.85 240.4 Q304.3 240.4 306.2 238.65 307.1 237.85 307.45 236.6 307.75 235.35 307.65 234.55 307.45 233.95 306.5 233.3 305.4 232.85 305.55 229.95 L305.25 229.5 304.9 229.8 Q303.35 233.75 302.4 234.25 301.45 234.85 299.7 234.85 L296.4 234.85 293.85 234.55 Q293.55 234.4 293.55 233.45 L293.55 229.15 Q293.55 228.7 293.85 228.55 295.45 228.05 294.8 227.1 294.65 226.65 293.35 226.65 M294.8 226.2 Q296.4 227.3 297.65 230.75 297.95 232.0 298.75 232.65 299.55 233.45 300.65 233.15 301.75 232.95 302.4 231.85 303.05 231.1 302.85 229.8 302.85 228.7 302.1 227.75 301.1 226.65 299.25 226.0 L294.95 225.55 Q294.65 225.55 294.65 225.85 L294.8 226.2 M293.2 210.7 L293.2 218.9 286.25 218.9 286.25 210.7 293.2 210.7 M280.25 233.3 Q279.15 233.6 278.65 234.85 278.0 236.15 278.5 237.25 278.95 238.5 280.4 238.95 281.7 239.45 282.8 238.95 284.5 238.35 285.45 236.3 286.25 234.55 285.95 232.2 285.6 229.8 284.5 228.4 284.2 228.05 284.05 228.25 283.9 228.25 283.9 228.55 284.2 230.3 283.4 231.2 L280.25 233.3 M311.1 237.4 Q312.2 237.4 313.45 236.6 314.25 235.8 314.4 234.4 314.75 233.15 314.1 232.0 313.45 230.45 311.4 229.35 309.35 228.05 307.0 227.75 L306.5 227.9 306.65 228.25 Q307.95 229.95 308.25 233.15 308.25 235.35 309.05 236.45 309.85 237.4 311.1 237.4 Z" fill="none" stroke="#660000" stroke-linecap="round" stroke-linejoin="round" stroke-width="2.5"/>
    <path d="M313.45 236.6 Q312.2 237.4 311.1 237.4 309.85 237.4 309.05 236.45 308.25 235.35 308.25 233.15 307.95 229.95 306.65 228.25 L306.5 227.9 307.0 227.75 Q309.35 228.05 311.4 229.35 313.45 230.45 314.1 232.0 314.75 233.15 314.4 234.4 314.25 235.8 313.45 236.6 M280.25 233.3 L283.4 231.2 Q284.2 230.3 283.9 228.55 283.9 228.25 284.05 228.25 284.2 228.05 284.5 228.4 285.6 229.8 285.95 232.2 286.25 234.55 285.45 236.3 284.5 238.35 282.8 238.95 281.7 239.45 280.4 238.95 278.95 238.5 278.5 237.25 278.0 236.15 278.65 234.85 279.15 233.6 280.25 233.3 M293.2 210.7 L286.25 210.7 286.25 218.9 293.2 218.9 293.2 210.7 M293.35 226.65 Q294.65 226.65 294.8 227.1 295.45 228.05 293.85 228.55 293.55 228.7 293.55 229.15 L293.55 233.45 Q293.55 234.4 293.85 234.55 L296.4 234.85 299.7 234.85 Q301.45 234.85 302.4 234.25 303.35 233.75 304.9 229.8 L305.25 229.5 305.55 229.95 Q305.4 232.85 306.5 233.3 307.45 233.95 307.65 234.55 307.75 235.35 307.45 236.6 307.1 237.85 306.2 238.65 304.3 240.4 299.85 240.4 L294.0 240.4 Q289.1 240.7 288.0 239.3 287.5 238.65 287.5 237.4 L287.5 227.1 Q287.5 226.65 287.7 226.5 288.0 226.2 288.3 226.2 L293.35 226.65 M294.65 225.85 Q294.65 225.55 294.95 225.55 L299.25 226.0 Q301.1 226.65 302.1 227.75 302.85 228.7 302.85 229.8 303.05 231.1 302.4 231.85 301.75 232.95 300.65 233.15 299.55 233.45 298.75 232.65 297.95 232.0 297.65 230.75 296.4 227.3 294.8 226.2 L294.65 225.85 M306.5 210.7 L299.35 210.7 299.35 218.9 306.5 218.9 306.5 210.7 M308.25 207.65 Q308.4 207.5 308.75 207.5 L309.35 207.65 313.15 209.85 Q314.9 211.0 313.15 211.8 312.55 212.1 312.55 212.9 L312.55 221.75 Q312.55 222.2 312.2 222.5 311.7 223.0 309.65 223.0 L307.0 222.7 Q306.5 222.35 306.5 221.6 L306.5 220.0 299.35 220.0 299.35 223.0 Q299.25 224.45 298.75 224.55 L296.2 224.9 293.7 224.75 Q293.2 224.25 293.2 223.0 L293.2 220.0 286.25 220.0 286.25 221.1 Q286.25 222.2 285.75 222.5 285.3 223.0 283.1 223.15 L280.7 222.85 Q280.25 222.35 280.25 221.1 L280.25 207.65 Q280.25 207.35 280.4 207.2 L280.7 207.2 286.4 209.55 293.2 209.55 293.2 205.45 Q293.05 205.15 293.2 204.95 L293.7 204.8 298.75 205.15 300.0 205.45 Q301.0 206.25 299.85 207.0 299.25 207.5 299.35 208.15 L299.35 209.55 306.35 209.55 308.25 207.65" fill="url(#gradient94)" fill-rule="evenodd" stroke="none"/>
  </g>
  <defs>
    <linearGradient gradientTransform="matrix(0.0356, 0.0, 0.0, 0.0338, 296.25, 222.0)" gradientUnits="userSpaceOnUse" id="gradient0" spreadMethod="pad" x1="-819.2" x2="819.2">
      <stop offset="0.011764705882352941" stop-color="#6600cc"/>
      <stop offset="0.396078431372549" stop-color="#66ffff"/>
      <stop offset="0.5411764705882353" stop-color="#ff3399"/>
      <stop offset="0.6980392156862745" stop-color="#6699ff"/>
      <stop offset="1.0" stop-color="#66ccff"/>
    </linearGradient>
    <linearGradient gradientTransform="matrix(1.0E-4, 0.0, 0.0, 1.0E-4, 322.65, 209.95)" gradientUnits="userSpaceOnUse" id="gradient1" spreadMethod="pad" x1="-819.2" x2="819.2">
      <stop offset="0.011764705882352941" stop-color="#ff9900"/>
      <stop offset="0.396078431372549" stop-color="#ffffcc"/>
      <stop offset="0.5411764705882353" stop-color="#ffbb00"/>
      <stop offset="0.6980392156862745" stop-color="#ffff00"/>
      <stop offset="1.0" stop-color="#ff9900"/>
    </linearGradient>
    <linearGradient gradientTransform="matrix(0.0, -0.0363, 0.0362, 0.0, 295.8, 228.1)" gradientUnits="userSpaceOnUse" id="gradient2" spreadMethod="pad" x1="-819.2" x2="819.2">
      <stop offset="0.011764705882352941" stop-color="#ff9900"/>
      <stop offset="0.396078431372549" stop-color="#ffffcc"/>
      <stop offset="0.5411764705882353" stop-color="#ffbb00"/>
      <stop offset="0.6980392156862745" stop-color="#ffff00"/>
      <stop offset="1.0" stop-color="#ff9900"/>
    </linearGradient>
    <linearGradient gradientTransform="matrix(3.0E-4, 0.0, 0.0, 2.0E-4, 310.4, 204.0)" gradientUnits="userSpaceOnUse" id="gradient3" spreadMethod="pad" x1="-819.2" x2="819.2">
      <stop offset="0.011764705882352941" stop-color="#ff9900"/>
      <stop offset="0.396078431372549" stop-color="#ffffcc"/>
      <stop offset="0.5411764705882353" stop-color="#ffbb00"/>
      <stop offset="0.6980392156862745" stop-color="#ffff00"/>
      <stop offset="1.0" stop-color="#ff9900"/>
    </linearGradient>
    <linearGradient gradientTransform="matrix(0.0016, 0.0, 0.0, 0.001, 307.65, 204.25)" gradientUnits="userSpaceOnUse" id="gradient4" spreadMethod="pad" x1="-819.2" x2="819.2">
      <stop offset="0.011764705882352941" stop-color="#ff9900"/>
      <stop offset="0.396078431372549" stop-color="#ffffcc"/>
      <stop offset="0.5411764705882353" stop-color="#ffbb00"/>
      <stop offset="0.6980392156862745" stop-color="#ffff00"/>
      <stop offset="1.0" stop-color="#ff9900"/>
    </linearGradient>
    <linearGradient color-interpolation="linearRGB" gradientTransform="matrix(1.0E-4, 0.0, 0.0, 1.0E-4, 315.5, 210.4)" gradientUnits="userSpaceOnUse" id="gradient5" spreadMethod="pad" x1="-819.2" x2="819.2">
      <stop offset="0.011764705882352941" stop-color="#ff9900"/>
      <stop offset="0.396078431372549" stop-color="#ffffcc"/>
      <stop offset="0.5411764705882353" stop-color="#ffbb00"/>
      <stop offset="0.6980392156862745" stop-color="#ffff00"/>
      <stop offset="1.0" stop-color="#ff9900"/>
    </linearGradient>
    <linearGradient gradientTransform="matrix(0.0075, 0.0, 0.0, 0.0013, 298.65, 201.45)" gradientUnits="userSpaceOnUse" id="gradient6" spreadMethod="pad" x1="-819.2" x2="819.2">
      <stop offset="0.011764705882352941" stop-color="#ff9900"/>
      <stop offset="0.396078431372549" stop-color="#ffffcc"/>
      <stop offset="0.5411764705882353" stop-color="#ffbb00"/>
      <stop offset="0.6980392156862745" stop-color="#ffff00"/>
      <stop offset="1.0" stop-color="#ff9900"/>
    </linearGradient>
    <linearGradient gradientTransform="matrix(1.0E-4, 0.0, 0.0, 1.0E-4, 303.2, 201.2)" gradientUnits="userSpaceOnUse" id="gradient7" spreadMethod="pad" x1="-819.2" x2="819.2">
      <stop offset="0.011764705882352941" stop-color="#ff9900"/>
      <stop offset="0.396078431372549" stop-color="#ffffcc"/>
      <stop offset="0.5411764705882353" stop-color="#ffbb00"/>
      <stop offset="0.6980392156862745" stop-color="#ffff00"/>
      <stop offset="1.0" stop-color="#ff9900"/>
    </linearGradient>
    <linearGradient gradientTransform="matrix(1.0E-4, 0.0, 0.0, 1.0E-4, 302.0, 200.95)" gradientUnits="userSpaceOnUse" id="gradient8" spreadMethod="pad" x1="-819.2" x2="819.2">
      <stop offset="0.011764705882352941" stop-color="#ff9900"/>
      <stop offset="0.396078431372549" stop-color="#ffffcc"/>
      <stop offset="0.5411764705882353" stop-color="#ffbb00"/>
      <stop offset="0.6980392156862745" stop-color="#ffff00"/>
      <stop offset="1.0" stop-color="#ff9900"/>
    </linearGradient>
    <linearGradient gradientTransform="matrix(1.0E-4, 0.0, 0.0, 1.0E-4, 303.7, 201.3)" gradientUnits="userSpaceOnUse" id="gradient9" spreadMethod="reflect" x1="-819.2" x2="819.2">
      <stop offset="0.011764705882352941" stop-color="#ff9900"/>
      <stop offset="0.396078431372549" stop-color="#ffffcc"/>
      <stop offset="0.5411764705882353" stop-color="#ffbb00"/>
      <stop offset="0.6980392156862745" stop-color="#ffff00"/>
      <stop offset="1.0" stop-color="#ff9900"/>
    </linearGradient>
    <linearGradient gradientTransform="matrix(4.0E-4, 0.0, 0.0, 2.0E-4, 305.4, 201.95)" gradientUnits="userSpaceOnUse" id="gradient10" spreadMethod="pad" x1="-819.2" x2="819.2">
      <stop offset="0.011764705882352941" stop-color="#ff9900"/>
      <stop offset="0.396078431372549" stop-color="#ffffcc"/>
      <stop offset="0.5411764705882353" stop-color="#ffbb00"/>
      <stop offset="0.6980392156862745" stop-color="#ffff00"/>
      <stop offset="1.0" stop-color="#ff9900"/>
    </linearGradient>
    <linearGradient gradientTransform="matrix(0.0, 0.0, 0.0, 0.0, 295.55, 202.5)" gradientUnits="userSpaceOnUse" id="gradient11" spreadMethod="pad" x1="-819.2" x2="819.2">
      <stop offset="0.011764705882352941" stop-color="#ff9900"/>
      <stop offset="0.396078431372549" stop-color="#ffffcc"/>
      <stop offset="0.5411764705882353" stop-color="#ffbb00"/>
      <stop offset="0.6980392156862745" stop-color="#ffff00"/>
      <stop offset="1.0" stop-color="#ff9900"/>
    </linearGradient>
    <linearGradient gradientTransform="matrix(9.0E-4, 0.0, 0.0, 3.0E-4, 305.45, 202.85)" gradientUnits="userSpaceOnUse" id="gradient12" spreadMethod="pad" x1="-819.2" x2="819.2">
      <stop offset="0.011764705882352941" stop-color="#ff9900"/>
      <stop offset="0.396078431372549" stop-color="#ffffcc"/>
      <stop offset="0.5411764705882353" stop-color="#ffbb00"/>
      <stop offset="0.6980392156862745" stop-color="#ffff00"/>
      <stop offset="1.0" stop-color="#ff9900"/>
    </linearGradient>
    <linearGradient gradientTransform="matrix(1.0E-4, 0.0, 0.0, 1.0E-4, 301.5, 203.05)" gradientUnits="userSpaceOnUse" id="gradient13" spreadMethod="pad" x1="-819.2" x2="819.2">
      <stop offset="0.011764705882352941" stop-color="#ff9900"/>
      <stop offset="0.396078431372549" stop-color="#ffffcc"/>
      <stop offset="0.5411764705882353" stop-color="#ffbb00"/>
      <stop offset="0.6980392156862745" stop-color="#ffff00"/>
      <stop offset="1.0" stop-color="#ff9900"/>
    </linearGradient>
    <linearGradient gradientTransform="matrix(0.0, 0.0, 0.0, 1.0E-4, 317.1, 213.05)" gradientUnits="userSpaceOnUse" id="gradient14" spreadMethod="pad" x1="-819.2" x2="819.2">
      <stop offset="0.011764705882352941" stop-color="#ff9900"/>
      <stop offset="0.396078431372549" stop-color="#ffffcc"/>
      <stop offset="0.5411764705882353" stop-color="#ffbb00"/>
      <stop offset="0.6980392156862745" stop-color="#ffff00"/>
      <stop offset="1.0" stop-color="#ff9900"/>
    </linearGradient>
    <linearGradient gradientTransform="matrix(1.0E-4, 0.0, 0.0, 1.0E-4, 316.8, 213.25)" gradientUnits="userSpaceOnUse" id="gradient15" spreadMethod="pad" x1="-819.2" x2="819.2">
      <stop offset="0.011764705882352941" stop-color="#ff9900"/>
      <stop offset="0.396078431372549" stop-color="#ffffcc"/>
      <stop offset="0.5411764705882353" stop-color="#ffbb00"/>
      <stop offset="0.6980392156862745" stop-color="#ffff00"/>
      <stop offset="1.0" stop-color="#ff9900"/>
    </linearGradient>
    <linearGradient gradientTransform="matrix(1.0E-4, 0.0, 0.0, 2.0E-4, 318.05, 216.0)" gradientUnits="userSpaceOnUse" id="gradient16" spreadMethod="pad" x1="-819.2" x2="819.2">
      <stop offset="0.011764705882352941" stop-color="#ff9900"/>
      <stop offset="0.396078431372549" stop-color="#ffffcc"/>
      <stop offset="0.5411764705882353" stop-color="#ffbb00"/>
      <stop offset="0.6980392156862745" stop-color="#ffff00"/>
      <stop offset="1.0" stop-color="#ff9900"/>
    </linearGradient>
    <linearGradient gradientTransform="matrix(4.0E-4, 0.0, 0.0, 8.0E-4, 318.0, 217.0)" gradientUnits="userSpaceOnUse" id="gradient17" spreadMethod="pad" x1="-819.2" x2="819.2">
      <stop offset="0.011764705882352941" stop-color="#ff9900"/>
      <stop offset="0.396078431372549" stop-color="#ffffcc"/>
      <stop offset="0.5411764705882353" stop-color="#ffbb00"/>
      <stop offset="0.6980392156862745" stop-color="#ffff00"/>
      <stop offset="1.0" stop-color="#ff9900"/>
    </linearGradient>
    <linearGradient gradientTransform="matrix(1.0E-4, 0.0, 0.0, 2.0E-4, 318.4, 218.65)" gradientUnits="userSpaceOnUse" id="gradient18" spreadMethod="pad" x1="-819.2" x2="819.2">
      <stop offset="0.011764705882352941" stop-color="#ff9900"/>
      <stop offset="0.396078431372549" stop-color="#ffffcc"/>
      <stop offset="0.5411764705882353" stop-color="#ffbb00"/>
      <stop offset="0.6980392156862745" stop-color="#ffff00"/>
      <stop offset="1.0" stop-color="#ff9900"/>
    </linearGradient>
    <linearGradient gradientTransform="matrix(3.0E-4, 0.0, 0.0, 0.0023, 318.3, 220.4)" gradientUnits="userSpaceOnUse" id="gradient19" spreadMethod="pad" x1="-819.2" x2="819.2">
      <stop offset="0.011764705882352941" stop-color="#ff9900"/>
      <stop offset="0.396078431372549" stop-color="#ffffcc"/>
      <stop offset="0.5411764705882353" stop-color="#ffbb00"/>
      <stop offset="0.6980392156862745" stop-color="#ffff00"/>
      <stop offset="1.0" stop-color="#ff9900"/>
    </linearGradient>
    <linearGradient gradientTransform="matrix(3.0E-4, 0.0, 0.0, 6.0E-4, 318.2, 223.05)" gradientUnits="userSpaceOnUse" id="gradient20" spreadMethod="pad" x1="-819.2" x2="819.2">
      <stop offset="0.011764705882352941" stop-color="#ff9900"/>
      <stop offset="0.396078431372549" stop-color="#ffffcc"/>
      <stop offset="0.5411764705882353" stop-color="#ffbb00"/>
      <stop offset="0.6980392156862745" stop-color="#ffff00"/>
      <stop offset="1.0" stop-color="#ff9900"/>
    </linearGradient>
    <linearGradient gradientTransform="matrix(3.0E-4, 0.0, 0.0, 0.0011, 316.6, 220.8)" gradientUnits="userSpaceOnUse" id="gradient21" spreadMethod="pad" x1="-819.2" x2="819.2">
      <stop offset="0.011764705882352941" stop-color="#ff9900"/>
      <stop offset="0.396078431372549" stop-color="#ffffcc"/>
      <stop offset="0.5411764705882353" stop-color="#ffbb00"/>
      <stop offset="0.6980392156862745" stop-color="#ffff00"/>
      <stop offset="1.0" stop-color="#ff9900"/>
    </linearGradient>
    <linearGradient gradientTransform="matrix(2.0E-4, 0.0, 0.0, 0.0017, 316.65, 223.25)" gradientUnits="userSpaceOnUse" id="gradient22" spreadMethod="pad" x1="-819.2" x2="819.2">
      <stop offset="0.011764705882352941" stop-color="#ff9900"/>
      <stop offset="0.396078431372549" stop-color="#ffffcc"/>
      <stop offset="0.5411764705882353" stop-color="#ffbb00"/>
      <stop offset="0.6980392156862745" stop-color="#ffff00"/>
      <stop offset="1.0" stop-color="#ff9900"/>
    </linearGradient>
    <linearGradient gradientTransform="matrix(1.0E-4, 0.0, 0.0, 1.0E-4, 316.4, 226.3)" gradientUnits="userSpaceOnUse" id="gradient23" spreadMethod="pad" x1="-819.2" x2="819.2">
      <stop offset="0.011764705882352941" stop-color="#ff9900"/>
      <stop offset="0.396078431372549" stop-color="#ffffcc"/>
      <stop offset="0.5411764705882353" stop-color="#ffbb00"/>
      <stop offset="0.6980392156862745" stop-color="#ffff00"/>
      <stop offset="1.0" stop-color="#ff9900"/>
    </linearGradient>
    <linearGradient gradientTransform="matrix(8.0E-4, 0.0, 0.0, 0.003, 317.45, 226.2)" gradientUnits="userSpaceOnUse" id="gradient24" spreadMethod="pad" x1="-819.2" x2="819.2">
      <stop offset="0.011764705882352941" stop-color="#ff9900"/>
      <stop offset="0.396078431372549" stop-color="#ffffcc"/>
      <stop offset="0.5411764705882353" stop-color="#ffbb00"/>
      <stop offset="0.6980392156862745" stop-color="#ffff00"/>
      <stop offset="1.0" stop-color="#ff9900"/>
    </linearGradient>
    <linearGradient gradientTransform="matrix(1.0E-4, 0.0, 0.0, 0.0, 317.65, 224.05)" gradientUnits="userSpaceOnUse" id="gradient25" x1="-819.2" x2="819.2">
      <stop offset="0.011764705882352941" stop-color="#ff9900"/>
      <stop offset="0.396078431372549" stop-color="#ffffcc"/>
      <stop offset="0.5411764705882353" stop-color="#ffbb00"/>
      <stop offset="0.6980392156862745" stop-color="#ffff00"/>
      <stop offset="1.0" stop-color="#ff9900"/>
    </linearGradient>
    <linearGradient gradientTransform="matrix(0.0019, 0.0, 0.0, 9.0E-4, 288.4, 201.9)" gradientUnits="userSpaceOnUse" id="gradient26" spreadMethod="pad" x1="-819.2" x2="819.2">
      <stop offset="0.011764705882352941" stop-color="#ff9900"/>
      <stop offset="0.396078431372549" stop-color="#ffffcc"/>
      <stop offset="0.5411764705882353" stop-color="#ffbb00"/>
      <stop offset="0.6980392156862745" stop-color="#ffff00"/>
      <stop offset="1.0" stop-color="#ff9900"/>
    </linearGradient>
    <linearGradient gradientTransform="matrix(8.0E-4, 0.0, 0.0, 4.0E-4, 291.0, 201.1)" gradientUnits="userSpaceOnUse" id="gradient27" spreadMethod="pad" x1="-819.2" x2="819.2">
      <stop offset="0.011764705882352941" stop-color="#ff9900"/>
      <stop offset="0.396078431372549" stop-color="#ffffcc"/>
      <stop offset="0.5411764705882353" stop-color="#ffbb00"/>
      <stop offset="0.6980392156862745" stop-color="#ffff00"/>
      <stop offset="1.0" stop-color="#ff9900"/>
    </linearGradient>
    <linearGradient gradientTransform="matrix(1.0E-4, 0.0, 0.0, 1.0E-4, 286.3, 202.55)" gradientUnits="userSpaceOnUse" id="gradient28" spreadMethod="pad" x1="-819.2" x2="819.2">
      <stop offset="0.011764705882352941" stop-color="#ff9900"/>
      <stop offset="0.396078431372549" stop-color="#ffffcc"/>
      <stop offset="0.5411764705882353" stop-color="#ffbb00"/>
      <stop offset="0.6980392156862745" stop-color="#ffff00"/>
      <stop offset="1.0" stop-color="#ff9900"/>
    </linearGradient>
    <linearGradient gradientTransform="matrix(0.0012, 0.0, 0.0, 0.001, 284.05, 204.55)" gradientUnits="userSpaceOnUse" id="gradient29" spreadMethod="pad" x1="-819.2" x2="819.2">
      <stop offset="0.011764705882352941" stop-color="#ff9900"/>
      <stop offset="0.396078431372549" stop-color="#ffffcc"/>
      <stop offset="0.5411764705882353" stop-color="#ffbb00"/>
      <stop offset="0.6980392156862745" stop-color="#ffff00"/>
      <stop offset="1.0" stop-color="#ff9900"/>
    </linearGradient>
    <linearGradient gradientTransform="matrix(1.0E-4, 0.0, 0.0, 2.0E-4, 284.15, 204.8)" gradientUnits="userSpaceOnUse" id="gradient30" spreadMethod="pad" x1="-819.2" x2="819.2">
      <stop offset="0.011764705882352941" stop-color="#ff9900"/>
      <stop offset="0.396078431372549" stop-color="#ffffcc"/>
      <stop offset="0.5411764705882353" stop-color="#ffbb00"/>
      <stop offset="0.6980392156862745" stop-color="#ffff00"/>
      <stop offset="1.0" stop-color="#ff9900"/>
    </linearGradient>
    <linearGradient gradientTransform="matrix(4.0E-4, 0.0, 0.0, 4.0E-4, 282.3, 205.9)" gradientUnits="userSpaceOnUse" id="gradient31" spreadMethod="pad" x1="-819.2" x2="819.2">
      <stop offset="0.011764705882352941" stop-color="#ff9900"/>
      <stop offset="0.396078431372549" stop-color="#ffffcc"/>
      <stop offset="0.5411764705882353" stop-color="#ffbb00"/>
      <stop offset="0.6980392156862745" stop-color="#ffff00"/>
      <stop offset="1.0" stop-color="#ff9900"/>
    </linearGradient>
    <linearGradient gradientTransform="matrix(1.0E-4, 0.0, 0.0, 1.0E-4, 281.4, 206.7)" gradientUnits="userSpaceOnUse" id="gradient32" spreadMethod="pad" x1="-819.2" x2="819.2">
      <stop offset="0.011764705882352941" stop-color="#ff9900"/>
      <stop offset="0.396078431372549" stop-color="#ffffcc"/>
      <stop offset="0.5411764705882353" stop-color="#ffbb00"/>
      <stop offset="0.6980392156862745" stop-color="#ffff00"/>
      <stop offset="1.0" stop-color="#ff9900"/>
    </linearGradient>
    <linearGradient gradientTransform="matrix(2.0E-4, 0.0, 0.0, 2.0E-4, 281.05, 207.0)" gradientUnits="userSpaceOnUse" id="gradient33" spreadMethod="pad" x1="-819.2" x2="819.2">
      <stop offset="0.011764705882352941" stop-color="#ff9900"/>
      <stop offset="0.396078431372549" stop-color="#ffffcc"/>
      <stop offset="0.5411764705882353" stop-color="#ffbb00"/>
      <stop offset="0.6980392156862745" stop-color="#ffff00"/>
      <stop offset="1.0" stop-color="#ff9900"/>
    </linearGradient>
    <linearGradient gradientTransform="matrix(1.0E-4, 0.0, 0.0, 1.0E-4, 266.15, 227.4)" gradientUnits="userSpaceOnUse" id="gradient34" spreadMethod="pad" x1="-819.2" x2="819.2">
      <stop offset="0.011764705882352941" stop-color="#ff9900"/>
      <stop offset="0.396078431372549" stop-color="#ffffcc"/>
      <stop offset="0.5411764705882353" stop-color="#ffbb00"/>
      <stop offset="0.6980392156862745" stop-color="#ffff00"/>
      <stop offset="1.0" stop-color="#ff9900"/>
    </linearGradient>
    <linearGradient gradientTransform="matrix(2.0E-4, 0.0, 0.0, 4.0E-4, 267.7, 226.2)" gradientUnits="userSpaceOnUse" id="gradient35" spreadMethod="pad" x1="-819.2" x2="819.2">
      <stop offset="0.011764705882352941" stop-color="#ff9900"/>
      <stop offset="0.396078431372549" stop-color="#ffffcc"/>
      <stop offset="0.5411764705882353" stop-color="#ffbb00"/>
      <stop offset="0.6980392156862745" stop-color="#ffff00"/>
      <stop offset="1.0" stop-color="#ff9900"/>
    </linearGradient>
    <linearGradient color-interpolation="linearRGB" gradientTransform="matrix(1.0E-4, 0.0, 0.0, 1.0E-4, 267.4, 226.9)" gradientUnits="userSpaceOnUse" id="gradient36" spreadMethod="pad" x1="-819.2" x2="819.2">
      <stop offset="0.011764705882352941" stop-color="#ff9900"/>
      <stop offset="0.396078431372549" stop-color="#ffffcc"/>
      <stop offset="0.5411764705882353" stop-color="#ffbb00"/>
      <stop offset="0.6980392156862745" stop-color="#ffff00"/>
      <stop offset="1.0" stop-color="#ff9900"/>
    </linearGradient>
    <linearGradient gradientTransform="matrix(1.0E-4, 0.0, 0.0, 1.0E-4, 283.8, 235.2)" gradientUnits="userSpaceOnUse" id="gradient37" spreadMethod="pad" x1="-819.2" x2="819.2">
      <stop offset="0.011764705882352941" stop-color="#ff9900"/>
      <stop offset="0.396078431372549" stop-color="#ffffcc"/>
      <stop offset="0.5411764705882353" stop-color="#ffbb00"/>
      <stop offset="0.6980392156862745" stop-color="#ffff00"/>
      <stop offset="1.0" stop-color="#ff9900"/>
    </linearGradient>
    <linearGradient gradientTransform="matrix(1.0E-4, 0.0, 0.0, 1.0E-4, 285.05, 237.4)" gradientUnits="userSpaceOnUse" id="gradient38" spreadMethod="pad" x1="-819.2" x2="819.2">
      <stop offset="0.011764705882352941" stop-color="#ff9900"/>
      <stop offset="0.396078431372549" stop-color="#ffffcc"/>
      <stop offset="0.5411764705882353" stop-color="#ffbb00"/>
      <stop offset="0.6980392156862745" stop-color="#ffff00"/>
      <stop offset="1.0" stop-color="#ff9900"/>
    </linearGradient>
    <linearGradient gradientTransform="matrix(5.0E-4, 0.0, 0.0, 7.0E-4, 284.25, 236.8)" gradientUnits="userSpaceOnUse" id="gradient39" spreadMethod="pad" x1="-819.2" x2="819.2">
      <stop offset="0.011764705882352941" stop-color="#ff9900"/>
      <stop offset="0.396078431372549" stop-color="#ffffcc"/>
      <stop offset="0.5411764705882353" stop-color="#ffbb00"/>
      <stop offset="0.6980392156862745" stop-color="#ffff00"/>
      <stop offset="1.0" stop-color="#ff9900"/>
    </linearGradient>
    <linearGradient gradientTransform="matrix(1.0E-4, 0.0, 0.0, 3.0E-4, 283.5, 236.6)" gradientUnits="userSpaceOnUse" id="gradient40" spreadMethod="pad" x1="-819.2" x2="819.2">
      <stop offset="0.011764705882352941" stop-color="#ff9900"/>
      <stop offset="0.396078431372549" stop-color="#ffffcc"/>
      <stop offset="0.5411764705882353" stop-color="#ffbb00"/>
      <stop offset="0.6980392156862745" stop-color="#ffff00"/>
      <stop offset="1.0" stop-color="#ff9900"/>
    </linearGradient>
    <linearGradient gradientTransform="matrix(2.0E-4, 0.0, 0.0, 0.0, 283.8, 236.7)" gradientUnits="userSpaceOnUse" id="gradient41" spreadMethod="pad" x1="-819.2" x2="819.2">
      <stop offset="0.011764705882352941" stop-color="#ff9900"/>
      <stop offset="0.396078431372549" stop-color="#ffffcc"/>
      <stop offset="0.5411764705882353" stop-color="#ffbb00"/>
      <stop offset="0.6980392156862745" stop-color="#ffff00"/>
      <stop offset="1.0" stop-color="#ff9900"/>
    </linearGradient>
    <linearGradient color-interpolation="linearRGB" gradientTransform="matrix(2.0E-4, 0.0, 0.0, 1.0E-4, 283.9, 236.85)" gradientUnits="userSpaceOnUse" id="gradient42" spreadMethod="repeat" x1="-819.2" x2="819.2">
      <stop offset="0.011764705882352941" stop-color="#ff9900"/>
      <stop offset="0.396078431372549" stop-color="#ffffcc"/>
      <stop offset="0.5411764705882353" stop-color="#ffbb00"/>
      <stop offset="0.6980392156862745" stop-color="#ffff00"/>
      <stop offset="1.0" stop-color="#ff9900"/>
    </linearGradient>
    <linearGradient gradientTransform="matrix(0.0014, 0.0, 0.0, 6.0E-4, 287.1, 242.95)" gradientUnits="userSpaceOnUse" id="gradient43" x1="-819.2" x2="819.2">
      <stop offset="0.011764705882352941" stop-color="#ff9900"/>
      <stop offset="0.396078431372549" stop-color="#ffffcc"/>
      <stop offset="0.5411764705882353" stop-color="#ffbb00"/>
      <stop offset="0.6980392156862745" stop-color="#ffff00"/>
      <stop offset="1.0" stop-color="#ff9900"/>
    </linearGradient>
    <linearGradient gradientTransform="matrix(1.0E-4, 0.0, 0.0, 1.0E-4, 285.05, 243.55)" gradientUnits="userSpaceOnUse" id="gradient44" spreadMethod="pad" x1="-819.2" x2="819.2">
      <stop offset="0.011764705882352941" stop-color="#ff9900"/>
      <stop offset="0.396078431372549" stop-color="#ffffcc"/>
      <stop offset="0.5411764705882353" stop-color="#ffbb00"/>
      <stop offset="0.6980392156862745" stop-color="#ffff00"/>
      <stop offset="1.0" stop-color="#ff9900"/>
    </linearGradient>
    <linearGradient gradientTransform="matrix(2.0E-4, 0.0, 0.0, 2.0E-4, 285.85, 243.45)" gradientUnits="userSpaceOnUse" id="gradient45" spreadMethod="pad" x1="-819.2" x2="819.2">
      <stop offset="0.011764705882352941" stop-color="#ff9900"/>
      <stop offset="0.396078431372549" stop-color="#ffffcc"/>
      <stop offset="0.5411764705882353" stop-color="#ffbb00"/>
      <stop offset="0.6980392156862745" stop-color="#ffff00"/>
      <stop offset="1.0" stop-color="#ff9900"/>
    </linearGradient>
    <linearGradient gradientTransform="matrix(1.0E-4, 0.0, 0.0, 1.0E-4, 285.95, 243.2)" gradientUnits="userSpaceOnUse" id="gradient46" spreadMethod="pad" x1="-819.2" x2="819.2">
      <stop offset="0.011764705882352941" stop-color="#ff9900"/>
      <stop offset="0.396078431372549" stop-color="#ffffcc"/>
      <stop offset="0.5411764705882353" stop-color="#ffbb00"/>
      <stop offset="0.6980392156862745" stop-color="#ffff00"/>
      <stop offset="1.0" stop-color="#ff9900"/>
    </linearGradient>
    <linearGradient gradientTransform="matrix(0.0011, 0.0, 0.0, 2.0E-4, 289.9, 242.7)" gradientUnits="userSpaceOnUse" id="gradient47" spreadMethod="pad" x1="-819.2" x2="819.2">
      <stop offset="0.011764705882352941" stop-color="#ff9900"/>
      <stop offset="0.396078431372549" stop-color="#ffffcc"/>
      <stop offset="0.5411764705882353" stop-color="#ffbb00"/>
      <stop offset="0.6980392156862745" stop-color="#ffff00"/>
      <stop offset="1.0" stop-color="#ff9900"/>
    </linearGradient>
    <linearGradient gradientTransform="matrix(2.0E-4, 0.0, 0.0, 1.0E-4, 288.6, 243.5)" gradientUnits="userSpaceOnUse" id="gradient48" spreadMethod="pad" x1="-819.2" x2="819.2">
      <stop offset="0.011764705882352941" stop-color="#ff9900"/>
      <stop offset="0.396078431372549" stop-color="#ffffcc"/>
      <stop offset="0.5411764705882353" stop-color="#ffbb00"/>
      <stop offset="0.6980392156862745" stop-color="#ffff00"/>
      <stop offset="1.0" stop-color="#ff9900"/>
    </linearGradient>
    <linearGradient gradientTransform="matrix(1.0E-4, 0.0, 0.0, 1.0E-4, 288.95, 243.75)" gradientUnits="userSpaceOnUse" id="gradient49" spreadMethod="pad" x1="-819.2" x2="819.2">
      <stop offset="0.011764705882352941" stop-color="#ff9900"/>
      <stop offset="0.396078431372549" stop-color="#ffffcc"/>
      <stop offset="0.5411764705882353" stop-color="#ffbb00"/>
      <stop offset="0.6980392156862745" stop-color="#ffff00"/>
      <stop offset="1.0" stop-color="#ff9900"/>
    </linearGradient>
    <linearGradient gradientTransform="matrix(1.0E-4, 0.0, 0.0, 1.0E-4, 289.4, 243.35)" gradientUnits="userSpaceOnUse" id="gradient50" x1="-819.2" x2="819.2">
      <stop offset="0.011764705882352941" stop-color="#ff9900"/>
      <stop offset="0.396078431372549" stop-color="#ffffcc"/>
      <stop offset="0.5411764705882353" stop-color="#ffbb00"/>
      <stop offset="0.6980392156862745" stop-color="#ffff00"/>
      <stop offset="1.0" stop-color="#ff9900"/>
    </linearGradient>
    <linearGradient gradientTransform="matrix(1.0E-4, 0.0, 0.0, 1.0E-4, 289.3, 243.85)" gradientUnits="userSpaceOnUse" id="gradient51" spreadMethod="pad" x1="-819.2" x2="819.2">
      <stop offset="0.011764705882352941" stop-color="#ff9900"/>
      <stop offset="0.396078431372549" stop-color="#ffffcc"/>
      <stop offset="0.5411764705882353" stop-color="#ffbb00"/>
      <stop offset="0.6980392156862745" stop-color="#ffff00"/>
      <stop offset="1.0" stop-color="#ff9900"/>
    </linearGradient>
    <linearGradient gradientTransform="matrix(0.0, 0.0, 0.0, 1.0E-4, 289.6, 243.85)" gradientUnits="userSpaceOnUse" id="gradient52" spreadMethod="pad" x1="-819.2" x2="819.2">
      <stop offset="0.011764705882352941" stop-color="#ff9900"/>
      <stop offset="0.396078431372549" stop-color="#ffffcc"/>
      <stop offset="0.5411764705882353" stop-color="#ffbb00"/>
      <stop offset="0.6980392156862745" stop-color="#ffff00"/>
      <stop offset="1.0" stop-color="#ff9900"/>
    </linearGradient>
    <linearGradient color-interpolation="linearRGB" gradientTransform="matrix(1.0E-4, 0.0, 0.0, 1.0E-4, 291.5, 243.35)" gradientUnits="userSpaceOnUse" id="gradient53" spreadMethod="reflect" x1="-819.2" x2="819.2">
      <stop offset="0.011764705882352941" stop-color="#ff9900"/>
      <stop offset="0.396078431372549" stop-color="#ffffcc"/>
      <stop offset="0.5411764705882353" stop-color="#ffbb00"/>
      <stop offset="0.6980392156862745" stop-color="#ffff00"/>
      <stop offset="1.0" stop-color="#ff9900"/>
    </linearGradient>
    <linearGradient gradientTransform="matrix(1.0E-4, 0.0, 0.0, 0.0, 292.0, 243.45)" gradientUnits="userSpaceOnUse" id="gradient54" spreadMethod="pad" x1="-819.2" x2="819.2">
      <stop offset="0.011764705882352941" stop-color="#ff9900"/>
      <stop offset="0.396078431372549" stop-color="#ffffcc"/>
      <stop offset="0.5411764705882353" stop-color="#ffbb00"/>
      <stop offset="0.6980392156862745" stop-color="#ffff00"/>
      <stop offset="1.0" stop-color="#ff9900"/>
    </linearGradient>
    <linearGradient gradientTransform="matrix(4.0E-4, 0.0, 0.0, 5.0E-4, 267.7, 231.8)" gradientUnits="userSpaceOnUse" id="gradient55" spreadMethod="pad" x1="-819.2" x2="819.2">
      <stop offset="0.011764705882352941" stop-color="#ff9900"/>
      <stop offset="0.396078431372549" stop-color="#ffffcc"/>
      <stop offset="0.5411764705882353" stop-color="#ffbb00"/>
      <stop offset="0.6980392156862745" stop-color="#ffff00"/>
      <stop offset="1.0" stop-color="#ff9900"/>
    </linearGradient>
    <linearGradient gradientTransform="matrix(3.0E-4, 0.0, 0.0, 3.0E-4, 268.7, 232.2)" gradientUnits="userSpaceOnUse" id="gradient56" spreadMethod="pad" x1="-819.2" x2="819.2">
      <stop offset="0.011764705882352941" stop-color="#ff9900"/>
      <stop offset="0.396078431372549" stop-color="#ffffcc"/>
      <stop offset="0.5411764705882353" stop-color="#ffbb00"/>
      <stop offset="0.6980392156862745" stop-color="#ffff00"/>
      <stop offset="1.0" stop-color="#ff9900"/>
    </linearGradient>
    <linearGradient gradientTransform="matrix(2.0E-4, 0.0, 0.0, 2.0E-4, 266.85, 232.0)" gradientUnits="userSpaceOnUse" id="gradient57" spreadMethod="pad" x1="-819.2" x2="819.2">
      <stop offset="0.011764705882352941" stop-color="#ff9900"/>
      <stop offset="0.396078431372549" stop-color="#ffffcc"/>
      <stop offset="0.5411764705882353" stop-color="#ffbb00"/>
      <stop offset="0.6980392156862745" stop-color="#ffff00"/>
      <stop offset="1.0" stop-color="#ff9900"/>
    </linearGradient>
    <linearGradient color-interpolation="linearRGB" gradientTransform="matrix(1.0E-4, 0.0, 0.0, 1.0E-4, 269.6, 234.15)" gradientUnits="userSpaceOnUse" id="gradient58" spreadMethod="pad" x1="-819.2" x2="819.2">
      <stop offset="0.011764705882352941" stop-color="#ff9900"/>
      <stop offset="0.396078431372549" stop-color="#ffffcc"/>
      <stop offset="0.5411764705882353" stop-color="#ffbb00"/>
      <stop offset="0.6980392156862745" stop-color="#ffff00"/>
      <stop offset="1.0" stop-color="#ff9900"/>
    </linearGradient>
    <linearGradient gradientTransform="matrix(2.0E-4, 0.0, 0.0, 3.0E-4, 269.4, 239.25)" gradientUnits="userSpaceOnUse" id="gradient59" spreadMethod="pad" x1="-819.2" x2="819.2">
      <stop offset="0.011764705882352941" stop-color="#ff9900"/>
      <stop offset="0.396078431372549" stop-color="#ffffcc"/>
      <stop offset="0.5411764705882353" stop-color="#ffbb00"/>
      <stop offset="0.6980392156862745" stop-color="#ffff00"/>
      <stop offset="1.0" stop-color="#ff9900"/>
    </linearGradient>
    <linearGradient gradientTransform="matrix(2.0E-4, 0.0, 0.0, 2.0E-4, 271.65, 238.85)" gradientUnits="userSpaceOnUse" id="gradient60" spreadMethod="pad" x1="-819.2" x2="819.2">
      <stop offset="0.011764705882352941" stop-color="#ff9900"/>
      <stop offset="0.396078431372549" stop-color="#ffffcc"/>
      <stop offset="0.5411764705882353" stop-color="#ffbb00"/>
      <stop offset="0.6980392156862745" stop-color="#ffff00"/>
      <stop offset="1.0" stop-color="#ff9900"/>
    </linearGradient>
    <linearGradient gradientTransform="matrix(1.0E-4, 0.0, 0.0, 2.0E-4, 271.75, 239.35)" gradientUnits="userSpaceOnUse" id="gradient61" spreadMethod="pad" x1="-819.2" x2="819.2">
      <stop offset="0.011764705882352941" stop-color="#ff9900"/>
      <stop offset="0.396078431372549" stop-color="#ffffcc"/>
      <stop offset="0.5411764705882353" stop-color="#ffbb00"/>
      <stop offset="0.6980392156862745" stop-color="#ffff00"/>
      <stop offset="1.0" stop-color="#ff9900"/>
    </linearGradient>
    <linearGradient gradientTransform="matrix(1.0E-4, 0.0, 0.0, 2.0E-4, 271.7, 239.85)" gradientUnits="userSpaceOnUse" id="gradient62" spreadMethod="pad" x1="-819.2" x2="819.2">
      <stop offset="0.011764705882352941" stop-color="#ff9900"/>
      <stop offset="0.396078431372549" stop-color="#ffffcc"/>
      <stop offset="0.5411764705882353" stop-color="#ffbb00"/>
      <stop offset="0.6980392156862745" stop-color="#ffff00"/>
      <stop offset="1.0" stop-color="#ff9900"/>
    </linearGradient>
    <linearGradient gradientTransform="matrix(1.0E-4, 0.0, 0.0, 1.0E-4, 270.6, 240.75)" gradientUnits="userSpaceOnUse" id="gradient63" spreadMethod="pad" x1="-819.2" x2="819.2">
      <stop offset="0.011764705882352941" stop-color="#ff9900"/>
      <stop offset="0.396078431372549" stop-color="#ffffcc"/>
      <stop offset="0.5411764705882353" stop-color="#ffbb00"/>
      <stop offset="0.6980392156862745" stop-color="#ffff00"/>
      <stop offset="1.0" stop-color="#ff9900"/>
    </linearGradient>
    <linearGradient gradientTransform="matrix(1.0E-4, 0.0, 0.0, 1.0E-4, 275.45, 241.8)" gradientUnits="userSpaceOnUse" id="gradient64" spreadMethod="reflect" x1="-819.2" x2="819.2">
      <stop offset="0.011764705882352941" stop-color="#ff9900"/>
      <stop offset="0.396078431372549" stop-color="#ffffcc"/>
      <stop offset="0.5411764705882353" stop-color="#ffbb00"/>
      <stop offset="0.6980392156862745" stop-color="#ffff00"/>
      <stop offset="1.0" stop-color="#ff9900"/>
    </linearGradient>
    <linearGradient gradientTransform="matrix(1.0E-4, 0.0, 0.0, 1.0E-4, 274.3, 242.1)" gradientUnits="userSpaceOnUse" id="gradient65" spreadMethod="pad" x1="-819.2" x2="819.2">
      <stop offset="0.011764705882352941" stop-color="#ff9900"/>
      <stop offset="0.396078431372549" stop-color="#ffffcc"/>
      <stop offset="0.5411764705882353" stop-color="#ffbb00"/>
      <stop offset="0.6980392156862745" stop-color="#ffff00"/>
      <stop offset="1.0" stop-color="#ff9900"/>
    </linearGradient>
    <linearGradient gradientTransform="matrix(1.0E-4, 0.0, 0.0, 1.0E-4, 275.95, 243.0)" gradientUnits="userSpaceOnUse" id="gradient66" spreadMethod="pad" x1="-819.2" x2="819.2">
      <stop offset="0.011764705882352941" stop-color="#ff9900"/>
      <stop offset="0.396078431372549" stop-color="#ffffcc"/>
      <stop offset="0.5411764705882353" stop-color="#ffbb00"/>
      <stop offset="0.6980392156862745" stop-color="#ffff00"/>
      <stop offset="1.0" stop-color="#ff9900"/>
    </linearGradient>
    <linearGradient gradientTransform="matrix(1.0E-4, 0.0, 0.0, 1.0E-4, 278.15, 244.65)" gradientUnits="userSpaceOnUse" id="gradient67" spreadMethod="pad" x1="-819.2" x2="819.2">
      <stop offset="0.011764705882352941" stop-color="#ff9900"/>
      <stop offset="0.396078431372549" stop-color="#ffffcc"/>
      <stop offset="0.5411764705882353" stop-color="#ffbb00"/>
      <stop offset="0.6980392156862745" stop-color="#ffff00"/>
      <stop offset="1.0" stop-color="#ff9900"/>
    </linearGradient>
    <linearGradient gradientTransform="matrix(5.0E-4, 0.0, 0.0, 2.0E-4, 276.05, 244.15)" gradientUnits="userSpaceOnUse" id="gradient68" spreadMethod="pad" x1="-819.2" x2="819.2">
      <stop offset="0.011764705882352941" stop-color="#ff9900"/>
      <stop offset="0.396078431372549" stop-color="#ffffcc"/>
      <stop offset="0.5411764705882353" stop-color="#ffbb00"/>
      <stop offset="0.6980392156862745" stop-color="#ffff00"/>
      <stop offset="1.0" stop-color="#ff9900"/>
    </linearGradient>
    <linearGradient gradientTransform="matrix(1.0E-4, 0.0, 0.0, 1.0E-4, 290.0, 243.95)" gradientUnits="userSpaceOnUse" id="gradient69" spreadMethod="pad" x1="-819.2" x2="819.2">
      <stop offset="0.011764705882352941" stop-color="#ff9900"/>
      <stop offset="0.396078431372549" stop-color="#ffffcc"/>
      <stop offset="0.5411764705882353" stop-color="#ffbb00"/>
      <stop offset="0.6980392156862745" stop-color="#ffff00"/>
      <stop offset="1.0" stop-color="#ff9900"/>
    </linearGradient>
    <linearGradient gradientTransform="matrix(0.003, 0.0, 0.0, 5.0E-4, 293.55, 249.35)" gradientUnits="userSpaceOnUse" id="gradient70" spreadMethod="pad" x1="-819.2" x2="819.2">
      <stop offset="0.011764705882352941" stop-color="#ff9900"/>
      <stop offset="0.396078431372549" stop-color="#ffffcc"/>
      <stop offset="0.5411764705882353" stop-color="#ffbb00"/>
      <stop offset="0.6980392156862745" stop-color="#ffff00"/>
      <stop offset="1.0" stop-color="#ff9900"/>
    </linearGradient>
    <linearGradient gradientTransform="matrix(2.0E-4, 0.0, 0.0, 1.0E-4, 290.35, 249.05)" gradientUnits="userSpaceOnUse" id="gradient71" spreadMethod="pad" x1="-819.2" x2="819.2">
      <stop offset="0.011764705882352941" stop-color="#ff9900"/>
      <stop offset="0.396078431372549" stop-color="#ffffcc"/>
      <stop offset="0.5411764705882353" stop-color="#ffbb00"/>
      <stop offset="0.6980392156862745" stop-color="#ffff00"/>
      <stop offset="1.0" stop-color="#ff9900"/>
    </linearGradient>
    <linearGradient gradientTransform="matrix(1.0E-4, 0.0, 0.0, 1.0E-4, 285.25, 244.15)" gradientUnits="userSpaceOnUse" id="gradient72" spreadMethod="pad" x1="-819.2" x2="819.2">
      <stop offset="0.011764705882352941" stop-color="#ff9900"/>
      <stop offset="0.396078431372549" stop-color="#ffffcc"/>
      <stop offset="0.5411764705882353" stop-color="#ffbb00"/>
      <stop offset="0.6980392156862745" stop-color="#ffff00"/>
      <stop offset="1.0" stop-color="#ff9900"/>
    </linearGradient>
    <linearGradient gradientTransform="matrix(8.0E-4, 0.0, 0.0, 0.0013, 316.2, 229.95)" gradientUnits="userSpaceOnUse" id="gradient73" spreadMethod="pad" x1="-819.2" x2="819.2">
      <stop offset="0.011764705882352941" stop-color="#ff9900"/>
      <stop offset="0.396078431372549" stop-color="#ffffcc"/>
      <stop offset="0.5411764705882353" stop-color="#ffbb00"/>
      <stop offset="0.6980392156862745" stop-color="#ffff00"/>
      <stop offset="1.0" stop-color="#ff9900"/>
    </linearGradient>
    <linearGradient gradientTransform="matrix(3.0E-4, 0.0, 0.0, 3.0E-4, 315.25, 231.6)" gradientUnits="userSpaceOnUse" id="gradient74" spreadMethod="pad" x1="-819.2" x2="819.2">
      <stop offset="0.011764705882352941" stop-color="#ff9900"/>
      <stop offset="0.396078431372549" stop-color="#ffffcc"/>
      <stop offset="0.5411764705882353" stop-color="#ffbb00"/>
      <stop offset="0.6980392156862745" stop-color="#ffff00"/>
      <stop offset="1.0" stop-color="#ff9900"/>
    </linearGradient>
    <linearGradient gradientTransform="matrix(2.0E-4, 0.0, 0.0, 2.0E-4, 315.7, 231.5)" gradientUnits="userSpaceOnUse" id="gradient75" spreadMethod="pad" x1="-819.2" x2="819.2">
      <stop offset="0.011764705882352941" stop-color="#ff9900"/>
      <stop offset="0.396078431372549" stop-color="#ffffcc"/>
      <stop offset="0.5411764705882353" stop-color="#ffbb00"/>
      <stop offset="0.6980392156862745" stop-color="#ffff00"/>
      <stop offset="1.0" stop-color="#ff9900"/>
    </linearGradient>
    <linearGradient gradientTransform="matrix(4.0E-4, 0.0, 0.0, 6.0E-4, 315.3, 232.3)" gradientUnits="userSpaceOnUse" id="gradient76" spreadMethod="pad" x1="-819.2" x2="819.2">
      <stop offset="0.011764705882352941" stop-color="#ff9900"/>
      <stop offset="0.396078431372549" stop-color="#ffffcc"/>
      <stop offset="0.5411764705882353" stop-color="#ffbb00"/>
      <stop offset="0.6980392156862745" stop-color="#ffff00"/>
      <stop offset="1.0" stop-color="#ff9900"/>
    </linearGradient>
    <linearGradient gradientTransform="matrix(1.0E-4, 0.0, 0.0, 1.0E-4, 314.15, 234.25)" gradientUnits="userSpaceOnUse" id="gradient77" spreadMethod="pad" x1="-819.2" x2="819.2">
      <stop offset="0.011764705882352941" stop-color="#ff9900"/>
      <stop offset="0.396078431372549" stop-color="#ffffcc"/>
      <stop offset="0.5411764705882353" stop-color="#ffbb00"/>
      <stop offset="0.6980392156862745" stop-color="#ffff00"/>
      <stop offset="1.0" stop-color="#ff9900"/>
    </linearGradient>
    <linearGradient gradientTransform="matrix(0.0042, 0.0, 0.0, 0.0035, 307.8, 236.0)" gradientUnits="userSpaceOnUse" id="gradient78" spreadMethod="pad" x1="-819.2" x2="819.2">
      <stop offset="0.011764705882352941" stop-color="#ff9900"/>
      <stop offset="0.396078431372549" stop-color="#ffffcc"/>
      <stop offset="0.5411764705882353" stop-color="#ffbb00"/>
      <stop offset="0.6980392156862745" stop-color="#ffff00"/>
      <stop offset="1.0" stop-color="#ff9900"/>
    </linearGradient>
    <linearGradient gradientTransform="matrix(0.0016, 0.0, 0.0, 0.0017, 312.25, 235.6)" gradientUnits="userSpaceOnUse" id="gradient79" spreadMethod="pad" x1="-819.2" x2="819.2">
      <stop offset="0.011764705882352941" stop-color="#ff9900"/>
      <stop offset="0.396078431372549" stop-color="#ffffcc"/>
      <stop offset="0.5411764705882353" stop-color="#ffbb00"/>
      <stop offset="0.6980392156862745" stop-color="#ffff00"/>
      <stop offset="1.0" stop-color="#ff9900"/>
    </linearGradient>
    <linearGradient gradientTransform="matrix(1.0E-4, 0.0, 0.0, 1.0E-4, 313.35, 235.4)" gradientUnits="userSpaceOnUse" id="gradient80" spreadMethod="pad" x1="-819.2" x2="819.2">
      <stop offset="0.011764705882352941" stop-color="#ff9900"/>
      <stop offset="0.396078431372549" stop-color="#ffffcc"/>
      <stop offset="0.5411764705882353" stop-color="#ffbb00"/>
      <stop offset="0.6980392156862745" stop-color="#ffff00"/>
      <stop offset="1.0" stop-color="#ff9900"/>
    </linearGradient>
    <linearGradient gradientTransform="matrix(5.0E-4, 0.0, 0.0, 5.0E-4, 310.4, 237.45)" gradientUnits="userSpaceOnUse" id="gradient81" spreadMethod="pad" x1="-819.2" x2="819.2">
      <stop offset="0.011764705882352941" stop-color="#ff9900"/>
      <stop offset="0.396078431372549" stop-color="#ffffcc"/>
      <stop offset="0.5411764705882353" stop-color="#ffbb00"/>
      <stop offset="0.6980392156862745" stop-color="#ffff00"/>
      <stop offset="1.0" stop-color="#ff9900"/>
    </linearGradient>
    <linearGradient gradientTransform="matrix(1.0E-4, 0.0, 0.0, 1.0E-4, 309.65, 238.05)" gradientUnits="userSpaceOnUse" id="gradient82" spreadMethod="pad" x1="-819.2" x2="819.2">
      <stop offset="0.011764705882352941" stop-color="#ff9900"/>
      <stop offset="0.396078431372549" stop-color="#ffffcc"/>
      <stop offset="0.5411764705882353" stop-color="#ffbb00"/>
      <stop offset="0.6980392156862745" stop-color="#ffff00"/>
      <stop offset="1.0" stop-color="#ff9900"/>
    </linearGradient>
    <linearGradient gradientTransform="matrix(0.0016, 0.0, 0.0, 9.0E-4, 307.55, 239.45)" gradientUnits="userSpaceOnUse" id="gradient83" spreadMethod="pad" x1="-819.2" x2="819.2">
      <stop offset="0.011764705882352941" stop-color="#ff9900"/>
      <stop offset="0.396078431372549" stop-color="#ffffcc"/>
      <stop offset="0.5411764705882353" stop-color="#ffbb00"/>
      <stop offset="0.6980392156862745" stop-color="#ffff00"/>
      <stop offset="1.0" stop-color="#ff9900"/>
    </linearGradient>
    <linearGradient gradientTransform="matrix(3.0E-4, 0.0, 0.0, 2.0E-4, 309.15, 238.5)" gradientUnits="userSpaceOnUse" id="gradient84" spreadMethod="pad" x1="-819.2" x2="819.2">
      <stop offset="0.011764705882352941" stop-color="#ff9900"/>
      <stop offset="0.396078431372549" stop-color="#ffffcc"/>
      <stop offset="0.5411764705882353" stop-color="#ffbb00"/>
      <stop offset="0.6980392156862745" stop-color="#ffff00"/>
      <stop offset="1.0" stop-color="#ff9900"/>
    </linearGradient>
    <linearGradient gradientTransform="matrix(0.0042, 0.0, 0.0, 0.001, 299.0, 240.4)" gradientUnits="userSpaceOnUse" id="gradient85" spreadMethod="pad" x1="-819.2" x2="819.2">
      <stop offset="0.011764705882352941" stop-color="#ff9900"/>
      <stop offset="0.396078431372549" stop-color="#ffffcc"/>
      <stop offset="0.5411764705882353" stop-color="#ffbb00"/>
      <stop offset="0.6980392156862745" stop-color="#ffff00"/>
      <stop offset="1.0" stop-color="#ff9900"/>
    </linearGradient>
    <linearGradient gradientTransform="matrix(2.0E-4, 0.0, 0.0, 3.0E-4, 303.95, 238.95)" gradientUnits="userSpaceOnUse" id="gradient86" spreadMethod="pad" x1="-819.2" x2="819.2">
      <stop offset="0.011764705882352941" stop-color="#ff9900"/>
      <stop offset="0.396078431372549" stop-color="#ffffcc"/>
      <stop offset="0.5411764705882353" stop-color="#ffbb00"/>
      <stop offset="0.6980392156862745" stop-color="#ffff00"/>
      <stop offset="1.0" stop-color="#ff9900"/>
    </linearGradient>
    <linearGradient gradientTransform="matrix(1.0E-4, 0.0, 0.0, 1.0E-4, 301.45, 239.25)" gradientUnits="userSpaceOnUse" id="gradient87" spreadMethod="pad" x1="-819.2" x2="819.2">
      <stop offset="0.011764705882352941" stop-color="#ff9900"/>
      <stop offset="0.396078431372549" stop-color="#ffffcc"/>
      <stop offset="0.5411764705882353" stop-color="#ffbb00"/>
      <stop offset="0.6980392156862745" stop-color="#ffff00"/>
      <stop offset="1.0" stop-color="#ff9900"/>
    </linearGradient>
    <linearGradient gradientTransform="matrix(2.0E-4, 0.0, 0.0, 2.0E-4, 302.65, 239.4)" gradientUnits="userSpaceOnUse" id="gradient88" spreadMethod="pad" x1="-819.2" x2="819.2">
      <stop offset="0.011764705882352941" stop-color="#ff9900"/>
      <stop offset="0.396078431372549" stop-color="#ffffcc"/>
      <stop offset="0.5411764705882353" stop-color="#ffbb00"/>
      <stop offset="0.6980392156862745" stop-color="#ffff00"/>
      <stop offset="1.0" stop-color="#ff9900"/>
    </linearGradient>
    <linearGradient gradientTransform="matrix(3.0E-4, 0.0, 0.0, 2.0E-4, 303.2, 239.3)" gradientUnits="userSpaceOnUse" id="gradient89" spreadMethod="pad" x1="-819.2" x2="819.2">
      <stop offset="0.011764705882352941" stop-color="#ff9900"/>
      <stop offset="0.396078431372549" stop-color="#ffffcc"/>
      <stop offset="0.5411764705882353" stop-color="#ffbb00"/>
      <stop offset="0.6980392156862745" stop-color="#ffff00"/>
      <stop offset="1.0" stop-color="#ff9900"/>
    </linearGradient>
    <linearGradient gradientTransform="matrix(0.0013, 0.0, 0.0, 5.0E-4, 304.1, 241.25)" gradientUnits="userSpaceOnUse" id="gradient90" spreadMethod="pad" x1="-819.2" x2="819.2">
      <stop offset="0.011764705882352941" stop-color="#ff9900"/>
      <stop offset="0.396078431372549" stop-color="#ffffcc"/>
      <stop offset="0.5411764705882353" stop-color="#ffbb00"/>
      <stop offset="0.6980392156862745" stop-color="#ffff00"/>
      <stop offset="1.0" stop-color="#ff9900"/>
    </linearGradient>
    <linearGradient gradientTransform="matrix(0.0, 0.0, 0.0, 1.0E-4, 305.15, 248.45)" gradientUnits="userSpaceOnUse" id="gradient91" spreadMethod="pad" x1="-819.2" x2="819.2">
      <stop offset="0.011764705882352941" stop-color="#ff9900"/>
      <stop offset="0.396078431372549" stop-color="#ffffcc"/>
      <stop offset="0.5411764705882353" stop-color="#ffbb00"/>
      <stop offset="0.6980392156862745" stop-color="#ffff00"/>
      <stop offset="1.0" stop-color="#ff9900"/>
    </linearGradient>
    <linearGradient gradientTransform="matrix(0.0, 0.018, -0.0218, 0.0, 296.4, 222.6)" gradientUnits="userSpaceOnUse" id="gradient92" spreadMethod="pad" x1="-819.2" x2="819.2">
      <stop offset="0.0" stop-color="#ff0000"/>
      <stop offset="0.5411764705882353" stop-color="#ff3399"/>
      <stop offset="1.0" stop-color="#ff6600"/>
    </linearGradient>
    <linearGradient gradientTransform="matrix(0.0, 0.018, -0.0218, 0.0, 296.4, 222.6)" gradientUnits="userSpaceOnUse" id="gradient93" spreadMethod="pad" x1="-819.2" x2="819.2">
      <stop offset="0.0" stop-color="#ff0000"/>
      <stop offset="0.5411764705882353" stop-color="#ff3399"/>
      <stop offset="1.0" stop-color="#ff6600"/>
    </linearGradient>
    <linearGradient gradientTransform="matrix(0.0, 0.018, -0.0218, 0.0, 296.4, 222.6)" gradientUnits="userSpaceOnUse" id="gradient94" spreadMethod="pad" x1="-819.2" x2="819.2">
      <stop offset="0.0" stop-color="#ff0000"/>
      <stop offset="0.5411764705882353" stop-color="#ff3399"/>
      <stop offset="1.0" stop-color="#ff6600"/>
    </linearGradient>
  </defs>
</svg>
