<?xml version="1.0" encoding="UTF-8" standalone="no"?>
<svg xmlns:ffdec="https://www.free-decompiler.com/flash" xmlns:xlink="http://www.w3.org/1999/xlink" ffdec:objectType="shape" height="33.3px" width="33.55px" xmlns="http://www.w3.org/2000/svg">
  <g transform="matrix(1.0, 0.0, 0.0, 1.0, 1.15, 2.35)">
    <path d="M28.55 4.05 L19.25 4.8 18.3 5.45 27.45 6.2 28.4 7.85 19.25 8.6 18.3 9.35 29.6 10.05 30.9 12.15 11.55 12.15 4.7 12.9 8.85 13.65 28.55 13.35 26.4 18.5 29.6 19.5 30.65 21.3 26.6 22.65 26.0 23.75 29.45 25.85 25.25 26.6 23.25 29.45 14.1 28.1 18.65 26.6 18.0 25.85 4.65 26.7 3.2 22.25 0.35 19.95 4.25 18.95 3.2 13.65 0.45 10.65 12.8 9.05 12.3 8.3 4.95 8.1 4.2 6.95 12.8 5.85 11.75 5.0 3.35 4.7 2.45 2.45 12.05 1.7 15.75 -0.85 18.9 1.65 29.15 2.0 28.55 4.05 M16.65 18.5 L22.1 18.45 21.0 15.45 13.65 15.75 19.25 17.15 16.65 18.5 M11.9 16.4 L9.8 15.75 8.25 18.95 13.4 18.95 11.9 16.4 M13.35 23.75 L11.55 21.35 9.0 21.6 8.1 24.35 13.35 23.75 M19.05 22.65 L15.6 24.35 21.5 24.05 20.7 21.0 15.6 21.6 19.05 22.65" fill="url(#gradient0)" fill-rule="evenodd" stroke="none"/>
    <path d="M28.55 4.05 L19.25 4.8 18.3 5.45 27.45 6.2 28.4 7.85 19.25 8.6 18.3 9.35 29.6 10.05 30.9 12.15 11.55 12.15 4.7 12.9 8.85 13.65 28.55 13.35 26.4 18.5 29.6 19.5 30.65 21.3 26.6 22.65 26.0 23.75 29.45 25.85 25.25 26.6 23.25 29.45 14.1 28.1 18.65 26.6 18.0 25.85 4.65 26.7 3.2 22.25 0.35 19.95 4.25 18.95 3.2 13.65 0.45 10.65 12.8 9.05 12.3 8.3 4.95 8.1 4.2 6.95 12.8 5.85 11.75 5.0 3.35 4.7 2.45 2.45 12.05 1.7 15.75 -0.85 18.9 1.65 29.15 2.0 28.55 4.05 M16.65 18.5 L22.1 18.45 21.0 15.45 13.65 15.75 19.25 17.15 16.65 18.5 M11.9 16.4 L9.8 15.75 8.25 18.95 13.4 18.95 11.9 16.4 M13.35 23.75 L11.55 21.35 9.0 21.6 8.1 24.35 13.35 23.75 M19.05 22.65 L15.6 24.35 21.5 24.05 20.7 21.0 15.6 21.6 19.05 22.65 Z" fill="none" stroke="#330066" stroke-linecap="round" stroke-linejoin="round" stroke-width="3.0"/>
    <path d="M28.55 4.05 L19.25 4.8 18.3 5.45 27.45 6.2 28.4 7.85 19.25 8.6 18.3 9.35 29.6 10.05 30.9 12.15 11.55 12.15 4.7 12.9 8.85 13.65 28.55 13.35 26.4 18.5 29.6 19.5 30.65 21.3 26.6 22.65 26.0 23.75 29.45 25.85 25.25 26.6 23.25 29.45 14.1 28.1 18.65 26.6 18.0 25.85 4.65 26.7 3.2 22.25 0.35 19.95 4.25 18.95 3.2 13.65 0.45 10.65 12.8 9.05 12.3 8.3 4.95 8.1 4.2 6.95 12.8 5.85 11.75 5.0 3.35 4.7 2.45 2.45 12.05 1.7 15.75 -0.85 18.9 1.65 29.15 2.0 28.55 4.05 M16.65 18.5 L22.1 18.45 21.0 15.45 13.65 15.75 19.25 17.15 16.65 18.5 M11.9 16.4 L9.8 15.75 8.25 18.95 13.4 18.95 11.9 16.4 M9.0 21.6 L8.1 24.35 13.35 23.75 11.55 21.35 9.0 21.6 M20.7 21.0 L15.6 21.6 19.05 22.65 15.6 24.35 21.5 24.05 20.7 21.0" fill="url(#gradient1)" fill-rule="evenodd" stroke="none"/>
  </g>
  <defs>
    <linearGradient gradientTransform="matrix(9.0E-4, 0.0186, -0.0185, 9.0E-4, 15.6, 14.3)" gradientUnits="userSpaceOnUse" id="gradient0" spreadMethod="pad" x1="-819.2" x2="819.2">
      <stop offset="0.0" stop-color="#ff99ff"/>
      <stop offset="1.0" stop-color="#6633ff"/>
    </linearGradient>
    <linearGradient gradientTransform="matrix(9.0E-4, 0.0186, -0.0185, 9.0E-4, 15.6, 14.3)" gradientUnits="userSpaceOnUse" id="gradient1" spreadMethod="pad" x1="-819.2" x2="819.2">
      <stop offset="0.0" stop-color="#99ffbe"/>
      <stop offset="0.5764705882352941" stop-color="#ff99ff"/>
      <stop offset="1.0" stop-color="#6633ff"/>
    </linearGradient>
  </defs>
</svg>
