<?xml version="1.0" encoding="UTF-8" standalone="no"?>
<svg xmlns:ffdec="https://www.free-decompiler.com/flash" xmlns:xlink="http://www.w3.org/1999/xlink" ffdec:objectType="shape" height="21.45px" width="21.75px" xmlns="http://www.w3.org/2000/svg">
  <g transform="matrix(1.0, 0.0, 0.0, 1.0, -4.5, -2.9)">
    <path d="M16.3 13.3 L16.25 13.6 Q16.2 14.1 17.15 14.0 L18.05 14.0 18.05 13.7 Q17.95 13.0 17.35 12.9 L16.55 13.0 16.3 13.3 M18.05 16.45 L16.45 16.65 Q16.95 17.1 17.0 17.75 L16.95 18.7 Q17.95 18.95 17.95 17.6 L18.05 16.45 M13.35 12.75 L13.25 12.7 11.55 14.1 11.25 14.25 11.25 14.45 12.45 15.45 Q13.65 16.6 13.65 17.9 L13.6 18.4 Q14.15 17.35 14.2 16.5 L14.15 16.25 Q13.6 15.95 13.35 15.35 13.2 14.95 13.2 14.4 L13.4 12.85 13.35 12.75 M7.5 5.8 L7.5 5.2 8.4 4.95 Q9.25 4.4 9.9 4.4 11.95 4.55 12.1 6.1 L11.8 7.3 11.8 7.45 11.4 10.4 Q12.3 9.35 12.35 8.6 L11.85 8.05 Q13.75 8.4 13.8 10.55 L14.15 10.55 14.5 10.5 14.75 10.0 14.9 9.7 Q12.9 9.6 12.95 6.5 L14.15 6.75 16.1 6.5 15.85 6.1 15.7 5.5 15.7 5.2 15.75 4.85 17.35 4.7 18.4 4.4 Q20.4 4.5 20.85 6.05 L21.55 6.05 Q24.45 5.95 24.35 8.05 24.3 9.25 22.65 9.3 L19.35 9.4 18.9 10.1 Q21.7 10.35 21.85 12.5 L21.85 12.75 21.95 12.75 Q23.75 12.8 24.3 13.8 L24.5 14.8 Q24.55 16.55 22.8 16.45 L21.8 16.45 24.2 18.55 Q24.75 19.25 24.75 20.2 24.55 21.8 23.05 21.95 21.95 21.9 21.25 20.7 21.2 22.85 18.95 22.85 16.8 22.75 16.65 20.5 L16.65 20.1 Q15.6 22.05 14.15 22.1 12.55 21.95 11.95 20.65 L12.65 19.95 12.5 20.0 12.4 20.0 Q11.4 20.15 10.85 19.0 L10.7 20.5 Q10.25 22.45 8.35 22.65 7.15 22.55 6.0 21.4 7.5 20.0 8.1 15.05 L8.1 14.95 8.05 15.05 7.35 15.35 Q6.45 15.35 6.15 14.4 L6.0 13.15 6.8 8.6 Q7.9 9.4 8.35 10.2 8.35 7.5 7.8 6.9 7.45 6.55 7.5 5.8" fill="#ff8300" fill-rule="evenodd" stroke="none"/>
    <path d="M7.5 5.8 Q7.45 6.55 7.8 6.9 8.35 7.5 8.35 10.2 7.9 9.4 6.8 8.6 L6.0 13.15 6.15 14.4 Q6.45 15.35 7.35 15.35 L8.05 15.05 8.1 14.95 8.1 15.05 Q7.5 20.0 6.0 21.4 7.15 22.55 8.35 22.65 10.25 22.45 10.7 20.5 L10.85 19.0 Q11.4 20.15 12.4 20.0 L12.5 20.0 12.65 19.95 11.95 20.65 Q12.55 21.95 14.15 22.1 15.6 22.05 16.65 20.1 L16.65 20.5 Q16.8 22.75 18.95 22.85 21.2 22.85 21.25 20.7 21.95 21.9 23.05 21.95 24.55 21.8 24.75 20.2 24.75 19.25 24.2 18.55 L21.8 16.45 22.8 16.45 Q24.55 16.55 24.5 14.8 L24.3 13.8 Q23.75 12.8 21.95 12.75 L21.85 12.75 21.85 12.5 Q21.7 10.35 18.9 10.1 L19.35 9.4 22.65 9.3 Q24.3 9.25 24.35 8.05 24.45 5.95 21.55 6.05 L20.85 6.05 Q20.4 4.5 18.4 4.4 L17.35 4.7 15.75 4.85 15.7 5.2 15.7 5.5 15.85 6.1 16.1 6.5 14.15 6.75 12.95 6.5 Q12.9 9.6 14.9 9.7 L14.75 10.0 14.5 10.5 14.15 10.55 13.8 10.55 Q13.75 8.4 11.85 8.05 L12.35 8.6 Q12.3 9.35 11.4 10.4 L11.8 7.45 11.8 7.3 12.1 6.1 Q11.95 4.55 9.9 4.4 9.25 4.4 8.4 4.95 L7.5 5.2 7.5 5.8 M13.35 12.75 L13.4 12.85 13.2 14.4 Q13.2 14.95 13.35 15.35 13.6 15.95 14.15 16.25 L14.2 16.5 Q14.15 17.35 13.6 18.4 L13.65 17.9 Q13.65 16.6 12.45 15.45 L11.25 14.45 11.25 14.25 11.55 14.1 13.25 12.7 13.35 12.75 M18.05 16.45 L17.95 17.6 Q17.95 18.95 16.95 18.7 L17.0 17.75 Q16.95 17.1 16.45 16.65 L18.05 16.45 M16.3 13.3 L16.55 13.0 17.35 12.9 Q17.95 13.0 18.05 13.7 L18.05 14.0 17.15 14.0 Q16.2 14.1 16.25 13.6 L16.3 13.3 Z" fill="none" stroke="#660000" stroke-linecap="round" stroke-linejoin="round" stroke-width="3.0"/>
    <path d="M6.2 14.35 Q6.05 13.85 6.05 13.1 L6.85 8.55 Q7.95 9.35 8.4 10.15 8.4 7.45 7.85 6.85 7.5 6.5 7.55 5.75 L7.55 5.15 8.45 4.9 Q9.3 4.35 9.95 4.35 12.0 4.5 12.15 6.05 L11.85 7.25 11.85 7.4 11.45 10.35 Q12.35 9.3 12.4 8.55 L11.9 8.0 Q13.8 8.35 13.85 10.5 L14.2 10.5 14.55 10.45 14.8 9.95 14.95 9.65 Q12.95 9.55 13.0 6.45 L14.2 6.7 16.15 6.45 15.9 6.05 15.75 5.45 15.75 5.15 15.8 4.8 17.4 4.65 18.45 4.35 Q20.45 4.45 20.9 6.0 L21.6 6.0 Q24.5 5.9 24.4 8.0 24.35 9.2 22.7 9.25 L19.4 9.35 18.95 10.05 Q21.75 10.3 21.9 12.45 L21.9 12.7 22.0 12.7 Q23.8 12.75 24.35 13.75 L24.3 13.75 Q20.8 13.75 17.6 14.6 L13.4 15.3 Q13.25 14.9 13.25 14.35 L13.45 12.8 13.4 12.7 13.3 12.65 11.6 14.05 11.3 14.2 11.3 14.4 12.5 15.4 11.2 15.4 8.15 15.0 8.15 14.9 8.1 15.0 6.35 14.4 6.2 14.35 M13.25 10.7 Q13.25 10.25 12.7 10.4 12.7 11.7 12.15 12.2 L11.6 12.65 11.65 12.85 11.8 12.85 Q13.25 12.15 13.25 10.7 M8.6 6.4 L8.6 6.7 9.05 7.0 Q9.35 7.0 9.35 6.6 9.35 6.05 9.0 5.9 8.6 5.8 8.6 6.4 M23.4 7.25 L23.05 7.25 23.05 7.9 Q23.15 8.1 23.45 8.1 L23.7 8.0 23.7 7.35 23.4 7.25 M21.2 6.3 L21.2 6.6 21.9 7.15 22.3 7.1 22.5 7.05 22.5 6.95 Q22.35 6.3 21.6 6.3 L21.2 6.3 M16.35 13.25 L16.3 13.55 Q16.25 14.05 17.2 13.95 L18.1 13.95 18.1 13.65 Q18.0 12.95 17.4 12.85 L16.6 12.95 16.35 13.25 M8.5 11.1 Q8.35 10.5 7.55 10.5 L7.55 10.75 7.95 11.05 8.3 11.2 8.5 11.1 M18.35 11.25 L18.4 11.45 Q19.35 11.3 19.9 11.9 20.35 12.35 20.35 12.9 L20.55 12.95 20.75 12.9 20.75 12.05 Q20.25 11.2 19.3 10.85 18.35 10.5 18.35 11.25" fill="url(#gradient0)" fill-rule="evenodd" stroke="none"/>
    <path d="M6.2 14.35 L6.35 14.4 8.1 15.0 7.4 15.3 Q6.5 15.3 6.2 14.35" fill="url(#gradient1)" fill-rule="evenodd" stroke="none"/>
    <path d="M8.15 15.0 L11.2 15.4 12.5 15.4 Q13.7 16.55 13.7 17.85 L13.65 18.35 14.25 16.45 14.2 16.2 Q13.65 15.9 13.4 15.3 L17.6 14.6 Q20.8 13.75 24.3 13.75 L24.35 13.75 24.55 14.75 Q24.6 16.5 22.85 16.4 L21.85 16.4 24.25 18.5 Q24.8 19.2 24.8 20.15 24.6 21.75 23.1 21.9 22.0 21.85 21.3 20.65 21.25 22.8 19.0 22.8 16.85 22.7 16.7 20.45 L16.7 20.05 Q15.65 22.0 14.2 22.05 12.6 21.9 12.0 20.6 L12.7 19.9 12.55 19.95 12.45 19.95 Q11.45 20.1 10.9 18.95 L10.75 20.45 Q10.3 22.4 8.4 22.6 7.2 22.5 6.05 21.35 7.55 19.95 8.15 15.0 M18.0 17.55 L18.1 16.4 16.5 16.6 17.05 17.7 17.0 18.65 Q18.0 18.9 18.0 17.55 M23.7 19.0 Q23.65 19.45 24.0 19.95 L24.2 19.85 24.25 19.2 24.2 19.0 23.7 19.0 M23.95 15.55 L23.9 15.35 23.45 15.45 23.45 15.7 23.75 15.95 23.95 15.55" fill="url(#gradient2)" fill-rule="evenodd" stroke="none"/>
    <path d="M21.2 6.3 L21.6 6.3 Q22.35 6.3 22.5 6.95 L22.5 7.05 22.3 7.1 21.9 7.15 21.2 6.6 21.2 6.3 M23.4 7.25 L23.7 7.35 23.7 8.0 23.45 8.1 Q23.15 8.1 23.05 7.9 L23.05 7.25 23.4 7.25 M8.6 6.4 Q8.6 5.8 9.0 5.9 9.35 6.05 9.35 6.6 9.35 7.0 9.05 7.0 L8.6 6.7 8.6 6.4 M13.25 10.7 Q13.25 12.15 11.8 12.85 L11.65 12.85 11.6 12.65 12.15 12.2 Q12.7 11.7 12.7 10.4 13.25 10.25 13.25 10.7 M8.5 11.1 L8.3 11.2 7.95 11.05 7.55 10.75 7.55 10.5 Q8.35 10.5 8.5 11.1 M18.35 11.25 Q18.35 10.5 19.3 10.85 20.25 11.2 20.75 12.05 L20.75 12.9 20.55 12.95 20.35 12.9 Q20.35 12.35 19.9 11.9 19.35 11.3 18.4 11.45 L18.35 11.25 M23.95 15.55 L23.75 15.95 23.45 15.7 23.45 15.45 23.9 15.35 23.95 15.55 M23.7 19.0 L24.2 19.0 24.25 19.2 24.2 19.85 24.0 19.95 Q23.65 19.45 23.7 19.0" fill="#ffffff" fill-rule="evenodd" stroke="none"/>
  </g>
  <defs>
    <linearGradient gradientTransform="matrix(0.0, 0.0114, -0.0113, 0.0, 15.45, 13.6)" gradientUnits="userSpaceOnUse" id="gradient0" spreadMethod="pad" x1="-819.2" x2="819.2">
      <stop offset="0.0" stop-color="#ffcc00"/>
      <stop offset="1.0" stop-color="#ff6600"/>
    </linearGradient>
    <linearGradient gradientTransform="matrix(0.0, 0.0056, -0.0113, 0.0, 16.1, 15.65)" gradientUnits="userSpaceOnUse" id="gradient1" spreadMethod="pad" x1="-819.2" x2="819.2">
      <stop offset="0.0" stop-color="#ffdd41"/>
      <stop offset="1.0" stop-color="#f50d33"/>
    </linearGradient>
    <linearGradient gradientTransform="matrix(0.0, 0.0056, -0.0113, 0.0, 16.1, 15.65)" gradientUnits="userSpaceOnUse" id="gradient2" spreadMethod="pad" x1="-819.2" x2="819.2">
      <stop offset="0.0" stop-color="#f7a322"/>
      <stop offset="1.0" stop-color="#f50d33"/>
    </linearGradient>
  </defs>
</svg>
