<?xml version="1.0" encoding="UTF-8" standalone="no"?>
<svg xmlns:ffdec="https://www.free-decompiler.com/flash" xmlns:xlink="http://www.w3.org/1999/xlink" ffdec:objectType="shape" height="31.55px" width="30.75px" xmlns="http://www.w3.org/2000/svg">
  <g transform="matrix(1.0, 0.0, 0.0, 1.0, 2.25, 1.55)">
    <path d="M20.75 1.45 L17.6 1.45 17.6 2.9 13.35 2.9 13.35 5.9 17.6 5.9 17.6 15.5 20.75 14.05 20.75 5.9 24.2 5.9 25.35 2.9 20.75 2.9 20.75 1.45 M8.65 3.05 L8.65 1.55 5.4 1.55 5.4 3.05 1.05 3.05 1.05 5.9 5.4 5.9 5.4 15.65 8.65 14.25 8.65 5.9 11.75 5.9 12.95 3.05 8.65 3.05 M8.95 6.55 L9.9 15.0 12.9 15.0 11.8 6.55 8.95 6.55 M14.35 6.55 L13.1 15.0 16.2 15.0 17.2 6.55 14.35 6.55 M21.1 6.55 L22.25 15.0 25.3 15.0 24.0 6.55 21.1 6.55 M1.95 6.55 L0.75 14.85 3.85 14.85 5.05 6.55 1.95 6.55 M6.45 19.1 L19.9 19.1 19.9 26.45 24.2 26.45 25.5 23.55 24.15 23.55 24.15 16.2 2.2 16.2 2.2 27.0 6.45 25.15 6.45 19.1 M13.55 20.25 L8.75 20.25 12.6 25.35 17.45 25.35 13.55 20.25 Z" fill="none" stroke="#990000" stroke-linecap="round" stroke-linejoin="round" stroke-width="6.0"/>
    <path d="M20.75 1.45 L17.6 1.45 17.6 2.9 13.35 2.9 13.35 5.9 17.6 5.9 17.6 15.5 20.75 14.05 20.75 5.9 24.2 5.9 25.35 2.9 20.75 2.9 20.75 1.45 M8.65 3.05 L8.65 1.55 5.4 1.55 5.4 3.05 1.05 3.05 1.05 5.9 5.4 5.9 5.4 15.65 8.65 14.25 8.65 5.9 11.75 5.9 12.95 3.05 8.65 3.05 M8.95 6.55 L9.9 15.0 12.9 15.0 11.8 6.55 8.95 6.55 M14.35 6.55 L13.1 15.0 16.2 15.0 17.2 6.55 14.35 6.55 M21.1 6.55 L22.25 15.0 25.3 15.0 24.0 6.55 21.1 6.55 M1.95 6.55 L0.75 14.85 3.85 14.85 5.05 6.55 1.95 6.55 M6.45 19.1 L19.9 19.1 19.9 26.45 24.2 26.45 25.5 23.55 24.15 23.55 24.15 16.2 2.2 16.2 2.2 27.0 6.45 25.15 6.45 19.1 M13.55 20.25 L8.75 20.25 12.6 25.35 17.45 25.35 13.55 20.25 Z" fill="none" stroke="#cc6600" stroke-linecap="round" stroke-linejoin="round" stroke-width="2.0"/>
    <path d="M8.6 20.25 L13.4 20.25 17.25 25.3 12.45 25.3 8.6 20.25 M2.0 27.0 L2.0 16.2 23.95 16.2 23.95 23.55 25.35 23.55 24.05 26.4 19.7 26.4 19.7 19.1 6.25 19.1 6.25 25.1 2.0 27.0 M3.65 14.8 L0.6 14.8 1.8 6.55 4.85 6.55 3.65 14.8 M14.15 6.55 L17.05 6.55 16.05 15.0 12.95 15.0 14.15 6.55 M20.95 6.55 L23.8 6.55 25.1 15.0 22.05 15.0 20.95 6.55 M13.15 5.9 L13.15 2.9 17.45 2.9 17.45 1.45 20.6 1.45 20.6 2.9 25.2 2.9 24.05 5.9 20.6 5.9 20.6 14.05 17.45 15.45 17.45 5.9 13.15 5.9 M8.5 3.0 L12.75 3.0 11.6 5.9 8.5 5.9 8.5 14.3 5.25 15.6 5.25 5.9 0.85 5.9 0.85 3.0 5.25 3.0 5.25 1.5 8.5 1.5 8.5 3.0 M8.8 6.55 L11.65 6.55 12.75 15.0 9.7 15.0 8.8 6.55" fill="url(#gradient0)" fill-rule="evenodd" stroke="none"/>
  </g>
  <defs>
    <linearGradient gradientTransform="matrix(0.0, 0.0139, -0.0151, 0.0, 12.95, 12.55)" gradientUnits="userSpaceOnUse" id="gradient0" spreadMethod="pad" x1="-819.2" x2="819.2">
      <stop offset="0.0" stop-color="#ffff66"/>
      <stop offset="1.0" stop-color="#ffcc00"/>
    </linearGradient>
  </defs>
</svg>
