<?xml version="1.0" encoding="UTF-8" standalone="no"?>
<svg xmlns:ffdec="https://www.free-decompiler.com/flash" xmlns:xlink="http://www.w3.org/1999/xlink" ffdec:objectType="shape" height="21.6px" width="21.75px" xmlns="http://www.w3.org/2000/svg">
  <g transform="matrix(1.0, 0.0, 0.0, 1.0, -4.0, -2.7)">
    <path d="M21.55 4.2 Q19.55 4.2 18.85 5.25 L19.7 5.15 Q20.9 5.15 20.7 7.85 L20.7 8.15 20.7 10.95 20.75 13.8 20.7 16.3 20.7 16.8 Q20.65 18.35 19.85 18.5 L19.35 18.5 18.45 18.4 17.5 18.35 17.45 18.35 17.25 18.4 17.25 18.5 17.75 19.0 Q18.3 19.5 18.45 20.2 18.85 22.85 21.55 22.8 24.25 22.8 24.25 19.65 L24.15 16.5 24.0 13.4 24.0 13.1 24.15 10.0 24.25 6.9 Q24.25 4.2 21.55 4.2 M20.3 13.8 L20.3 13.95 Q20.45 17.55 18.85 17.55 17.1 17.55 17.2 14.45 L17.25 13.55 17.35 11.3 17.5 8.25 17.35 6.65 Q20.3 6.75 20.2 9.95 L20.3 13.65 20.3 13.8 M14.5 4.3 Q17.25 4.4 17.35 6.25 17.35 7.85 15.1 8.4 L15.15 8.65 15.0 9.35 Q17.25 9.5 17.25 12.3 L17.05 13.55 Q15.5 22.0 11.75 22.8 9.95 22.7 9.2 21.0 10.55 20.1 12.15 17.75 L11.8 17.85 Q10.2 17.75 10.15 15.55 L10.3 14.7 10.45 13.9 10.45 13.8 9.4 13.1 9.3 14.8 9.55 16.55 9.9 18.6 Q9.8 20.85 7.8 20.95 5.5 20.85 5.5 18.5 L5.75 16.9 6.1 15.4 5.85 14.15 7.05 14.45 Q7.95 14.5 8.75 13.15 L9.45 11.6 9.45 11.8 9.4 12.6 Q11.3 10.25 11.4 8.6 L11.4 8.4 Q9.7 7.85 9.8 4.9 L10.8 5.0 12.65 4.75 14.5 4.3 M5.85 4.9 L6.0 4.9 Q10.05 5.0 10.3 8.35 10.2 10.95 8.2 11.05 6.0 11.1 6.1 8.25 L6.2 7.4 6.2 6.6 Q6.2 5.5 5.85 4.9 M13.5 12.7 L13.3 12.7 13.15 12.95 13.05 13.2 12.65 13.65 Q13.4 13.95 13.4 15.4 L13.4 15.65 Q14.25 14.2 14.25 13.3 14.25 12.7 13.5 12.7 Z" fill="none" stroke="#003366" stroke-linecap="round" stroke-linejoin="round" stroke-width="3.0"/>
    <path d="M21.5 13.9 L21.6 9.9 21.65 7.3 Q21.55 5.0 20.5 4.85 L20.45 5.0 20.75 5.85 21.2 7.45 21.2 9.95 Q21.15 12.85 21.25 13.85 L20.75 13.8 20.7 10.95 20.7 8.15 20.7 7.85 Q20.9 5.15 19.7 5.15 L18.85 5.25 Q19.55 4.2 21.55 4.2 24.25 4.2 24.25 6.9 L24.15 10.0 24.0 13.1 22.75 13.75 21.5 13.9 M17.25 13.55 L17.35 11.3 17.5 8.25 17.35 6.65 Q20.3 6.75 20.2 9.95 L20.3 13.65 20.3 13.8 18.0 13.65 18.0 13.45 18.2 10.4 Q18.2 7.1 17.6 7.45 L17.6 7.95 Q17.8 8.5 17.8 10.35 L17.65 13.6 17.25 13.55 M11.4 6.1 L10.6 5.95 10.6 6.55 10.7 6.75 Q10.8 6.9 11.05 6.9 11.45 6.9 11.45 6.45 L11.4 6.1 M8.75 13.15 L9.45 11.6 9.45 11.8 9.4 12.6 Q11.3 10.25 11.4 8.6 L11.4 8.4 Q9.7 7.85 9.8 4.9 L10.8 5.0 12.65 4.75 14.5 4.3 Q17.25 4.4 17.35 6.25 17.35 7.85 15.1 8.4 L15.15 8.65 15.0 9.35 Q17.25 9.5 17.25 12.3 L17.05 13.55 14.25 13.3 Q14.25 12.7 13.5 12.7 L13.3 12.7 13.15 12.95 13.05 13.2 11.15 13.0 8.75 13.15 M6.8 5.65 L6.6 5.85 7.05 7.3 6.95 8.8 Q7.0 10.2 7.95 10.2 L8.25 9.9 Q7.55 9.4 7.4 9.15 L7.35 8.4 7.5 7.15 Q7.5 6.65 6.8 5.65 M12.45 9.2 L12.4 9.05 Q11.9 9.2 11.3 10.65 10.8 11.85 10.8 12.2 L11.1 12.55 12.45 9.2 M6.0 4.9 Q10.05 5.0 10.3 8.35 10.2 10.95 8.2 11.05 6.0 11.1 6.1 8.25 L6.2 7.4 6.2 6.6 Q6.2 5.5 5.85 4.9 L6.0 4.9" fill="#00ccff" fill-rule="evenodd" stroke="none"/>
    <path d="M21.25 13.85 Q21.15 12.85 21.2 9.95 L21.2 7.45 20.75 5.85 20.45 5.0 20.5 4.85 Q21.55 5.0 21.65 7.3 L21.6 9.9 21.5 13.9 21.5 14.35 21.3 14.4 21.25 13.85 M18.0 13.65 Q17.9 15.3 18.1 16.45 L18.1 16.5 17.95 16.55 Q17.65 16.55 17.6 15.65 L17.6 14.75 17.65 13.6 17.8 10.35 Q17.8 8.5 17.6 7.95 L17.6 7.45 Q18.2 7.1 18.2 10.4 L18.0 13.45 18.0 13.65 M11.4 6.1 L11.45 6.45 Q11.45 6.9 11.05 6.9 10.8 6.9 10.7 6.75 L10.6 6.55 10.6 5.95 11.4 6.1 M12.45 9.2 L11.1 12.55 10.8 12.2 Q10.8 11.85 11.3 10.65 11.9 9.2 12.4 9.05 L12.45 9.2 M6.8 5.65 Q7.5 6.65 7.5 7.15 L7.35 8.4 7.4 9.15 Q7.55 9.4 8.25 9.9 L7.95 10.2 Q7.0 10.2 6.95 8.8 L7.05 7.3 6.6 5.85 6.8 5.65" fill="#ffffff" fill-rule="evenodd" stroke="none"/>
    <path d="M21.5 13.9 L22.75 13.75 24.0 13.1 24.0 13.4 24.15 16.5 24.25 19.65 Q24.25 22.8 21.55 22.8 18.85 22.85 18.45 20.2 18.3 19.5 17.75 19.0 L17.25 18.5 17.25 18.4 17.45 18.35 17.5 18.35 18.45 18.4 19.35 18.5 19.85 18.5 Q20.65 18.35 20.7 16.8 L20.7 16.3 20.75 13.8 21.25 13.85 21.3 14.4 21.5 14.35 21.5 13.9 M20.3 13.8 L20.3 13.95 Q20.45 17.55 18.85 17.55 17.1 17.55 17.2 14.45 L17.25 13.55 17.65 13.6 17.6 14.75 17.6 15.65 Q17.65 16.55 17.95 16.55 L18.1 16.5 18.1 16.45 Q17.9 15.3 18.0 13.65 L20.3 13.8 M17.05 13.55 Q15.5 22.0 11.75 22.8 9.95 22.7 9.2 21.0 10.55 20.1 12.15 17.75 L11.8 17.85 Q10.2 17.75 10.15 15.55 L10.3 14.7 10.45 13.9 10.45 13.8 9.4 13.1 9.3 14.8 9.55 16.55 9.9 18.6 Q9.8 20.85 7.8 20.95 5.5 20.85 5.5 18.5 L5.75 16.9 6.1 15.4 5.85 14.15 7.05 14.45 Q7.95 14.5 8.75 13.15 L11.15 13.0 13.05 13.2 12.65 13.65 Q13.4 13.95 13.4 15.4 L13.4 15.65 Q14.25 14.2 14.25 13.3 L17.05 13.55" fill="#0099ff" fill-rule="evenodd" stroke="none"/>
  </g>
</svg>
